G04 #@! TF.GenerationSoftware,KiCad,Pcbnew,(5.1.2)-1*
G04 #@! TF.CreationDate,2019-05-13T20:23:08-05:00*
G04 #@! TF.ProjectId,van-sao,76616e2d-7361-46f2-9e6b-696361645f70,rev?*
G04 #@! TF.SameCoordinates,Original*
G04 #@! TF.FileFunction,Legend,Bot*
G04 #@! TF.FilePolarity,Positive*
%FSLAX46Y46*%
G04 Gerber Fmt 4.6, Leading zero omitted, Abs format (unit mm)*
G04 Created by KiCad (PCBNEW (5.1.2)-1) date 2019-05-13 20:23:08*
%MOMM*%
%LPD*%
G04 APERTURE LIST*
%ADD10C,0.120000*%
%ADD11C,0.150000*%
%ADD12C,0.100000*%
G04 APERTURE END LIST*
D10*
X95200000Y-85080000D02*
X95200000Y-81195000D01*
X95200000Y-81195000D02*
X98120000Y-81195000D01*
X98120000Y-81195000D02*
X98120000Y-85080000D01*
X78673460Y-81499440D02*
X78673460Y-85384440D01*
X75753460Y-81499440D02*
X78673460Y-81499440D01*
X75753460Y-85384440D02*
X75753460Y-81499440D01*
X77863784Y-88467520D02*
X76659656Y-88467520D01*
X77863784Y-90287520D02*
X76659656Y-90287520D01*
D11*
X94967380Y-82741904D02*
X93967380Y-82741904D01*
X93967380Y-82980000D01*
X94015000Y-83122857D01*
X94110238Y-83218095D01*
X94205476Y-83265714D01*
X94395952Y-83313333D01*
X94538809Y-83313333D01*
X94729285Y-83265714D01*
X94824523Y-83218095D01*
X94919761Y-83122857D01*
X94967380Y-82980000D01*
X94967380Y-82741904D01*
X94967380Y-84265714D02*
X94967380Y-83694285D01*
X94967380Y-83980000D02*
X93967380Y-83980000D01*
X94110238Y-83884761D01*
X94205476Y-83789523D01*
X94253095Y-83694285D01*
X75520840Y-83046344D02*
X74520840Y-83046344D01*
X74520840Y-83284440D01*
X74568460Y-83427297D01*
X74663698Y-83522535D01*
X74758936Y-83570154D01*
X74949412Y-83617773D01*
X75092269Y-83617773D01*
X75282745Y-83570154D01*
X75377983Y-83522535D01*
X75473221Y-83427297D01*
X75520840Y-83284440D01*
X75520840Y-83046344D01*
X74616079Y-83998725D02*
X74568460Y-84046344D01*
X74520840Y-84141582D01*
X74520840Y-84379678D01*
X74568460Y-84474916D01*
X74616079Y-84522535D01*
X74711317Y-84570154D01*
X74806555Y-84570154D01*
X74949412Y-84522535D01*
X75520840Y-83951106D01*
X75520840Y-84570154D01*
X77428386Y-88009900D02*
X77761720Y-87533710D01*
X77999815Y-88009900D02*
X77999815Y-87009900D01*
X77618862Y-87009900D01*
X77523624Y-87057520D01*
X77476005Y-87105139D01*
X77428386Y-87200377D01*
X77428386Y-87343234D01*
X77476005Y-87438472D01*
X77523624Y-87486091D01*
X77618862Y-87533710D01*
X77999815Y-87533710D01*
X76476005Y-88009900D02*
X77047434Y-88009900D01*
X76761720Y-88009900D02*
X76761720Y-87009900D01*
X76856958Y-87152758D01*
X76952196Y-87247996D01*
X77047434Y-87295615D01*
D12*
X68964370Y-96655776D02*
X69294353Y-97315742D01*
X68634387Y-96985759D01*
X68634387Y-97881427D02*
X68681528Y-97881427D01*
X68775808Y-97834287D01*
X68822949Y-97787146D01*
X68870089Y-97692866D01*
X68870089Y-97598585D01*
X68846519Y-97527874D01*
X68775808Y-97410023D01*
X68705098Y-97339312D01*
X68587247Y-97268601D01*
X68516536Y-97245031D01*
X68422255Y-97245031D01*
X68327974Y-97292172D01*
X68280834Y-97339312D01*
X68233693Y-97433593D01*
X68233693Y-97480733D01*
X68139412Y-98376402D02*
X68186553Y-98376402D01*
X68280834Y-98329262D01*
X68327974Y-98282121D01*
X68375115Y-98187840D01*
X68375115Y-98093559D01*
X68351544Y-98022849D01*
X68280834Y-97904998D01*
X68210123Y-97834287D01*
X68092272Y-97763576D01*
X68021561Y-97740006D01*
X67927280Y-97740006D01*
X67832999Y-97787146D01*
X67785859Y-97834287D01*
X67738718Y-97928568D01*
X67738718Y-97975708D01*
X65112996Y-93370087D02*
X65136566Y-93299376D01*
X65207277Y-93228665D01*
X65301558Y-93181525D01*
X65395838Y-93181525D01*
X65466549Y-93205095D01*
X65584400Y-93275806D01*
X65655111Y-93346516D01*
X65725822Y-93464367D01*
X65749392Y-93535078D01*
X65749392Y-93629359D01*
X65702251Y-93723640D01*
X65655111Y-93770780D01*
X65560830Y-93817921D01*
X65513690Y-93817921D01*
X65348698Y-93652929D01*
X65442979Y-93558648D01*
X65348698Y-94077193D02*
X64853723Y-93582219D01*
X65065855Y-94360036D01*
X64570881Y-93865061D01*
X64830153Y-94595738D02*
X64335178Y-94100764D01*
X64217327Y-94218615D01*
X64170187Y-94312896D01*
X64170187Y-94407176D01*
X64193757Y-94477887D01*
X64264468Y-94595738D01*
X64335178Y-94666449D01*
X64453029Y-94737160D01*
X64523740Y-94760730D01*
X64618021Y-94760730D01*
X64712302Y-94713589D01*
X64830153Y-94595738D01*
X62180860Y-97197891D02*
X62133720Y-97292172D01*
X62015868Y-97410023D01*
X61945158Y-97433593D01*
X61898017Y-97433593D01*
X61827307Y-97410023D01*
X61780166Y-97362882D01*
X61756596Y-97292172D01*
X61756596Y-97245031D01*
X61780166Y-97174321D01*
X61850877Y-97056469D01*
X61874447Y-96985759D01*
X61874447Y-96938618D01*
X61850877Y-96867908D01*
X61803736Y-96820767D01*
X61733026Y-96797197D01*
X61685885Y-96797197D01*
X61615175Y-96820767D01*
X61497324Y-96938618D01*
X61450183Y-97032899D01*
X61379472Y-97952138D02*
X61426613Y-97952138D01*
X61520894Y-97904998D01*
X61568034Y-97857857D01*
X61615175Y-97763576D01*
X61615175Y-97669295D01*
X61591604Y-97598585D01*
X61520894Y-97480733D01*
X61450183Y-97410023D01*
X61332332Y-97339312D01*
X61261621Y-97315742D01*
X61167340Y-97315742D01*
X61073059Y-97362882D01*
X61025919Y-97410023D01*
X60978779Y-97504304D01*
X60978779Y-97551444D01*
X60978779Y-98447113D02*
X61214481Y-98211410D01*
X60719506Y-97716436D01*
X65784747Y-100778208D02*
X65737607Y-100872489D01*
X65619756Y-100990340D01*
X65549045Y-101013910D01*
X65501904Y-101013910D01*
X65431194Y-100990340D01*
X65384053Y-100943199D01*
X65360483Y-100872489D01*
X65360483Y-100825348D01*
X65384053Y-100754637D01*
X65454764Y-100636786D01*
X65478334Y-100566076D01*
X65478334Y-100518935D01*
X65454764Y-100448224D01*
X65407624Y-100401084D01*
X65336913Y-100377514D01*
X65289772Y-100377514D01*
X65219062Y-100401084D01*
X65101211Y-100518935D01*
X65054070Y-100613216D01*
X65313343Y-101296753D02*
X64818368Y-100801778D01*
X64700517Y-100919629D01*
X64653376Y-101013910D01*
X64653376Y-101108191D01*
X64676947Y-101178902D01*
X64747657Y-101296753D01*
X64818368Y-101367463D01*
X64936219Y-101438174D01*
X65006930Y-101461744D01*
X65101211Y-101461744D01*
X65195492Y-101414604D01*
X65313343Y-101296753D01*
X64700517Y-101626736D02*
X64464815Y-101862438D01*
X64889079Y-101721017D02*
X64229112Y-101391034D01*
X64559095Y-102051000D01*
M02*
