G04 #@! TF.GenerationSoftware,KiCad,Pcbnew,(5.1.2)-1*
G04 #@! TF.CreationDate,2019-05-13T20:23:08-05:00*
G04 #@! TF.ProjectId,van-sao,76616e2d-7361-46f2-9e6b-696361645f70,rev?*
G04 #@! TF.SameCoordinates,Original*
G04 #@! TF.FileFunction,Soldermask,Top*
G04 #@! TF.FilePolarity,Negative*
%FSLAX46Y46*%
G04 Gerber Fmt 4.6, Leading zero omitted, Abs format (unit mm)*
G04 Created by KiCad (PCBNEW (5.1.2)-1) date 2019-05-13 20:23:08*
%MOMM*%
%LPD*%
G04 APERTURE LIST*
%ADD10C,0.100000*%
G04 APERTURE END LIST*
D10*
G36*
X65096872Y-98486778D02*
G01*
X65246172Y-98516475D01*
X65410144Y-98584395D01*
X65557714Y-98682998D01*
X65683213Y-98808497D01*
X65781816Y-98956067D01*
X65849736Y-99120039D01*
X65884360Y-99294110D01*
X65884360Y-99471592D01*
X65849736Y-99645663D01*
X65781816Y-99809635D01*
X65683213Y-99957205D01*
X65557714Y-100082704D01*
X65410144Y-100181307D01*
X65246172Y-100249227D01*
X65096872Y-100278924D01*
X65072102Y-100283851D01*
X64894618Y-100283851D01*
X64869848Y-100278924D01*
X64720548Y-100249227D01*
X64556576Y-100181307D01*
X64409006Y-100082704D01*
X64283507Y-99957205D01*
X64184904Y-99809635D01*
X64116984Y-99645663D01*
X64082360Y-99471592D01*
X64082360Y-99294110D01*
X64116984Y-99120039D01*
X64184904Y-98956067D01*
X64283507Y-98808497D01*
X64409006Y-98682998D01*
X64556576Y-98584395D01*
X64720548Y-98516475D01*
X64869848Y-98486778D01*
X64894618Y-98481851D01*
X65072102Y-98481851D01*
X65096872Y-98486778D01*
X65096872Y-98486778D01*
G37*
G36*
X66884071Y-96691749D02*
G01*
X66956038Y-96698837D01*
X67125877Y-96750357D01*
X67282402Y-96834022D01*
X67318140Y-96863352D01*
X67419597Y-96946614D01*
X67502859Y-97048071D01*
X67532189Y-97083809D01*
X67615854Y-97240334D01*
X67667374Y-97410173D01*
X67684770Y-97586800D01*
X67667374Y-97763427D01*
X67615854Y-97933266D01*
X67532189Y-98089791D01*
X67502859Y-98125529D01*
X67419597Y-98226986D01*
X67318140Y-98310248D01*
X67282402Y-98339578D01*
X67125877Y-98423243D01*
X66956038Y-98474763D01*
X66889853Y-98481282D01*
X66823671Y-98487800D01*
X66735151Y-98487800D01*
X66668969Y-98481282D01*
X66602784Y-98474763D01*
X66432945Y-98423243D01*
X66276420Y-98339578D01*
X66240682Y-98310248D01*
X66139225Y-98226986D01*
X66055963Y-98125529D01*
X66026633Y-98089791D01*
X65942968Y-97933266D01*
X65891448Y-97763427D01*
X65874052Y-97586800D01*
X65891448Y-97410173D01*
X65942968Y-97240334D01*
X66026633Y-97083809D01*
X66055963Y-97048071D01*
X66139225Y-96946614D01*
X66240682Y-96863352D01*
X66276420Y-96834022D01*
X66432945Y-96750357D01*
X66602784Y-96698837D01*
X66674751Y-96691749D01*
X66735151Y-96685800D01*
X66823671Y-96685800D01*
X66884071Y-96691749D01*
X66884071Y-96691749D01*
G37*
G36*
X63291969Y-96691749D02*
G01*
X63363936Y-96698837D01*
X63533775Y-96750357D01*
X63690300Y-96834022D01*
X63726038Y-96863352D01*
X63827495Y-96946614D01*
X63910757Y-97048071D01*
X63940087Y-97083809D01*
X64023752Y-97240334D01*
X64075272Y-97410173D01*
X64092668Y-97586800D01*
X64075272Y-97763427D01*
X64023752Y-97933266D01*
X63940087Y-98089791D01*
X63910757Y-98125529D01*
X63827495Y-98226986D01*
X63726038Y-98310248D01*
X63690300Y-98339578D01*
X63533775Y-98423243D01*
X63363936Y-98474763D01*
X63297751Y-98481282D01*
X63231569Y-98487800D01*
X63143049Y-98487800D01*
X63076867Y-98481282D01*
X63010682Y-98474763D01*
X62840843Y-98423243D01*
X62684318Y-98339578D01*
X62648580Y-98310248D01*
X62547123Y-98226986D01*
X62463861Y-98125529D01*
X62434531Y-98089791D01*
X62350866Y-97933266D01*
X62299346Y-97763427D01*
X62281950Y-97586800D01*
X62299346Y-97410173D01*
X62350866Y-97240334D01*
X62434531Y-97083809D01*
X62463861Y-97048071D01*
X62547123Y-96946614D01*
X62648580Y-96863352D01*
X62684318Y-96834022D01*
X62840843Y-96750357D01*
X63010682Y-96698837D01*
X63082649Y-96691749D01*
X63143049Y-96685800D01*
X63231569Y-96685800D01*
X63291969Y-96691749D01*
X63291969Y-96691749D01*
G37*
G36*
X65093802Y-94896267D02*
G01*
X65159987Y-94902786D01*
X65329826Y-94954306D01*
X65486351Y-95037971D01*
X65522089Y-95067301D01*
X65623546Y-95150563D01*
X65706808Y-95252020D01*
X65736138Y-95287758D01*
X65819803Y-95444283D01*
X65871323Y-95614122D01*
X65888719Y-95790749D01*
X65871323Y-95967376D01*
X65819803Y-96137215D01*
X65736138Y-96293740D01*
X65706808Y-96329478D01*
X65623546Y-96430935D01*
X65522089Y-96514197D01*
X65486351Y-96543527D01*
X65329826Y-96627192D01*
X65159987Y-96678712D01*
X65093802Y-96685231D01*
X65027620Y-96691749D01*
X64939100Y-96691749D01*
X64872918Y-96685231D01*
X64806733Y-96678712D01*
X64636894Y-96627192D01*
X64480369Y-96543527D01*
X64444631Y-96514197D01*
X64343174Y-96430935D01*
X64259912Y-96329478D01*
X64230582Y-96293740D01*
X64146917Y-96137215D01*
X64095397Y-95967376D01*
X64078001Y-95790749D01*
X64095397Y-95614122D01*
X64146917Y-95444283D01*
X64230582Y-95287758D01*
X64259912Y-95252020D01*
X64343174Y-95150563D01*
X64444631Y-95067301D01*
X64480369Y-95037971D01*
X64636894Y-94954306D01*
X64806733Y-94902786D01*
X64872918Y-94896267D01*
X64939100Y-94889749D01*
X65027620Y-94889749D01*
X65093802Y-94896267D01*
X65093802Y-94896267D01*
G37*
G36*
X77411916Y-82906283D02*
G01*
X77475980Y-82919026D01*
X77639770Y-82986870D01*
X77787177Y-83085364D01*
X77912536Y-83210723D01*
X78011030Y-83358130D01*
X78011031Y-83358132D01*
X78078874Y-83521920D01*
X78088168Y-83568642D01*
X78113460Y-83695798D01*
X78113460Y-83873082D01*
X78078874Y-84046960D01*
X78011030Y-84210750D01*
X77912536Y-84358157D01*
X77787177Y-84483516D01*
X77639770Y-84582010D01*
X77639769Y-84582011D01*
X77639768Y-84582011D01*
X77475980Y-84649854D01*
X77302104Y-84684440D01*
X77124816Y-84684440D01*
X76950940Y-84649854D01*
X76787152Y-84582011D01*
X76787151Y-84582011D01*
X76787150Y-84582010D01*
X76639743Y-84483516D01*
X76514384Y-84358157D01*
X76415890Y-84210750D01*
X76348046Y-84046960D01*
X76313460Y-83873082D01*
X76313460Y-83695798D01*
X76338753Y-83568642D01*
X76348046Y-83521920D01*
X76415889Y-83358132D01*
X76415890Y-83358130D01*
X76514384Y-83210723D01*
X76639743Y-83085364D01*
X76787150Y-82986870D01*
X76950940Y-82919026D01*
X77015004Y-82906283D01*
X77124816Y-82884440D01*
X77302104Y-82884440D01*
X77411916Y-82906283D01*
X77411916Y-82906283D01*
G37*
G36*
X96922520Y-82614586D02*
G01*
X97086310Y-82682430D01*
X97233717Y-82780924D01*
X97359076Y-82906283D01*
X97412922Y-82986870D01*
X97457571Y-83053692D01*
X97525414Y-83217480D01*
X97560000Y-83391356D01*
X97560000Y-83568644D01*
X97525414Y-83742520D01*
X97471334Y-83873082D01*
X97457570Y-83906310D01*
X97359076Y-84053717D01*
X97233717Y-84179076D01*
X97086310Y-84277570D01*
X97086309Y-84277571D01*
X97086308Y-84277571D01*
X96922520Y-84345414D01*
X96748644Y-84380000D01*
X96571356Y-84380000D01*
X96397480Y-84345414D01*
X96233692Y-84277571D01*
X96233691Y-84277571D01*
X96233690Y-84277570D01*
X96086283Y-84179076D01*
X95960924Y-84053717D01*
X95862430Y-83906310D01*
X95848667Y-83873082D01*
X95794586Y-83742520D01*
X95760000Y-83568644D01*
X95760000Y-83391356D01*
X95794586Y-83217480D01*
X95862429Y-83053692D01*
X95907078Y-82986870D01*
X95960924Y-82906283D01*
X96086283Y-82780924D01*
X96233690Y-82682430D01*
X96397480Y-82614586D01*
X96571356Y-82580000D01*
X96748644Y-82580000D01*
X96922520Y-82614586D01*
X96922520Y-82614586D01*
G37*
M02*
