G04 #@! TF.GenerationSoftware,KiCad,Pcbnew,(5.1.2)-1*
G04 #@! TF.CreationDate,2019-05-13T20:23:08-05:00*
G04 #@! TF.ProjectId,van-sao,76616e2d-7361-46f2-9e6b-696361645f70,rev?*
G04 #@! TF.SameCoordinates,Original*
G04 #@! TF.FileFunction,Soldermask,Bot*
G04 #@! TF.FilePolarity,Negative*
%FSLAX46Y46*%
G04 Gerber Fmt 4.6, Leading zero omitted, Abs format (unit mm)*
G04 Created by KiCad (PCBNEW (5.1.2)-1) date 2019-05-13 20:23:08*
%MOMM*%
%LPD*%
G04 APERTURE LIST*
%ADD10C,0.150000*%
%ADD11C,0.010000*%
%ADD12C,0.100000*%
G04 APERTURE END LIST*
D10*
X74591490Y-76097261D02*
X74496252Y-76144880D01*
X74305776Y-76144880D01*
X74210538Y-76097261D01*
X74162919Y-76002023D01*
X74162919Y-75954404D01*
X74210538Y-75859166D01*
X74305776Y-75811547D01*
X74448633Y-75811547D01*
X74543871Y-75763928D01*
X74591490Y-75668690D01*
X74591490Y-75621071D01*
X74543871Y-75525833D01*
X74448633Y-75478214D01*
X74305776Y-75478214D01*
X74210538Y-75525833D01*
X73829585Y-75478214D02*
X73591490Y-76144880D01*
X73353395Y-75478214D02*
X73591490Y-76144880D01*
X73686728Y-76382976D01*
X73734347Y-76430595D01*
X73829585Y-76478214D01*
X73020061Y-76097261D02*
X72924823Y-76144880D01*
X72734347Y-76144880D01*
X72639109Y-76097261D01*
X72591490Y-76002023D01*
X72591490Y-75954404D01*
X72639109Y-75859166D01*
X72734347Y-75811547D01*
X72877204Y-75811547D01*
X72972442Y-75763928D01*
X73020061Y-75668690D01*
X73020061Y-75621071D01*
X72972442Y-75525833D01*
X72877204Y-75478214D01*
X72734347Y-75478214D01*
X72639109Y-75525833D01*
X71734347Y-76144880D02*
X71734347Y-75621071D01*
X71781966Y-75525833D01*
X71877204Y-75478214D01*
X72067680Y-75478214D01*
X72162919Y-75525833D01*
X71734347Y-76097261D02*
X71829585Y-76144880D01*
X72067680Y-76144880D01*
X72162919Y-76097261D01*
X72210538Y-76002023D01*
X72210538Y-75906785D01*
X72162919Y-75811547D01*
X72067680Y-75763928D01*
X71829585Y-75763928D01*
X71734347Y-75716309D01*
X71258157Y-76144880D02*
X71258157Y-75478214D01*
X71258157Y-75668690D02*
X71210538Y-75573452D01*
X71162919Y-75525833D01*
X71067680Y-75478214D01*
X70972442Y-75478214D01*
X70639109Y-76144880D02*
X70639109Y-75478214D01*
X70639109Y-75668690D02*
X70591490Y-75573452D01*
X70543871Y-75525833D01*
X70448633Y-75478214D01*
X70353395Y-75478214D01*
X69877204Y-76144880D02*
X69972442Y-76097261D01*
X70020061Y-76049642D01*
X70067680Y-75954404D01*
X70067680Y-75668690D01*
X70020061Y-75573452D01*
X69972442Y-75525833D01*
X69877204Y-75478214D01*
X69734347Y-75478214D01*
X69639109Y-75525833D01*
X69591490Y-75573452D01*
X69543871Y-75668690D01*
X69543871Y-75954404D01*
X69591490Y-76049642D01*
X69639109Y-76097261D01*
X69734347Y-76144880D01*
X69877204Y-76144880D01*
X69115300Y-75478214D02*
X69115300Y-76144880D01*
X69115300Y-75573452D02*
X69067680Y-75525833D01*
X68972442Y-75478214D01*
X68829585Y-75478214D01*
X68734347Y-75525833D01*
X68686728Y-75621071D01*
X68686728Y-76144880D01*
X74853395Y-77794880D02*
X74853395Y-76794880D01*
X74615300Y-76794880D01*
X74472442Y-76842500D01*
X74377204Y-76937738D01*
X74329585Y-77032976D01*
X74281966Y-77223452D01*
X74281966Y-77366309D01*
X74329585Y-77556785D01*
X74377204Y-77652023D01*
X74472442Y-77747261D01*
X74615300Y-77794880D01*
X74853395Y-77794880D01*
X73472442Y-77747261D02*
X73567680Y-77794880D01*
X73758157Y-77794880D01*
X73853395Y-77747261D01*
X73901014Y-77652023D01*
X73901014Y-77271071D01*
X73853395Y-77175833D01*
X73758157Y-77128214D01*
X73567680Y-77128214D01*
X73472442Y-77175833D01*
X73424823Y-77271071D01*
X73424823Y-77366309D01*
X73901014Y-77461547D01*
X72567680Y-77794880D02*
X72567680Y-77271071D01*
X72615300Y-77175833D01*
X72710538Y-77128214D01*
X72901014Y-77128214D01*
X72996252Y-77175833D01*
X72567680Y-77747261D02*
X72662919Y-77794880D01*
X72901014Y-77794880D01*
X72996252Y-77747261D01*
X73043871Y-77652023D01*
X73043871Y-77556785D01*
X72996252Y-77461547D01*
X72901014Y-77413928D01*
X72662919Y-77413928D01*
X72567680Y-77366309D01*
X71662919Y-77794880D02*
X71662919Y-76794880D01*
X71662919Y-77747261D02*
X71758157Y-77794880D01*
X71948633Y-77794880D01*
X72043871Y-77747261D01*
X72091490Y-77699642D01*
X72139109Y-77604404D01*
X72139109Y-77318690D01*
X72091490Y-77223452D01*
X72043871Y-77175833D01*
X71948633Y-77128214D01*
X71758157Y-77128214D01*
X71662919Y-77175833D01*
X71329585Y-76794880D02*
X70758157Y-76794880D01*
X71043871Y-77794880D02*
X71043871Y-76794880D01*
X70424823Y-77794880D02*
X70424823Y-77128214D01*
X70424823Y-77318690D02*
X70377204Y-77223452D01*
X70329585Y-77175833D01*
X70234347Y-77128214D01*
X70139109Y-77128214D01*
X69901014Y-76794880D02*
X69281966Y-76794880D01*
X69615300Y-77175833D01*
X69472442Y-77175833D01*
X69377204Y-77223452D01*
X69329585Y-77271071D01*
X69281966Y-77366309D01*
X69281966Y-77604404D01*
X69329585Y-77699642D01*
X69377204Y-77747261D01*
X69472442Y-77794880D01*
X69758157Y-77794880D01*
X69853395Y-77747261D01*
X69901014Y-77699642D01*
X68948633Y-76794880D02*
X68329585Y-76794880D01*
X68662919Y-77175833D01*
X68520061Y-77175833D01*
X68424823Y-77223452D01*
X68377204Y-77271071D01*
X68329585Y-77366309D01*
X68329585Y-77604404D01*
X68377204Y-77699642D01*
X68424823Y-77747261D01*
X68520061Y-77794880D01*
X68805776Y-77794880D01*
X68901014Y-77747261D01*
X68948633Y-77699642D01*
X92018328Y-73664343D02*
X91732614Y-73759581D01*
X91256423Y-73759581D01*
X91065947Y-73664343D01*
X90970709Y-73569105D01*
X90875471Y-73378629D01*
X90875471Y-73188153D01*
X90970709Y-72997677D01*
X91065947Y-72902439D01*
X91256423Y-72807200D01*
X91637376Y-72711962D01*
X91827852Y-72616724D01*
X91923090Y-72521486D01*
X92018328Y-72331010D01*
X92018328Y-72140534D01*
X91923090Y-71950058D01*
X91827852Y-71854820D01*
X91637376Y-71759581D01*
X91161185Y-71759581D01*
X90875471Y-71854820D01*
X89256423Y-73664343D02*
X89446900Y-73759581D01*
X89827852Y-73759581D01*
X90018328Y-73664343D01*
X90113566Y-73473867D01*
X90113566Y-72711962D01*
X90018328Y-72521486D01*
X89827852Y-72426248D01*
X89446900Y-72426248D01*
X89256423Y-72521486D01*
X89161185Y-72711962D01*
X89161185Y-72902439D01*
X90113566Y-73092915D01*
X87446900Y-73664343D02*
X87637376Y-73759581D01*
X88018328Y-73759581D01*
X88208804Y-73664343D01*
X88304042Y-73569105D01*
X88399280Y-73378629D01*
X88399280Y-72807200D01*
X88304042Y-72616724D01*
X88208804Y-72521486D01*
X88018328Y-72426248D01*
X87637376Y-72426248D01*
X87446900Y-72521486D01*
X86589757Y-73759581D02*
X86589757Y-71759581D01*
X85446900Y-73759581D02*
X86304042Y-72616724D01*
X85446900Y-71759581D02*
X86589757Y-72902439D01*
X83446900Y-73569105D02*
X83542138Y-73664343D01*
X83827852Y-73759581D01*
X84018328Y-73759581D01*
X84304042Y-73664343D01*
X84494519Y-73473867D01*
X84589757Y-73283391D01*
X84684995Y-72902439D01*
X84684995Y-72616724D01*
X84589757Y-72235772D01*
X84494519Y-72045296D01*
X84304042Y-71854820D01*
X84018328Y-71759581D01*
X83827852Y-71759581D01*
X83542138Y-71854820D01*
X83446900Y-71950058D01*
X79923090Y-73759581D02*
X80589757Y-72807200D01*
X81065947Y-73759581D02*
X81065947Y-71759581D01*
X80304042Y-71759581D01*
X80113566Y-71854820D01*
X80018328Y-71950058D01*
X79923090Y-72140534D01*
X79923090Y-72426248D01*
X80018328Y-72616724D01*
X80113566Y-72711962D01*
X80304042Y-72807200D01*
X81065947Y-72807200D01*
X78780233Y-73759581D02*
X78970709Y-73664343D01*
X79065947Y-73569105D01*
X79161185Y-73378629D01*
X79161185Y-72807200D01*
X79065947Y-72616724D01*
X78970709Y-72521486D01*
X78780233Y-72426248D01*
X78494519Y-72426248D01*
X78304042Y-72521486D01*
X78208804Y-72616724D01*
X78113566Y-72807200D01*
X78113566Y-73378629D01*
X78208804Y-73569105D01*
X78304042Y-73664343D01*
X78494519Y-73759581D01*
X78780233Y-73759581D01*
X76399280Y-73759581D02*
X76399280Y-72711962D01*
X76494519Y-72521486D01*
X76684995Y-72426248D01*
X77065947Y-72426248D01*
X77256423Y-72521486D01*
X76399280Y-73664343D02*
X76589757Y-73759581D01*
X77065947Y-73759581D01*
X77256423Y-73664343D01*
X77351661Y-73473867D01*
X77351661Y-73283391D01*
X77256423Y-73092915D01*
X77065947Y-72997677D01*
X76589757Y-72997677D01*
X76399280Y-72902439D01*
X74589757Y-73759581D02*
X74589757Y-71759581D01*
X74589757Y-73664343D02*
X74780233Y-73759581D01*
X75161185Y-73759581D01*
X75351661Y-73664343D01*
X75446900Y-73569105D01*
X75542138Y-73378629D01*
X75542138Y-72807200D01*
X75446900Y-72616724D01*
X75351661Y-72521486D01*
X75161185Y-72426248D01*
X74780233Y-72426248D01*
X74589757Y-72521486D01*
X70970709Y-73569105D02*
X71065947Y-73664343D01*
X71351661Y-73759581D01*
X71542138Y-73759581D01*
X71827852Y-73664343D01*
X72018328Y-73473867D01*
X72113566Y-73283391D01*
X72208804Y-72902439D01*
X72208804Y-72616724D01*
X72113566Y-72235772D01*
X72018328Y-72045296D01*
X71827852Y-71854820D01*
X71542138Y-71759581D01*
X71351661Y-71759581D01*
X71065947Y-71854820D01*
X70970709Y-71950058D01*
X70113566Y-73759581D02*
X70113566Y-72426248D01*
X70113566Y-72807200D02*
X70018328Y-72616724D01*
X69923090Y-72521486D01*
X69732614Y-72426248D01*
X69542138Y-72426248D01*
X68113566Y-73664343D02*
X68304042Y-73759581D01*
X68684995Y-73759581D01*
X68875471Y-73664343D01*
X68970709Y-73473867D01*
X68970709Y-72711962D01*
X68875471Y-72521486D01*
X68684995Y-72426248D01*
X68304042Y-72426248D01*
X68113566Y-72521486D01*
X68018328Y-72711962D01*
X68018328Y-72902439D01*
X68970709Y-73092915D01*
X67351661Y-72426248D02*
X66970709Y-73759581D01*
X66589757Y-72807200D01*
X66208804Y-73759581D01*
X65827852Y-72426248D01*
X63542138Y-73759581D02*
X63542138Y-71759581D01*
X63065947Y-71759581D01*
X62780233Y-71854820D01*
X62589757Y-72045296D01*
X62494519Y-72235772D01*
X62399280Y-72616724D01*
X62399280Y-72902439D01*
X62494519Y-73283391D01*
X62589757Y-73473867D01*
X62780233Y-73664343D01*
X63065947Y-73759581D01*
X63542138Y-73759581D01*
X60780233Y-73664343D02*
X60970709Y-73759581D01*
X61351661Y-73759581D01*
X61542138Y-73664343D01*
X61637376Y-73473867D01*
X61637376Y-72711962D01*
X61542138Y-72521486D01*
X61351661Y-72426248D01*
X60970709Y-72426248D01*
X60780233Y-72521486D01*
X60684995Y-72711962D01*
X60684995Y-72902439D01*
X61637376Y-73092915D01*
X60113566Y-72426248D02*
X59351661Y-72426248D01*
X59827852Y-73759581D02*
X59827852Y-72045296D01*
X59732614Y-71854820D01*
X59542138Y-71759581D01*
X59351661Y-71759581D01*
X57827852Y-73664343D02*
X58018328Y-73759581D01*
X58399280Y-73759581D01*
X58589757Y-73664343D01*
X58684995Y-73569105D01*
X58780233Y-73378629D01*
X58780233Y-72807200D01*
X58684995Y-72616724D01*
X58589757Y-72521486D01*
X58399280Y-72426248D01*
X58018328Y-72426248D01*
X57827852Y-72521486D01*
X56684995Y-73759581D02*
X56875471Y-73664343D01*
X56970709Y-73569105D01*
X57065947Y-73378629D01*
X57065947Y-72807200D01*
X56970709Y-72616724D01*
X56875471Y-72521486D01*
X56684995Y-72426248D01*
X56399280Y-72426248D01*
X56208804Y-72521486D01*
X56113566Y-72616724D01*
X56018328Y-72807200D01*
X56018328Y-73378629D01*
X56113566Y-73569105D01*
X56208804Y-73664343D01*
X56399280Y-73759581D01*
X56684995Y-73759581D01*
X55161185Y-72426248D02*
X55161185Y-73759581D01*
X55161185Y-72616724D02*
X55065947Y-72521486D01*
X54875471Y-72426248D01*
X54589757Y-72426248D01*
X54399280Y-72521486D01*
X54304042Y-72711962D01*
X54304042Y-73759581D01*
X51923090Y-71950058D02*
X51827852Y-71854820D01*
X51637376Y-71759581D01*
X51161185Y-71759581D01*
X50970709Y-71854820D01*
X50875471Y-71950058D01*
X50780233Y-72140534D01*
X50780233Y-72331010D01*
X50875471Y-72616724D01*
X52018328Y-73759581D01*
X50780233Y-73759581D01*
X49065947Y-71759581D02*
X49446900Y-71759581D01*
X49637376Y-71854820D01*
X49732614Y-71950058D01*
X49923090Y-72235772D01*
X50018328Y-72616724D01*
X50018328Y-73378629D01*
X49923090Y-73569105D01*
X49827852Y-73664343D01*
X49637376Y-73759581D01*
X49256423Y-73759581D01*
X49065947Y-73664343D01*
X48970709Y-73569105D01*
X48875471Y-73378629D01*
X48875471Y-72902439D01*
X48970709Y-72711962D01*
X49065947Y-72616724D01*
X49256423Y-72521486D01*
X49637376Y-72521486D01*
X49827852Y-72616724D01*
X49923090Y-72711962D01*
X50018328Y-72902439D01*
D11*
G36*
X52560677Y-86716800D02*
G01*
X52671218Y-86760054D01*
X52679831Y-86764423D01*
X52764583Y-86812745D01*
X52781857Y-86846149D01*
X52740759Y-86885819D01*
X52734110Y-86890712D01*
X52681771Y-86946705D01*
X52688473Y-87017803D01*
X52703974Y-87054789D01*
X52725939Y-87135886D01*
X52703982Y-87163789D01*
X52655556Y-87133111D01*
X52635886Y-87074761D01*
X52627344Y-86972773D01*
X52627334Y-86968961D01*
X52606555Y-86855220D01*
X52555248Y-86774011D01*
X52489955Y-86746723D01*
X52462780Y-86756213D01*
X52406716Y-86752016D01*
X52394927Y-86738691D01*
X52400437Y-86704123D01*
X52463051Y-86697492D01*
X52560677Y-86716800D01*
X52560677Y-86716800D01*
G37*
X52560677Y-86716800D02*
X52671218Y-86760054D01*
X52679831Y-86764423D01*
X52764583Y-86812745D01*
X52781857Y-86846149D01*
X52740759Y-86885819D01*
X52734110Y-86890712D01*
X52681771Y-86946705D01*
X52688473Y-87017803D01*
X52703974Y-87054789D01*
X52725939Y-87135886D01*
X52703982Y-87163789D01*
X52655556Y-87133111D01*
X52635886Y-87074761D01*
X52627344Y-86972773D01*
X52627334Y-86968961D01*
X52606555Y-86855220D01*
X52555248Y-86774011D01*
X52489955Y-86746723D01*
X52462780Y-86756213D01*
X52406716Y-86752016D01*
X52394927Y-86738691D01*
X52400437Y-86704123D01*
X52463051Y-86697492D01*
X52560677Y-86716800D01*
G36*
X56700506Y-85248572D02*
G01*
X56782798Y-85291052D01*
X56837384Y-85299315D01*
X56894228Y-85306158D01*
X56873108Y-85332713D01*
X56860667Y-85341000D01*
X56827421Y-85371880D01*
X56869466Y-85382215D01*
X56892417Y-85382685D01*
X56969406Y-85407352D01*
X56987667Y-85446834D01*
X56962231Y-85503008D01*
X56889008Y-85493763D01*
X56772621Y-85420173D01*
X56732068Y-85387463D01*
X56651361Y-85307929D01*
X56615054Y-85247419D01*
X56617956Y-85231535D01*
X56670340Y-85227656D01*
X56700506Y-85248572D01*
X56700506Y-85248572D01*
G37*
X56700506Y-85248572D02*
X56782798Y-85291052D01*
X56837384Y-85299315D01*
X56894228Y-85306158D01*
X56873108Y-85332713D01*
X56860667Y-85341000D01*
X56827421Y-85371880D01*
X56869466Y-85382215D01*
X56892417Y-85382685D01*
X56969406Y-85407352D01*
X56987667Y-85446834D01*
X56962231Y-85503008D01*
X56889008Y-85493763D01*
X56772621Y-85420173D01*
X56732068Y-85387463D01*
X56651361Y-85307929D01*
X56615054Y-85247419D01*
X56617956Y-85231535D01*
X56670340Y-85227656D01*
X56700506Y-85248572D01*
G36*
X56324110Y-85194859D02*
G01*
X56419139Y-85251295D01*
X56533688Y-85331245D01*
X56645824Y-85418403D01*
X56733612Y-85496462D01*
X56775119Y-85549115D01*
X56776000Y-85554038D01*
X56764941Y-85586437D01*
X56724889Y-85580056D01*
X56645536Y-85529408D01*
X56516572Y-85429005D01*
X56470187Y-85391245D01*
X56359732Y-85294756D01*
X56287873Y-85219922D01*
X56267558Y-85180555D01*
X56270536Y-85178245D01*
X56324110Y-85194859D01*
X56324110Y-85194859D01*
G37*
X56324110Y-85194859D02*
X56419139Y-85251295D01*
X56533688Y-85331245D01*
X56645824Y-85418403D01*
X56733612Y-85496462D01*
X56775119Y-85549115D01*
X56776000Y-85554038D01*
X56764941Y-85586437D01*
X56724889Y-85580056D01*
X56645536Y-85529408D01*
X56516572Y-85429005D01*
X56470187Y-85391245D01*
X56359732Y-85294756D01*
X56287873Y-85219922D01*
X56267558Y-85180555D01*
X56270536Y-85178245D01*
X56324110Y-85194859D01*
G36*
X53870281Y-86296007D02*
G01*
X53896108Y-86303813D01*
X53883951Y-86335194D01*
X53853774Y-86358654D01*
X53770261Y-86385987D01*
X53654512Y-86397294D01*
X53541374Y-86392361D01*
X53465695Y-86370976D01*
X53455358Y-86361084D01*
X53481086Y-86340648D01*
X53563424Y-86320287D01*
X53674391Y-86303636D01*
X53786004Y-86294330D01*
X53870281Y-86296007D01*
X53870281Y-86296007D01*
G37*
X53870281Y-86296007D02*
X53896108Y-86303813D01*
X53883951Y-86335194D01*
X53853774Y-86358654D01*
X53770261Y-86385987D01*
X53654512Y-86397294D01*
X53541374Y-86392361D01*
X53465695Y-86370976D01*
X53455358Y-86361084D01*
X53481086Y-86340648D01*
X53563424Y-86320287D01*
X53674391Y-86303636D01*
X53786004Y-86294330D01*
X53870281Y-86296007D01*
G36*
X54726224Y-86757912D02*
G01*
X54722834Y-86780334D01*
X54686623Y-86820675D01*
X54680500Y-86822667D01*
X54646843Y-86793141D01*
X54638167Y-86780334D01*
X54648220Y-86744469D01*
X54680500Y-86738000D01*
X54726224Y-86757912D01*
X54726224Y-86757912D01*
G37*
X54726224Y-86757912D02*
X54722834Y-86780334D01*
X54686623Y-86820675D01*
X54680500Y-86822667D01*
X54646843Y-86793141D01*
X54638167Y-86780334D01*
X54648220Y-86744469D01*
X54680500Y-86738000D01*
X54726224Y-86757912D01*
G36*
X53805082Y-86841558D02*
G01*
X53833834Y-86865000D01*
X53821217Y-86898634D01*
X53775330Y-86907334D01*
X53693252Y-86888443D01*
X53664500Y-86865000D01*
X53677116Y-86831366D01*
X53723003Y-86822667D01*
X53805082Y-86841558D01*
X53805082Y-86841558D01*
G37*
X53805082Y-86841558D02*
X53833834Y-86865000D01*
X53821217Y-86898634D01*
X53775330Y-86907334D01*
X53693252Y-86888443D01*
X53664500Y-86865000D01*
X53677116Y-86831366D01*
X53723003Y-86822667D01*
X53805082Y-86841558D01*
G36*
X53554849Y-87254816D02*
G01*
X53549660Y-87294186D01*
X53526344Y-87326053D01*
X53498678Y-87294015D01*
X53483145Y-87231693D01*
X53490928Y-87214961D01*
X53532778Y-87208010D01*
X53554849Y-87254816D01*
X53554849Y-87254816D01*
G37*
X53554849Y-87254816D02*
X53549660Y-87294186D01*
X53526344Y-87326053D01*
X53498678Y-87294015D01*
X53483145Y-87231693D01*
X53490928Y-87214961D01*
X53532778Y-87208010D01*
X53554849Y-87254816D01*
G36*
X53967613Y-87465000D02*
G01*
X54173985Y-87469323D01*
X54379327Y-87476668D01*
X54566532Y-87486621D01*
X54718490Y-87498766D01*
X54818092Y-87512688D01*
X54841328Y-87519445D01*
X54898494Y-87577228D01*
X54904417Y-87621744D01*
X54873954Y-87664165D01*
X54791609Y-87689696D01*
X54644782Y-87703302D01*
X54507666Y-87708301D01*
X54437380Y-87701012D01*
X54416326Y-87675480D01*
X54425796Y-87629219D01*
X54426864Y-87614661D01*
X54676555Y-87614661D01*
X54682308Y-87629925D01*
X54734767Y-87664216D01*
X54798435Y-87663719D01*
X54828667Y-87629499D01*
X54795203Y-87570476D01*
X54726081Y-87554302D01*
X54700976Y-87563927D01*
X54676555Y-87614661D01*
X54426864Y-87614661D01*
X54430778Y-87561347D01*
X54373912Y-87542367D01*
X54369315Y-87542334D01*
X54251037Y-87556585D01*
X54176846Y-87591020D01*
X54157721Y-87633163D01*
X54204643Y-87670537D01*
X54246584Y-87681791D01*
X54295007Y-87694723D01*
X54264273Y-87701746D01*
X54214834Y-87703922D01*
X54101024Y-87690427D01*
X53953817Y-87651844D01*
X53876167Y-87624337D01*
X53736770Y-87574753D01*
X53615621Y-87540613D01*
X53569250Y-87532417D01*
X53494779Y-87511498D01*
X53474000Y-87486244D01*
X53513405Y-87474321D01*
X53620215Y-87467084D01*
X53777320Y-87464115D01*
X53967613Y-87465000D01*
X53967613Y-87465000D01*
G37*
X53967613Y-87465000D02*
X54173985Y-87469323D01*
X54379327Y-87476668D01*
X54566532Y-87486621D01*
X54718490Y-87498766D01*
X54818092Y-87512688D01*
X54841328Y-87519445D01*
X54898494Y-87577228D01*
X54904417Y-87621744D01*
X54873954Y-87664165D01*
X54791609Y-87689696D01*
X54644782Y-87703302D01*
X54507666Y-87708301D01*
X54437380Y-87701012D01*
X54416326Y-87675480D01*
X54425796Y-87629219D01*
X54426864Y-87614661D01*
X54676555Y-87614661D01*
X54682308Y-87629925D01*
X54734767Y-87664216D01*
X54798435Y-87663719D01*
X54828667Y-87629499D01*
X54795203Y-87570476D01*
X54726081Y-87554302D01*
X54700976Y-87563927D01*
X54676555Y-87614661D01*
X54426864Y-87614661D01*
X54430778Y-87561347D01*
X54373912Y-87542367D01*
X54369315Y-87542334D01*
X54251037Y-87556585D01*
X54176846Y-87591020D01*
X54157721Y-87633163D01*
X54204643Y-87670537D01*
X54246584Y-87681791D01*
X54295007Y-87694723D01*
X54264273Y-87701746D01*
X54214834Y-87703922D01*
X54101024Y-87690427D01*
X53953817Y-87651844D01*
X53876167Y-87624337D01*
X53736770Y-87574753D01*
X53615621Y-87540613D01*
X53569250Y-87532417D01*
X53494779Y-87511498D01*
X53474000Y-87486244D01*
X53513405Y-87474321D01*
X53620215Y-87467084D01*
X53777320Y-87464115D01*
X53967613Y-87465000D01*
G36*
X54997352Y-87779189D02*
G01*
X54957208Y-87871708D01*
X54852869Y-87943092D01*
X54703332Y-87987935D01*
X54527594Y-88000831D01*
X54344654Y-87976372D01*
X54323805Y-87970863D01*
X54225644Y-87934014D01*
X54206515Y-87903339D01*
X54260850Y-87881672D01*
X54383081Y-87871844D01*
X54514479Y-87873881D01*
X54692058Y-87877503D01*
X54807408Y-87867322D01*
X54882303Y-87840120D01*
X54916756Y-87814403D01*
X54975748Y-87772969D01*
X54997352Y-87779189D01*
X54997352Y-87779189D01*
G37*
X54997352Y-87779189D02*
X54957208Y-87871708D01*
X54852869Y-87943092D01*
X54703332Y-87987935D01*
X54527594Y-88000831D01*
X54344654Y-87976372D01*
X54323805Y-87970863D01*
X54225644Y-87934014D01*
X54206515Y-87903339D01*
X54260850Y-87881672D01*
X54383081Y-87871844D01*
X54514479Y-87873881D01*
X54692058Y-87877503D01*
X54807408Y-87867322D01*
X54882303Y-87840120D01*
X54916756Y-87814403D01*
X54975748Y-87772969D01*
X54997352Y-87779189D01*
G36*
X53300800Y-87873572D02*
G01*
X53316933Y-87923334D01*
X53319307Y-87990837D01*
X53300704Y-88008000D01*
X53269517Y-87972509D01*
X53262334Y-87923334D01*
X53269162Y-87854422D01*
X53278563Y-87838667D01*
X53300800Y-87873572D01*
X53300800Y-87873572D01*
G37*
X53300800Y-87873572D02*
X53316933Y-87923334D01*
X53319307Y-87990837D01*
X53300704Y-88008000D01*
X53269517Y-87972509D01*
X53262334Y-87923334D01*
X53269162Y-87854422D01*
X53278563Y-87838667D01*
X53300800Y-87873572D01*
G36*
X55809731Y-88007048D02*
G01*
X55810074Y-88008000D01*
X55874251Y-88199453D01*
X55910687Y-88333135D01*
X55919103Y-88404052D01*
X55899219Y-88407210D01*
X55850756Y-88337614D01*
X55826051Y-88293400D01*
X55780298Y-88171505D01*
X55768225Y-88059000D01*
X55769467Y-88049730D01*
X55788440Y-87986391D01*
X55809731Y-88007048D01*
X55809731Y-88007048D01*
G37*
X55809731Y-88007048D02*
X55810074Y-88008000D01*
X55874251Y-88199453D01*
X55910687Y-88333135D01*
X55919103Y-88404052D01*
X55899219Y-88407210D01*
X55850756Y-88337614D01*
X55826051Y-88293400D01*
X55780298Y-88171505D01*
X55768225Y-88059000D01*
X55769467Y-88049730D01*
X55788440Y-87986391D01*
X55809731Y-88007048D01*
G36*
X53464954Y-88093611D02*
G01*
X53510230Y-88195352D01*
X53585469Y-88316303D01*
X53608679Y-88347799D01*
X53678745Y-88450510D01*
X53741427Y-88561539D01*
X53785773Y-88658355D01*
X53800832Y-88718428D01*
X53793335Y-88727667D01*
X53760581Y-88696521D01*
X53700137Y-88618908D01*
X53679520Y-88590084D01*
X53602436Y-88489504D01*
X53535530Y-88416974D01*
X53525663Y-88408682D01*
X53487072Y-88342084D01*
X53457927Y-88226597D01*
X53451562Y-88175848D01*
X53445915Y-88077863D01*
X53453297Y-88060622D01*
X53464954Y-88093611D01*
X53464954Y-88093611D01*
G37*
X53464954Y-88093611D02*
X53510230Y-88195352D01*
X53585469Y-88316303D01*
X53608679Y-88347799D01*
X53678745Y-88450510D01*
X53741427Y-88561539D01*
X53785773Y-88658355D01*
X53800832Y-88718428D01*
X53793335Y-88727667D01*
X53760581Y-88696521D01*
X53700137Y-88618908D01*
X53679520Y-88590084D01*
X53602436Y-88489504D01*
X53535530Y-88416974D01*
X53525663Y-88408682D01*
X53487072Y-88342084D01*
X53457927Y-88226597D01*
X53451562Y-88175848D01*
X53445915Y-88077863D01*
X53453297Y-88060622D01*
X53464954Y-88093611D01*
G36*
X54400912Y-89059848D02*
G01*
X54432918Y-89142860D01*
X54447667Y-89193334D01*
X54476441Y-89321836D01*
X54478892Y-89381514D01*
X54459583Y-89367801D01*
X54423081Y-89276131D01*
X54409182Y-89231818D01*
X54381765Y-89120739D01*
X54374727Y-89048085D01*
X54378450Y-89036772D01*
X54400912Y-89059848D01*
X54400912Y-89059848D01*
G37*
X54400912Y-89059848D02*
X54432918Y-89142860D01*
X54447667Y-89193334D01*
X54476441Y-89321836D01*
X54478892Y-89381514D01*
X54459583Y-89367801D01*
X54423081Y-89276131D01*
X54409182Y-89231818D01*
X54381765Y-89120739D01*
X54374727Y-89048085D01*
X54378450Y-89036772D01*
X54400912Y-89059848D01*
G36*
X55670755Y-89023234D02*
G01*
X55692407Y-89129571D01*
X55692614Y-89238340D01*
X55670491Y-89305002D01*
X55640108Y-89391471D01*
X55643982Y-89442422D01*
X55646777Y-89534848D01*
X55633258Y-89573916D01*
X55608951Y-89569585D01*
X55583923Y-89494365D01*
X55572653Y-89432437D01*
X55561742Y-89296388D01*
X55565554Y-89159261D01*
X55581283Y-89043329D01*
X55606124Y-88970861D01*
X55632174Y-88959990D01*
X55670755Y-89023234D01*
X55670755Y-89023234D01*
G37*
X55670755Y-89023234D02*
X55692407Y-89129571D01*
X55692614Y-89238340D01*
X55670491Y-89305002D01*
X55640108Y-89391471D01*
X55643982Y-89442422D01*
X55646777Y-89534848D01*
X55633258Y-89573916D01*
X55608951Y-89569585D01*
X55583923Y-89494365D01*
X55572653Y-89432437D01*
X55561742Y-89296388D01*
X55565554Y-89159261D01*
X55581283Y-89043329D01*
X55606124Y-88970861D01*
X55632174Y-88959990D01*
X55670755Y-89023234D01*
G36*
X55204210Y-89778116D02*
G01*
X55238470Y-89851791D01*
X55249277Y-89920178D01*
X55242460Y-89936652D01*
X55202881Y-89926818D01*
X55175095Y-89903828D01*
X55132609Y-89833198D01*
X55130403Y-89768302D01*
X55164481Y-89743667D01*
X55204210Y-89778116D01*
X55204210Y-89778116D01*
G37*
X55204210Y-89778116D02*
X55238470Y-89851791D01*
X55249277Y-89920178D01*
X55242460Y-89936652D01*
X55202881Y-89926818D01*
X55175095Y-89903828D01*
X55132609Y-89833198D01*
X55130403Y-89768302D01*
X55164481Y-89743667D01*
X55204210Y-89778116D01*
G36*
X56737567Y-88073001D02*
G01*
X56814344Y-88124414D01*
X56879040Y-88183824D01*
X56904308Y-88228959D01*
X56901346Y-88235316D01*
X56857630Y-88226170D01*
X56777458Y-88174896D01*
X56753179Y-88155816D01*
X56685451Y-88091413D01*
X56668408Y-88054860D01*
X56676060Y-88051856D01*
X56737567Y-88073001D01*
X56737567Y-88073001D01*
G37*
X56737567Y-88073001D02*
X56814344Y-88124414D01*
X56879040Y-88183824D01*
X56904308Y-88228959D01*
X56901346Y-88235316D01*
X56857630Y-88226170D01*
X56777458Y-88174896D01*
X56753179Y-88155816D01*
X56685451Y-88091413D01*
X56668408Y-88054860D01*
X56676060Y-88051856D01*
X56737567Y-88073001D01*
G36*
X53985977Y-84127803D02*
G01*
X54077796Y-84170179D01*
X54161859Y-84236669D01*
X54302330Y-84360004D01*
X54724248Y-84255129D01*
X54885639Y-84216648D01*
X55023579Y-84189563D01*
X55157612Y-84172462D01*
X55307282Y-84163932D01*
X55492130Y-84162560D01*
X55731702Y-84166934D01*
X55887000Y-84171084D01*
X56263507Y-84186497D01*
X56570887Y-84211112D01*
X56824424Y-84247597D01*
X57039405Y-84298620D01*
X57231116Y-84366849D01*
X57365194Y-84429074D01*
X57548179Y-84547757D01*
X57701693Y-84695913D01*
X57807298Y-84852937D01*
X57843972Y-84964149D01*
X57831860Y-85155227D01*
X57748228Y-85369822D01*
X57599790Y-85599076D01*
X57393258Y-85834134D01*
X57135346Y-86066136D01*
X56851193Y-86274090D01*
X56547784Y-86457673D01*
X56272483Y-86583572D01*
X56001729Y-86661178D01*
X55803275Y-86691688D01*
X55665127Y-86711742D01*
X55591091Y-86740117D01*
X55560620Y-86786265D01*
X55556897Y-86805030D01*
X55576774Y-86878736D01*
X55641301Y-86999295D01*
X55738573Y-87150553D01*
X55856686Y-87316355D01*
X55983736Y-87480545D01*
X56107819Y-87626967D01*
X56217031Y-87739468D01*
X56285812Y-87794260D01*
X56391754Y-87867106D01*
X56469892Y-87933548D01*
X56478405Y-87942980D01*
X56496416Y-87975302D01*
X56461435Y-87973956D01*
X56361739Y-87938230D01*
X56354696Y-87935470D01*
X56230190Y-87898352D01*
X56152196Y-87899418D01*
X56142760Y-87905752D01*
X56130739Y-87963174D01*
X56129244Y-88089881D01*
X56138019Y-88271179D01*
X56152156Y-88444542D01*
X56173071Y-88715402D01*
X56177700Y-88924626D01*
X56166008Y-89093672D01*
X56151019Y-89185375D01*
X56121412Y-89358055D01*
X56092661Y-89565995D01*
X56073784Y-89736502D01*
X56056488Y-89895981D01*
X56037894Y-89986993D01*
X56012015Y-90025613D01*
X55972865Y-90027910D01*
X55965860Y-90026216D01*
X55913719Y-90025603D01*
X55891193Y-90073685D01*
X55887000Y-90163706D01*
X55862712Y-90299479D01*
X55798025Y-90447123D01*
X55705206Y-90592594D01*
X55596522Y-90721846D01*
X55484239Y-90820834D01*
X55380625Y-90875513D01*
X55297945Y-90871838D01*
X55280222Y-90858445D01*
X55263670Y-90802740D01*
X55253516Y-90693126D01*
X55252000Y-90625611D01*
X55242068Y-90489377D01*
X55213695Y-90425010D01*
X55201400Y-90421000D01*
X55140543Y-90393848D01*
X55052561Y-90326436D01*
X55028751Y-90304584D01*
X54906702Y-90188167D01*
X54829149Y-90283417D01*
X54758496Y-90352567D01*
X54705899Y-90378667D01*
X54666183Y-90343312D01*
X54604491Y-90250240D01*
X54533605Y-90118937D01*
X54527811Y-90107141D01*
X54439704Y-89947249D01*
X54341282Y-89799651D01*
X54262794Y-89705929D01*
X54160197Y-89606305D01*
X54028106Y-89478953D01*
X53918500Y-89373831D01*
X53810309Y-89264450D01*
X53665302Y-89109595D01*
X53501192Y-88928562D01*
X53335689Y-88740647D01*
X53309677Y-88710551D01*
X52912521Y-88249683D01*
X52940328Y-87916256D01*
X52952322Y-87747187D01*
X52951993Y-87643737D01*
X52936921Y-87587439D01*
X52904685Y-87559825D01*
X52892984Y-87554988D01*
X52819887Y-87509378D01*
X52719736Y-87425251D01*
X52668662Y-87375990D01*
X52587743Y-87307560D01*
X52448190Y-87204012D01*
X52263423Y-87074692D01*
X52046859Y-86928945D01*
X51971861Y-86880159D01*
X52229075Y-86880159D01*
X52374469Y-86988996D01*
X52489984Y-87084588D01*
X52622793Y-87207254D01*
X52690015Y-87274473D01*
X52816808Y-87388799D01*
X52918332Y-87446631D01*
X52985219Y-87444756D01*
X53008149Y-87383584D01*
X52988769Y-87263699D01*
X52938708Y-87103421D01*
X52869408Y-86930055D01*
X52792310Y-86770906D01*
X52718857Y-86653281D01*
X52687875Y-86619260D01*
X52552890Y-86538807D01*
X52434354Y-86540535D01*
X52338026Y-86623069D01*
X52292128Y-86713829D01*
X52229075Y-86880159D01*
X51971861Y-86880159D01*
X51811918Y-86776117D01*
X51758495Y-86742091D01*
X51371530Y-86488137D01*
X51055921Y-86261440D01*
X50805061Y-86056232D01*
X50612343Y-85866751D01*
X50471162Y-85687230D01*
X50392314Y-85549885D01*
X50319336Y-85330777D01*
X50308402Y-85155518D01*
X50383667Y-85155518D01*
X50423615Y-85374282D01*
X50539527Y-85608121D01*
X50725506Y-85850495D01*
X50975656Y-86094866D01*
X51284079Y-86334695D01*
X51644878Y-86563443D01*
X51662421Y-86573469D01*
X52154580Y-86853437D01*
X52223699Y-86672451D01*
X52294160Y-86531250D01*
X52377148Y-86463829D01*
X52488251Y-86459358D01*
X52520351Y-86466328D01*
X52618573Y-86468068D01*
X52760844Y-86445137D01*
X52918052Y-86405376D01*
X53061082Y-86356623D01*
X53160821Y-86306718D01*
X53182128Y-86288124D01*
X53254135Y-86237408D01*
X53288684Y-86230000D01*
X53335050Y-86194485D01*
X53347000Y-86140150D01*
X53356269Y-86078995D01*
X53395781Y-86091277D01*
X53410500Y-86103000D01*
X53463717Y-86164111D01*
X53474000Y-86192850D01*
X53439636Y-86225832D01*
X53410500Y-86230000D01*
X53354338Y-86262203D01*
X53347000Y-86290217D01*
X53310675Y-86341595D01*
X53221067Y-86391314D01*
X53198834Y-86399334D01*
X53085357Y-86452534D01*
X53044318Y-86521279D01*
X53052895Y-86589834D01*
X53063103Y-86660072D01*
X53069441Y-86759167D01*
X53087633Y-86852899D01*
X53137221Y-86875773D01*
X53139363Y-86875451D01*
X53228126Y-86899692D01*
X53311939Y-86985632D01*
X53374408Y-87111080D01*
X53398041Y-87225565D01*
X53394935Y-87334102D01*
X53374152Y-87403399D01*
X53345963Y-87420720D01*
X53320639Y-87373327D01*
X53313281Y-87330667D01*
X53278308Y-87170673D01*
X53221476Y-87052317D01*
X53152850Y-86994684D01*
X53134727Y-86992000D01*
X53055401Y-86954380D01*
X53013443Y-86848315D01*
X53008334Y-86776871D01*
X52987964Y-86710017D01*
X52961411Y-86695667D01*
X52933292Y-86660842D01*
X52941051Y-86589834D01*
X52947325Y-86507809D01*
X52905805Y-86484000D01*
X52829716Y-86511963D01*
X52816456Y-86580342D01*
X52856020Y-86648751D01*
X52910042Y-86737161D01*
X52923667Y-86795308D01*
X52937183Y-86872567D01*
X52972146Y-86998117D01*
X53008334Y-87108007D01*
X53054614Y-87264086D01*
X53083259Y-87409707D01*
X53092738Y-87526901D01*
X53081526Y-87597699D01*
X53050667Y-87605834D01*
X53023026Y-87626659D01*
X53004825Y-87718971D01*
X53000579Y-87783252D01*
X52996554Y-87978282D01*
X53004721Y-88108455D01*
X53028710Y-88193146D01*
X53072152Y-88251731D01*
X53091557Y-88268786D01*
X53156026Y-88330633D01*
X53177667Y-88366296D01*
X53203300Y-88412462D01*
X53272273Y-88507964D01*
X53372695Y-88637967D01*
X53492678Y-88787633D01*
X53620332Y-88942127D01*
X53743767Y-89086611D01*
X53848921Y-89203917D01*
X53955879Y-89308593D01*
X54049470Y-89382274D01*
X54104210Y-89407620D01*
X54169449Y-89444496D01*
X54261900Y-89541355D01*
X54369769Y-89683032D01*
X54481259Y-89854365D01*
X54561096Y-89994967D01*
X54646289Y-90146479D01*
X54702583Y-90223504D01*
X54733854Y-90229618D01*
X54743979Y-90168398D01*
X54744000Y-90163708D01*
X54712766Y-90055753D01*
X54659334Y-89986323D01*
X54590341Y-89907761D01*
X54579951Y-89849795D01*
X54627584Y-89829334D01*
X54681745Y-89861526D01*
X54760356Y-89942349D01*
X54805038Y-89998667D01*
X54912287Y-90121317D01*
X54993532Y-90164601D01*
X55048074Y-90128198D01*
X55054630Y-90114084D01*
X55072004Y-90106099D01*
X55079325Y-90152954D01*
X55097571Y-90288506D01*
X55138326Y-90347637D01*
X55196670Y-90329553D01*
X55262671Y-90307411D01*
X55308184Y-90365740D01*
X55332260Y-90502630D01*
X55336019Y-90609909D01*
X55336667Y-90819984D01*
X55549408Y-90610442D01*
X55696823Y-90442500D01*
X55788766Y-90287983D01*
X55805209Y-90240989D01*
X55827079Y-90087324D01*
X55821627Y-89931766D01*
X55820166Y-89922956D01*
X55806749Y-89825126D01*
X55817355Y-89796676D01*
X55847999Y-89817750D01*
X55916958Y-89865510D01*
X55956037Y-89844738D01*
X55968404Y-89750472D01*
X55962843Y-89637834D01*
X55958522Y-89498844D01*
X55970746Y-89417967D01*
X55996233Y-89404218D01*
X56028297Y-89457917D01*
X56040576Y-89450629D01*
X56049757Y-89376140D01*
X56052991Y-89291082D01*
X56063415Y-89160823D01*
X56086430Y-89067745D01*
X56104020Y-89041858D01*
X56129970Y-88981911D01*
X56135191Y-88862705D01*
X56121939Y-88706467D01*
X56092473Y-88535427D01*
X56049051Y-88371811D01*
X56030654Y-88319574D01*
X55988283Y-88190939D01*
X55984895Y-88122469D01*
X56005313Y-88102618D01*
X56033611Y-88058984D01*
X56052199Y-87972583D01*
X56057978Y-87878051D01*
X56047848Y-87810022D01*
X56032724Y-87796334D01*
X55981444Y-87788258D01*
X55868362Y-87766885D01*
X55714498Y-87736494D01*
X55540872Y-87701367D01*
X55368505Y-87665782D01*
X55218417Y-87634021D01*
X55111627Y-87610364D01*
X55075799Y-87601478D01*
X55002112Y-87564041D01*
X54896032Y-87492292D01*
X54842965Y-87451679D01*
X54731928Y-87372378D01*
X54637610Y-87339861D01*
X54516360Y-87341551D01*
X54475930Y-87345938D01*
X54344777Y-87355151D01*
X54261458Y-87337251D01*
X54190915Y-87282376D01*
X54169251Y-87259660D01*
X54097464Y-87193743D01*
X54023065Y-87166437D01*
X53911884Y-87168393D01*
X53857432Y-87174321D01*
X53733116Y-87185056D01*
X53675619Y-87176489D01*
X53668644Y-87145432D01*
X53671223Y-87137912D01*
X53727882Y-87086854D01*
X53785446Y-87073116D01*
X54037713Y-87064775D01*
X54212870Y-87062785D01*
X54318248Y-87067263D01*
X54361173Y-87078325D01*
X54363008Y-87082313D01*
X54327727Y-87113029D01*
X54267750Y-87135925D01*
X54201428Y-87160335D01*
X54212150Y-87191524D01*
X54250964Y-87222816D01*
X54342490Y-87260832D01*
X54439902Y-87240905D01*
X54505934Y-87226108D01*
X54583860Y-87235983D01*
X54692895Y-87276090D01*
X54852256Y-87351991D01*
X54890605Y-87371320D01*
X55051337Y-87448540D01*
X55190425Y-87507711D01*
X55285934Y-87539803D01*
X55307700Y-87543036D01*
X55422311Y-87518779D01*
X55512678Y-87461011D01*
X55548334Y-87390656D01*
X55511419Y-87305814D01*
X55411760Y-87203515D01*
X55362844Y-87167364D01*
X55558118Y-87167364D01*
X55573357Y-87235417D01*
X55598131Y-87365741D01*
X55606477Y-87490458D01*
X55617760Y-87590978D01*
X55666975Y-87638515D01*
X55714447Y-87652228D01*
X55834085Y-87683783D01*
X55908167Y-87709061D01*
X55980451Y-87725141D01*
X55999485Y-87692245D01*
X55964192Y-87606301D01*
X55873497Y-87463241D01*
X55824949Y-87393987D01*
X55705730Y-87237280D01*
X55619518Y-87146013D01*
X55569314Y-87122077D01*
X55558118Y-87167364D01*
X55362844Y-87167364D01*
X55265980Y-87095779D01*
X55090704Y-86994625D01*
X54902555Y-86912074D01*
X54871000Y-86900930D01*
X54819957Y-86880235D01*
X54842790Y-86875810D01*
X54929218Y-86884347D01*
X55079013Y-86917532D01*
X55234100Y-86973909D01*
X55256134Y-86984310D01*
X55360430Y-87028895D01*
X55429815Y-87045584D01*
X55441333Y-87042556D01*
X55454812Y-86988110D01*
X55461578Y-86877168D01*
X55461839Y-86737620D01*
X55455800Y-86597353D01*
X55443665Y-86484257D01*
X55436985Y-86452250D01*
X55400379Y-86370764D01*
X55364169Y-86367650D01*
X55340273Y-86437400D01*
X55336667Y-86498606D01*
X55301091Y-86649418D01*
X55201295Y-86749817D01*
X55047679Y-86789395D01*
X55046055Y-86789444D01*
X54903072Y-86766649D01*
X54810987Y-86682659D01*
X54760767Y-86532663D01*
X54759086Y-86525808D01*
X54828667Y-86525808D01*
X54858618Y-86620091D01*
X54931678Y-86695141D01*
X55022655Y-86737170D01*
X55106359Y-86732390D01*
X55144359Y-86698592D01*
X55138604Y-86644477D01*
X55123635Y-86631323D01*
X55103419Y-86584605D01*
X55128561Y-86543209D01*
X55186786Y-86506104D01*
X55236450Y-86530995D01*
X55284690Y-86554876D01*
X55293129Y-86526394D01*
X55263865Y-86466758D01*
X55225596Y-86421311D01*
X55135359Y-86373815D01*
X55024513Y-86380932D01*
X54904943Y-86411177D01*
X54847227Y-86445084D01*
X54829483Y-86498838D01*
X54828667Y-86525808D01*
X54759086Y-86525808D01*
X54725147Y-86387415D01*
X54677724Y-86316870D01*
X54607268Y-86311069D01*
X54541717Y-86338375D01*
X54462076Y-86397246D01*
X54438170Y-86480924D01*
X54440535Y-86537597D01*
X54420271Y-86684519D01*
X54331326Y-86783054D01*
X54175561Y-86831633D01*
X54085271Y-86836778D01*
X53917183Y-86816347D01*
X53821234Y-86760212D01*
X53773302Y-86705542D01*
X53785260Y-86697310D01*
X53823250Y-86709495D01*
X53885449Y-86707985D01*
X53897334Y-86670148D01*
X53904598Y-86627721D01*
X53939992Y-86648274D01*
X53963857Y-86671476D01*
X54052364Y-86717009D01*
X54181509Y-86737759D01*
X54196691Y-86738000D01*
X54310357Y-86726661D01*
X54360007Y-86698903D01*
X54338232Y-86664112D01*
X54274074Y-86639954D01*
X54214282Y-86604005D01*
X54214137Y-86569794D01*
X54272688Y-86542388D01*
X54324229Y-86548631D01*
X54391070Y-86553229D01*
X54399335Y-86516774D01*
X54351989Y-86456360D01*
X54301573Y-86417965D01*
X54167275Y-86373773D01*
X54032429Y-86412602D01*
X53957240Y-86472475D01*
X53908384Y-86514032D01*
X53898432Y-86486372D01*
X53904072Y-86439687D01*
X53939004Y-86362293D01*
X54025036Y-86312150D01*
X54173911Y-86284788D01*
X54332579Y-86276553D01*
X54485588Y-86256876D01*
X54561900Y-86207982D01*
X54559617Y-86133152D01*
X54476841Y-86035668D01*
X54473562Y-86032829D01*
X54351487Y-85964268D01*
X54208150Y-85934016D01*
X54074571Y-85944324D01*
X53982000Y-85997167D01*
X53905566Y-86040220D01*
X53788220Y-86060406D01*
X53773617Y-86060667D01*
X53654843Y-86074368D01*
X53568739Y-86107919D01*
X53561842Y-86113584D01*
X53520700Y-86144175D01*
X53523398Y-86108444D01*
X53523964Y-86106568D01*
X53572596Y-86060961D01*
X53680648Y-86004602D01*
X53825249Y-85946653D01*
X53983529Y-85896274D01*
X54132615Y-85862629D01*
X54133149Y-85862542D01*
X54258989Y-85865334D01*
X54398664Y-85901117D01*
X54521081Y-85958317D01*
X54595145Y-86025354D01*
X54600572Y-86036583D01*
X54627404Y-86070272D01*
X54678331Y-86055658D01*
X54758727Y-85999457D01*
X54934976Y-85896522D01*
X55100624Y-85858136D01*
X55223512Y-85881100D01*
X55321459Y-85918442D01*
X55456699Y-85960595D01*
X55506000Y-85974133D01*
X55647509Y-86011789D01*
X55771939Y-86045594D01*
X55802235Y-86054026D01*
X55910760Y-86121034D01*
X55977264Y-86231225D01*
X55987000Y-86353630D01*
X55969039Y-86404244D01*
X55920984Y-86456775D01*
X55883759Y-86438428D01*
X55869153Y-86362987D01*
X55876214Y-86295726D01*
X55881380Y-86229870D01*
X55856490Y-86182645D01*
X55786233Y-86142729D01*
X55655300Y-86098802D01*
X55580377Y-86076961D01*
X55344495Y-86013488D01*
X55171177Y-85978474D01*
X55043700Y-85970680D01*
X54945342Y-85988868D01*
X54871131Y-86024443D01*
X54785207Y-86097864D01*
X54744507Y-86174295D01*
X54744000Y-86181753D01*
X54764976Y-86236557D01*
X54834288Y-86275202D01*
X54961515Y-86299789D01*
X55156235Y-86312422D01*
X55352542Y-86315315D01*
X55552987Y-86321397D01*
X55693724Y-86337361D01*
X55768823Y-86361076D01*
X55772357Y-86390412D01*
X55698396Y-86423239D01*
X55672587Y-86430344D01*
X55558505Y-86480671D01*
X55513729Y-86559981D01*
X55513639Y-86560586D01*
X55510870Y-86612966D01*
X55531183Y-86641442D01*
X55589182Y-86647242D01*
X55699467Y-86631595D01*
X55876642Y-86595730D01*
X55892165Y-86592443D01*
X56207228Y-86500234D01*
X56519506Y-86362345D01*
X56818389Y-86187903D01*
X57093265Y-85986034D01*
X57333526Y-85765865D01*
X57528561Y-85536522D01*
X57667760Y-85307131D01*
X57740512Y-85086819D01*
X57748737Y-84995513D01*
X57722486Y-84865841D01*
X57636575Y-84745805D01*
X57482737Y-84626834D01*
X57288549Y-84518197D01*
X57112090Y-84437865D01*
X56932570Y-84376968D01*
X56735684Y-84333559D01*
X56507131Y-84305695D01*
X56232605Y-84291429D01*
X55897804Y-84288818D01*
X55630043Y-84292673D01*
X55331362Y-84299524D01*
X55102268Y-84307263D01*
X54927684Y-84317513D01*
X54792533Y-84331894D01*
X54681739Y-84352026D01*
X54580225Y-84379531D01*
X54472915Y-84416029D01*
X54468834Y-84417502D01*
X54159594Y-84539068D01*
X53872205Y-84675108D01*
X53589342Y-84835971D01*
X53293681Y-85032007D01*
X52967901Y-85273564D01*
X52754334Y-85441797D01*
X52530114Y-85611341D01*
X52356117Y-85719109D01*
X52227093Y-85767287D01*
X52137791Y-85758061D01*
X52094753Y-85716476D01*
X52079656Y-85657539D01*
X52060485Y-85532584D01*
X52039713Y-85360008D01*
X52020025Y-85160602D01*
X51992543Y-84851372D01*
X52076701Y-84851372D01*
X52086498Y-85129035D01*
X52088621Y-85167035D01*
X52105848Y-85411047D01*
X52128226Y-85578781D01*
X52160713Y-85678624D01*
X52208269Y-85718963D01*
X52275853Y-85708188D01*
X52368425Y-85654685D01*
X52374497Y-85650561D01*
X52457457Y-85588290D01*
X52579486Y-85490098D01*
X52715964Y-85375850D01*
X52733167Y-85361127D01*
X53034014Y-85112885D01*
X53308084Y-84910550D01*
X53582868Y-84735042D01*
X53849195Y-84586528D01*
X54242960Y-84378541D01*
X54091955Y-84285214D01*
X53990976Y-84232626D01*
X53898937Y-84216880D01*
X53791205Y-84240265D01*
X53643146Y-84305071D01*
X53589123Y-84331952D01*
X53374063Y-84417658D01*
X53149209Y-84456177D01*
X52890509Y-84449889D01*
X52684077Y-84421419D01*
X52467713Y-84390799D01*
X52306958Y-84389126D01*
X52194645Y-84425373D01*
X52123609Y-84508514D01*
X52086683Y-84647522D01*
X52076701Y-84851372D01*
X51992543Y-84851372D01*
X51974875Y-84652586D01*
X51380354Y-84673475D01*
X51058041Y-84690395D01*
X50810966Y-84718596D01*
X50629983Y-84762505D01*
X50505941Y-84826544D01*
X50429692Y-84915141D01*
X50392086Y-85032718D01*
X50383667Y-85155518D01*
X50308402Y-85155518D01*
X50305896Y-85115364D01*
X50348761Y-84921357D01*
X50444700Y-84766466D01*
X50549853Y-84686461D01*
X50687013Y-84637929D01*
X50888198Y-84595933D01*
X51132844Y-84563390D01*
X51400388Y-84543214D01*
X51597288Y-84537974D01*
X51805452Y-84532067D01*
X51940407Y-84514784D01*
X52013146Y-84483575D01*
X52034667Y-84436487D01*
X52073130Y-84360902D01*
X52178361Y-84308827D01*
X52335126Y-84282711D01*
X52528187Y-84285000D01*
X52742308Y-84318142D01*
X52754334Y-84320894D01*
X53000825Y-84360447D01*
X53220066Y-84349897D01*
X53448262Y-84285619D01*
X53558667Y-84240334D01*
X53747491Y-84162752D01*
X53882901Y-84125285D01*
X53985977Y-84127803D01*
X53985977Y-84127803D01*
G37*
X53985977Y-84127803D02*
X54077796Y-84170179D01*
X54161859Y-84236669D01*
X54302330Y-84360004D01*
X54724248Y-84255129D01*
X54885639Y-84216648D01*
X55023579Y-84189563D01*
X55157612Y-84172462D01*
X55307282Y-84163932D01*
X55492130Y-84162560D01*
X55731702Y-84166934D01*
X55887000Y-84171084D01*
X56263507Y-84186497D01*
X56570887Y-84211112D01*
X56824424Y-84247597D01*
X57039405Y-84298620D01*
X57231116Y-84366849D01*
X57365194Y-84429074D01*
X57548179Y-84547757D01*
X57701693Y-84695913D01*
X57807298Y-84852937D01*
X57843972Y-84964149D01*
X57831860Y-85155227D01*
X57748228Y-85369822D01*
X57599790Y-85599076D01*
X57393258Y-85834134D01*
X57135346Y-86066136D01*
X56851193Y-86274090D01*
X56547784Y-86457673D01*
X56272483Y-86583572D01*
X56001729Y-86661178D01*
X55803275Y-86691688D01*
X55665127Y-86711742D01*
X55591091Y-86740117D01*
X55560620Y-86786265D01*
X55556897Y-86805030D01*
X55576774Y-86878736D01*
X55641301Y-86999295D01*
X55738573Y-87150553D01*
X55856686Y-87316355D01*
X55983736Y-87480545D01*
X56107819Y-87626967D01*
X56217031Y-87739468D01*
X56285812Y-87794260D01*
X56391754Y-87867106D01*
X56469892Y-87933548D01*
X56478405Y-87942980D01*
X56496416Y-87975302D01*
X56461435Y-87973956D01*
X56361739Y-87938230D01*
X56354696Y-87935470D01*
X56230190Y-87898352D01*
X56152196Y-87899418D01*
X56142760Y-87905752D01*
X56130739Y-87963174D01*
X56129244Y-88089881D01*
X56138019Y-88271179D01*
X56152156Y-88444542D01*
X56173071Y-88715402D01*
X56177700Y-88924626D01*
X56166008Y-89093672D01*
X56151019Y-89185375D01*
X56121412Y-89358055D01*
X56092661Y-89565995D01*
X56073784Y-89736502D01*
X56056488Y-89895981D01*
X56037894Y-89986993D01*
X56012015Y-90025613D01*
X55972865Y-90027910D01*
X55965860Y-90026216D01*
X55913719Y-90025603D01*
X55891193Y-90073685D01*
X55887000Y-90163706D01*
X55862712Y-90299479D01*
X55798025Y-90447123D01*
X55705206Y-90592594D01*
X55596522Y-90721846D01*
X55484239Y-90820834D01*
X55380625Y-90875513D01*
X55297945Y-90871838D01*
X55280222Y-90858445D01*
X55263670Y-90802740D01*
X55253516Y-90693126D01*
X55252000Y-90625611D01*
X55242068Y-90489377D01*
X55213695Y-90425010D01*
X55201400Y-90421000D01*
X55140543Y-90393848D01*
X55052561Y-90326436D01*
X55028751Y-90304584D01*
X54906702Y-90188167D01*
X54829149Y-90283417D01*
X54758496Y-90352567D01*
X54705899Y-90378667D01*
X54666183Y-90343312D01*
X54604491Y-90250240D01*
X54533605Y-90118937D01*
X54527811Y-90107141D01*
X54439704Y-89947249D01*
X54341282Y-89799651D01*
X54262794Y-89705929D01*
X54160197Y-89606305D01*
X54028106Y-89478953D01*
X53918500Y-89373831D01*
X53810309Y-89264450D01*
X53665302Y-89109595D01*
X53501192Y-88928562D01*
X53335689Y-88740647D01*
X53309677Y-88710551D01*
X52912521Y-88249683D01*
X52940328Y-87916256D01*
X52952322Y-87747187D01*
X52951993Y-87643737D01*
X52936921Y-87587439D01*
X52904685Y-87559825D01*
X52892984Y-87554988D01*
X52819887Y-87509378D01*
X52719736Y-87425251D01*
X52668662Y-87375990D01*
X52587743Y-87307560D01*
X52448190Y-87204012D01*
X52263423Y-87074692D01*
X52046859Y-86928945D01*
X51971861Y-86880159D01*
X52229075Y-86880159D01*
X52374469Y-86988996D01*
X52489984Y-87084588D01*
X52622793Y-87207254D01*
X52690015Y-87274473D01*
X52816808Y-87388799D01*
X52918332Y-87446631D01*
X52985219Y-87444756D01*
X53008149Y-87383584D01*
X52988769Y-87263699D01*
X52938708Y-87103421D01*
X52869408Y-86930055D01*
X52792310Y-86770906D01*
X52718857Y-86653281D01*
X52687875Y-86619260D01*
X52552890Y-86538807D01*
X52434354Y-86540535D01*
X52338026Y-86623069D01*
X52292128Y-86713829D01*
X52229075Y-86880159D01*
X51971861Y-86880159D01*
X51811918Y-86776117D01*
X51758495Y-86742091D01*
X51371530Y-86488137D01*
X51055921Y-86261440D01*
X50805061Y-86056232D01*
X50612343Y-85866751D01*
X50471162Y-85687230D01*
X50392314Y-85549885D01*
X50319336Y-85330777D01*
X50308402Y-85155518D01*
X50383667Y-85155518D01*
X50423615Y-85374282D01*
X50539527Y-85608121D01*
X50725506Y-85850495D01*
X50975656Y-86094866D01*
X51284079Y-86334695D01*
X51644878Y-86563443D01*
X51662421Y-86573469D01*
X52154580Y-86853437D01*
X52223699Y-86672451D01*
X52294160Y-86531250D01*
X52377148Y-86463829D01*
X52488251Y-86459358D01*
X52520351Y-86466328D01*
X52618573Y-86468068D01*
X52760844Y-86445137D01*
X52918052Y-86405376D01*
X53061082Y-86356623D01*
X53160821Y-86306718D01*
X53182128Y-86288124D01*
X53254135Y-86237408D01*
X53288684Y-86230000D01*
X53335050Y-86194485D01*
X53347000Y-86140150D01*
X53356269Y-86078995D01*
X53395781Y-86091277D01*
X53410500Y-86103000D01*
X53463717Y-86164111D01*
X53474000Y-86192850D01*
X53439636Y-86225832D01*
X53410500Y-86230000D01*
X53354338Y-86262203D01*
X53347000Y-86290217D01*
X53310675Y-86341595D01*
X53221067Y-86391314D01*
X53198834Y-86399334D01*
X53085357Y-86452534D01*
X53044318Y-86521279D01*
X53052895Y-86589834D01*
X53063103Y-86660072D01*
X53069441Y-86759167D01*
X53087633Y-86852899D01*
X53137221Y-86875773D01*
X53139363Y-86875451D01*
X53228126Y-86899692D01*
X53311939Y-86985632D01*
X53374408Y-87111080D01*
X53398041Y-87225565D01*
X53394935Y-87334102D01*
X53374152Y-87403399D01*
X53345963Y-87420720D01*
X53320639Y-87373327D01*
X53313281Y-87330667D01*
X53278308Y-87170673D01*
X53221476Y-87052317D01*
X53152850Y-86994684D01*
X53134727Y-86992000D01*
X53055401Y-86954380D01*
X53013443Y-86848315D01*
X53008334Y-86776871D01*
X52987964Y-86710017D01*
X52961411Y-86695667D01*
X52933292Y-86660842D01*
X52941051Y-86589834D01*
X52947325Y-86507809D01*
X52905805Y-86484000D01*
X52829716Y-86511963D01*
X52816456Y-86580342D01*
X52856020Y-86648751D01*
X52910042Y-86737161D01*
X52923667Y-86795308D01*
X52937183Y-86872567D01*
X52972146Y-86998117D01*
X53008334Y-87108007D01*
X53054614Y-87264086D01*
X53083259Y-87409707D01*
X53092738Y-87526901D01*
X53081526Y-87597699D01*
X53050667Y-87605834D01*
X53023026Y-87626659D01*
X53004825Y-87718971D01*
X53000579Y-87783252D01*
X52996554Y-87978282D01*
X53004721Y-88108455D01*
X53028710Y-88193146D01*
X53072152Y-88251731D01*
X53091557Y-88268786D01*
X53156026Y-88330633D01*
X53177667Y-88366296D01*
X53203300Y-88412462D01*
X53272273Y-88507964D01*
X53372695Y-88637967D01*
X53492678Y-88787633D01*
X53620332Y-88942127D01*
X53743767Y-89086611D01*
X53848921Y-89203917D01*
X53955879Y-89308593D01*
X54049470Y-89382274D01*
X54104210Y-89407620D01*
X54169449Y-89444496D01*
X54261900Y-89541355D01*
X54369769Y-89683032D01*
X54481259Y-89854365D01*
X54561096Y-89994967D01*
X54646289Y-90146479D01*
X54702583Y-90223504D01*
X54733854Y-90229618D01*
X54743979Y-90168398D01*
X54744000Y-90163708D01*
X54712766Y-90055753D01*
X54659334Y-89986323D01*
X54590341Y-89907761D01*
X54579951Y-89849795D01*
X54627584Y-89829334D01*
X54681745Y-89861526D01*
X54760356Y-89942349D01*
X54805038Y-89998667D01*
X54912287Y-90121317D01*
X54993532Y-90164601D01*
X55048074Y-90128198D01*
X55054630Y-90114084D01*
X55072004Y-90106099D01*
X55079325Y-90152954D01*
X55097571Y-90288506D01*
X55138326Y-90347637D01*
X55196670Y-90329553D01*
X55262671Y-90307411D01*
X55308184Y-90365740D01*
X55332260Y-90502630D01*
X55336019Y-90609909D01*
X55336667Y-90819984D01*
X55549408Y-90610442D01*
X55696823Y-90442500D01*
X55788766Y-90287983D01*
X55805209Y-90240989D01*
X55827079Y-90087324D01*
X55821627Y-89931766D01*
X55820166Y-89922956D01*
X55806749Y-89825126D01*
X55817355Y-89796676D01*
X55847999Y-89817750D01*
X55916958Y-89865510D01*
X55956037Y-89844738D01*
X55968404Y-89750472D01*
X55962843Y-89637834D01*
X55958522Y-89498844D01*
X55970746Y-89417967D01*
X55996233Y-89404218D01*
X56028297Y-89457917D01*
X56040576Y-89450629D01*
X56049757Y-89376140D01*
X56052991Y-89291082D01*
X56063415Y-89160823D01*
X56086430Y-89067745D01*
X56104020Y-89041858D01*
X56129970Y-88981911D01*
X56135191Y-88862705D01*
X56121939Y-88706467D01*
X56092473Y-88535427D01*
X56049051Y-88371811D01*
X56030654Y-88319574D01*
X55988283Y-88190939D01*
X55984895Y-88122469D01*
X56005313Y-88102618D01*
X56033611Y-88058984D01*
X56052199Y-87972583D01*
X56057978Y-87878051D01*
X56047848Y-87810022D01*
X56032724Y-87796334D01*
X55981444Y-87788258D01*
X55868362Y-87766885D01*
X55714498Y-87736494D01*
X55540872Y-87701367D01*
X55368505Y-87665782D01*
X55218417Y-87634021D01*
X55111627Y-87610364D01*
X55075799Y-87601478D01*
X55002112Y-87564041D01*
X54896032Y-87492292D01*
X54842965Y-87451679D01*
X54731928Y-87372378D01*
X54637610Y-87339861D01*
X54516360Y-87341551D01*
X54475930Y-87345938D01*
X54344777Y-87355151D01*
X54261458Y-87337251D01*
X54190915Y-87282376D01*
X54169251Y-87259660D01*
X54097464Y-87193743D01*
X54023065Y-87166437D01*
X53911884Y-87168393D01*
X53857432Y-87174321D01*
X53733116Y-87185056D01*
X53675619Y-87176489D01*
X53668644Y-87145432D01*
X53671223Y-87137912D01*
X53727882Y-87086854D01*
X53785446Y-87073116D01*
X54037713Y-87064775D01*
X54212870Y-87062785D01*
X54318248Y-87067263D01*
X54361173Y-87078325D01*
X54363008Y-87082313D01*
X54327727Y-87113029D01*
X54267750Y-87135925D01*
X54201428Y-87160335D01*
X54212150Y-87191524D01*
X54250964Y-87222816D01*
X54342490Y-87260832D01*
X54439902Y-87240905D01*
X54505934Y-87226108D01*
X54583860Y-87235983D01*
X54692895Y-87276090D01*
X54852256Y-87351991D01*
X54890605Y-87371320D01*
X55051337Y-87448540D01*
X55190425Y-87507711D01*
X55285934Y-87539803D01*
X55307700Y-87543036D01*
X55422311Y-87518779D01*
X55512678Y-87461011D01*
X55548334Y-87390656D01*
X55511419Y-87305814D01*
X55411760Y-87203515D01*
X55362844Y-87167364D01*
X55558118Y-87167364D01*
X55573357Y-87235417D01*
X55598131Y-87365741D01*
X55606477Y-87490458D01*
X55617760Y-87590978D01*
X55666975Y-87638515D01*
X55714447Y-87652228D01*
X55834085Y-87683783D01*
X55908167Y-87709061D01*
X55980451Y-87725141D01*
X55999485Y-87692245D01*
X55964192Y-87606301D01*
X55873497Y-87463241D01*
X55824949Y-87393987D01*
X55705730Y-87237280D01*
X55619518Y-87146013D01*
X55569314Y-87122077D01*
X55558118Y-87167364D01*
X55362844Y-87167364D01*
X55265980Y-87095779D01*
X55090704Y-86994625D01*
X54902555Y-86912074D01*
X54871000Y-86900930D01*
X54819957Y-86880235D01*
X54842790Y-86875810D01*
X54929218Y-86884347D01*
X55079013Y-86917532D01*
X55234100Y-86973909D01*
X55256134Y-86984310D01*
X55360430Y-87028895D01*
X55429815Y-87045584D01*
X55441333Y-87042556D01*
X55454812Y-86988110D01*
X55461578Y-86877168D01*
X55461839Y-86737620D01*
X55455800Y-86597353D01*
X55443665Y-86484257D01*
X55436985Y-86452250D01*
X55400379Y-86370764D01*
X55364169Y-86367650D01*
X55340273Y-86437400D01*
X55336667Y-86498606D01*
X55301091Y-86649418D01*
X55201295Y-86749817D01*
X55047679Y-86789395D01*
X55046055Y-86789444D01*
X54903072Y-86766649D01*
X54810987Y-86682659D01*
X54760767Y-86532663D01*
X54759086Y-86525808D01*
X54828667Y-86525808D01*
X54858618Y-86620091D01*
X54931678Y-86695141D01*
X55022655Y-86737170D01*
X55106359Y-86732390D01*
X55144359Y-86698592D01*
X55138604Y-86644477D01*
X55123635Y-86631323D01*
X55103419Y-86584605D01*
X55128561Y-86543209D01*
X55186786Y-86506104D01*
X55236450Y-86530995D01*
X55284690Y-86554876D01*
X55293129Y-86526394D01*
X55263865Y-86466758D01*
X55225596Y-86421311D01*
X55135359Y-86373815D01*
X55024513Y-86380932D01*
X54904943Y-86411177D01*
X54847227Y-86445084D01*
X54829483Y-86498838D01*
X54828667Y-86525808D01*
X54759086Y-86525808D01*
X54725147Y-86387415D01*
X54677724Y-86316870D01*
X54607268Y-86311069D01*
X54541717Y-86338375D01*
X54462076Y-86397246D01*
X54438170Y-86480924D01*
X54440535Y-86537597D01*
X54420271Y-86684519D01*
X54331326Y-86783054D01*
X54175561Y-86831633D01*
X54085271Y-86836778D01*
X53917183Y-86816347D01*
X53821234Y-86760212D01*
X53773302Y-86705542D01*
X53785260Y-86697310D01*
X53823250Y-86709495D01*
X53885449Y-86707985D01*
X53897334Y-86670148D01*
X53904598Y-86627721D01*
X53939992Y-86648274D01*
X53963857Y-86671476D01*
X54052364Y-86717009D01*
X54181509Y-86737759D01*
X54196691Y-86738000D01*
X54310357Y-86726661D01*
X54360007Y-86698903D01*
X54338232Y-86664112D01*
X54274074Y-86639954D01*
X54214282Y-86604005D01*
X54214137Y-86569794D01*
X54272688Y-86542388D01*
X54324229Y-86548631D01*
X54391070Y-86553229D01*
X54399335Y-86516774D01*
X54351989Y-86456360D01*
X54301573Y-86417965D01*
X54167275Y-86373773D01*
X54032429Y-86412602D01*
X53957240Y-86472475D01*
X53908384Y-86514032D01*
X53898432Y-86486372D01*
X53904072Y-86439687D01*
X53939004Y-86362293D01*
X54025036Y-86312150D01*
X54173911Y-86284788D01*
X54332579Y-86276553D01*
X54485588Y-86256876D01*
X54561900Y-86207982D01*
X54559617Y-86133152D01*
X54476841Y-86035668D01*
X54473562Y-86032829D01*
X54351487Y-85964268D01*
X54208150Y-85934016D01*
X54074571Y-85944324D01*
X53982000Y-85997167D01*
X53905566Y-86040220D01*
X53788220Y-86060406D01*
X53773617Y-86060667D01*
X53654843Y-86074368D01*
X53568739Y-86107919D01*
X53561842Y-86113584D01*
X53520700Y-86144175D01*
X53523398Y-86108444D01*
X53523964Y-86106568D01*
X53572596Y-86060961D01*
X53680648Y-86004602D01*
X53825249Y-85946653D01*
X53983529Y-85896274D01*
X54132615Y-85862629D01*
X54133149Y-85862542D01*
X54258989Y-85865334D01*
X54398664Y-85901117D01*
X54521081Y-85958317D01*
X54595145Y-86025354D01*
X54600572Y-86036583D01*
X54627404Y-86070272D01*
X54678331Y-86055658D01*
X54758727Y-85999457D01*
X54934976Y-85896522D01*
X55100624Y-85858136D01*
X55223512Y-85881100D01*
X55321459Y-85918442D01*
X55456699Y-85960595D01*
X55506000Y-85974133D01*
X55647509Y-86011789D01*
X55771939Y-86045594D01*
X55802235Y-86054026D01*
X55910760Y-86121034D01*
X55977264Y-86231225D01*
X55987000Y-86353630D01*
X55969039Y-86404244D01*
X55920984Y-86456775D01*
X55883759Y-86438428D01*
X55869153Y-86362987D01*
X55876214Y-86295726D01*
X55881380Y-86229870D01*
X55856490Y-86182645D01*
X55786233Y-86142729D01*
X55655300Y-86098802D01*
X55580377Y-86076961D01*
X55344495Y-86013488D01*
X55171177Y-85978474D01*
X55043700Y-85970680D01*
X54945342Y-85988868D01*
X54871131Y-86024443D01*
X54785207Y-86097864D01*
X54744507Y-86174295D01*
X54744000Y-86181753D01*
X54764976Y-86236557D01*
X54834288Y-86275202D01*
X54961515Y-86299789D01*
X55156235Y-86312422D01*
X55352542Y-86315315D01*
X55552987Y-86321397D01*
X55693724Y-86337361D01*
X55768823Y-86361076D01*
X55772357Y-86390412D01*
X55698396Y-86423239D01*
X55672587Y-86430344D01*
X55558505Y-86480671D01*
X55513729Y-86559981D01*
X55513639Y-86560586D01*
X55510870Y-86612966D01*
X55531183Y-86641442D01*
X55589182Y-86647242D01*
X55699467Y-86631595D01*
X55876642Y-86595730D01*
X55892165Y-86592443D01*
X56207228Y-86500234D01*
X56519506Y-86362345D01*
X56818389Y-86187903D01*
X57093265Y-85986034D01*
X57333526Y-85765865D01*
X57528561Y-85536522D01*
X57667760Y-85307131D01*
X57740512Y-85086819D01*
X57748737Y-84995513D01*
X57722486Y-84865841D01*
X57636575Y-84745805D01*
X57482737Y-84626834D01*
X57288549Y-84518197D01*
X57112090Y-84437865D01*
X56932570Y-84376968D01*
X56735684Y-84333559D01*
X56507131Y-84305695D01*
X56232605Y-84291429D01*
X55897804Y-84288818D01*
X55630043Y-84292673D01*
X55331362Y-84299524D01*
X55102268Y-84307263D01*
X54927684Y-84317513D01*
X54792533Y-84331894D01*
X54681739Y-84352026D01*
X54580225Y-84379531D01*
X54472915Y-84416029D01*
X54468834Y-84417502D01*
X54159594Y-84539068D01*
X53872205Y-84675108D01*
X53589342Y-84835971D01*
X53293681Y-85032007D01*
X52967901Y-85273564D01*
X52754334Y-85441797D01*
X52530114Y-85611341D01*
X52356117Y-85719109D01*
X52227093Y-85767287D01*
X52137791Y-85758061D01*
X52094753Y-85716476D01*
X52079656Y-85657539D01*
X52060485Y-85532584D01*
X52039713Y-85360008D01*
X52020025Y-85160602D01*
X51992543Y-84851372D01*
X52076701Y-84851372D01*
X52086498Y-85129035D01*
X52088621Y-85167035D01*
X52105848Y-85411047D01*
X52128226Y-85578781D01*
X52160713Y-85678624D01*
X52208269Y-85718963D01*
X52275853Y-85708188D01*
X52368425Y-85654685D01*
X52374497Y-85650561D01*
X52457457Y-85588290D01*
X52579486Y-85490098D01*
X52715964Y-85375850D01*
X52733167Y-85361127D01*
X53034014Y-85112885D01*
X53308084Y-84910550D01*
X53582868Y-84735042D01*
X53849195Y-84586528D01*
X54242960Y-84378541D01*
X54091955Y-84285214D01*
X53990976Y-84232626D01*
X53898937Y-84216880D01*
X53791205Y-84240265D01*
X53643146Y-84305071D01*
X53589123Y-84331952D01*
X53374063Y-84417658D01*
X53149209Y-84456177D01*
X52890509Y-84449889D01*
X52684077Y-84421419D01*
X52467713Y-84390799D01*
X52306958Y-84389126D01*
X52194645Y-84425373D01*
X52123609Y-84508514D01*
X52086683Y-84647522D01*
X52076701Y-84851372D01*
X51992543Y-84851372D01*
X51974875Y-84652586D01*
X51380354Y-84673475D01*
X51058041Y-84690395D01*
X50810966Y-84718596D01*
X50629983Y-84762505D01*
X50505941Y-84826544D01*
X50429692Y-84915141D01*
X50392086Y-85032718D01*
X50383667Y-85155518D01*
X50308402Y-85155518D01*
X50305896Y-85115364D01*
X50348761Y-84921357D01*
X50444700Y-84766466D01*
X50549853Y-84686461D01*
X50687013Y-84637929D01*
X50888198Y-84595933D01*
X51132844Y-84563390D01*
X51400388Y-84543214D01*
X51597288Y-84537974D01*
X51805452Y-84532067D01*
X51940407Y-84514784D01*
X52013146Y-84483575D01*
X52034667Y-84436487D01*
X52073130Y-84360902D01*
X52178361Y-84308827D01*
X52335126Y-84282711D01*
X52528187Y-84285000D01*
X52742308Y-84318142D01*
X52754334Y-84320894D01*
X53000825Y-84360447D01*
X53220066Y-84349897D01*
X53448262Y-84285619D01*
X53558667Y-84240334D01*
X53747491Y-84162752D01*
X53882901Y-84125285D01*
X53985977Y-84127803D01*
D12*
G36*
X65096872Y-98486778D02*
G01*
X65246172Y-98516475D01*
X65410144Y-98584395D01*
X65557714Y-98682998D01*
X65683213Y-98808497D01*
X65781816Y-98956067D01*
X65849736Y-99120039D01*
X65884360Y-99294110D01*
X65884360Y-99471592D01*
X65849736Y-99645663D01*
X65781816Y-99809635D01*
X65683213Y-99957205D01*
X65557714Y-100082704D01*
X65410144Y-100181307D01*
X65246172Y-100249227D01*
X65096872Y-100278924D01*
X65072102Y-100283851D01*
X64894618Y-100283851D01*
X64869848Y-100278924D01*
X64720548Y-100249227D01*
X64556576Y-100181307D01*
X64409006Y-100082704D01*
X64283507Y-99957205D01*
X64184904Y-99809635D01*
X64116984Y-99645663D01*
X64082360Y-99471592D01*
X64082360Y-99294110D01*
X64116984Y-99120039D01*
X64184904Y-98956067D01*
X64283507Y-98808497D01*
X64409006Y-98682998D01*
X64556576Y-98584395D01*
X64720548Y-98516475D01*
X64869848Y-98486778D01*
X64894618Y-98481851D01*
X65072102Y-98481851D01*
X65096872Y-98486778D01*
X65096872Y-98486778D01*
G37*
G36*
X66884071Y-96691749D02*
G01*
X66956038Y-96698837D01*
X67125877Y-96750357D01*
X67282402Y-96834022D01*
X67318140Y-96863352D01*
X67419597Y-96946614D01*
X67502859Y-97048071D01*
X67532189Y-97083809D01*
X67615854Y-97240334D01*
X67667374Y-97410173D01*
X67684770Y-97586800D01*
X67667374Y-97763427D01*
X67615854Y-97933266D01*
X67532189Y-98089791D01*
X67502859Y-98125529D01*
X67419597Y-98226986D01*
X67318140Y-98310248D01*
X67282402Y-98339578D01*
X67125877Y-98423243D01*
X66956038Y-98474763D01*
X66889853Y-98481282D01*
X66823671Y-98487800D01*
X66735151Y-98487800D01*
X66668969Y-98481282D01*
X66602784Y-98474763D01*
X66432945Y-98423243D01*
X66276420Y-98339578D01*
X66240682Y-98310248D01*
X66139225Y-98226986D01*
X66055963Y-98125529D01*
X66026633Y-98089791D01*
X65942968Y-97933266D01*
X65891448Y-97763427D01*
X65874052Y-97586800D01*
X65891448Y-97410173D01*
X65942968Y-97240334D01*
X66026633Y-97083809D01*
X66055963Y-97048071D01*
X66139225Y-96946614D01*
X66240682Y-96863352D01*
X66276420Y-96834022D01*
X66432945Y-96750357D01*
X66602784Y-96698837D01*
X66674751Y-96691749D01*
X66735151Y-96685800D01*
X66823671Y-96685800D01*
X66884071Y-96691749D01*
X66884071Y-96691749D01*
G37*
G36*
X63291969Y-96691749D02*
G01*
X63363936Y-96698837D01*
X63533775Y-96750357D01*
X63690300Y-96834022D01*
X63726038Y-96863352D01*
X63827495Y-96946614D01*
X63910757Y-97048071D01*
X63940087Y-97083809D01*
X64023752Y-97240334D01*
X64075272Y-97410173D01*
X64092668Y-97586800D01*
X64075272Y-97763427D01*
X64023752Y-97933266D01*
X63940087Y-98089791D01*
X63910757Y-98125529D01*
X63827495Y-98226986D01*
X63726038Y-98310248D01*
X63690300Y-98339578D01*
X63533775Y-98423243D01*
X63363936Y-98474763D01*
X63297751Y-98481282D01*
X63231569Y-98487800D01*
X63143049Y-98487800D01*
X63076867Y-98481282D01*
X63010682Y-98474763D01*
X62840843Y-98423243D01*
X62684318Y-98339578D01*
X62648580Y-98310248D01*
X62547123Y-98226986D01*
X62463861Y-98125529D01*
X62434531Y-98089791D01*
X62350866Y-97933266D01*
X62299346Y-97763427D01*
X62281950Y-97586800D01*
X62299346Y-97410173D01*
X62350866Y-97240334D01*
X62434531Y-97083809D01*
X62463861Y-97048071D01*
X62547123Y-96946614D01*
X62648580Y-96863352D01*
X62684318Y-96834022D01*
X62840843Y-96750357D01*
X63010682Y-96698837D01*
X63082649Y-96691749D01*
X63143049Y-96685800D01*
X63231569Y-96685800D01*
X63291969Y-96691749D01*
X63291969Y-96691749D01*
G37*
G36*
X65093802Y-94896267D02*
G01*
X65159987Y-94902786D01*
X65329826Y-94954306D01*
X65486351Y-95037971D01*
X65522089Y-95067301D01*
X65623546Y-95150563D01*
X65706808Y-95252020D01*
X65736138Y-95287758D01*
X65819803Y-95444283D01*
X65871323Y-95614122D01*
X65888719Y-95790749D01*
X65871323Y-95967376D01*
X65819803Y-96137215D01*
X65736138Y-96293740D01*
X65706808Y-96329478D01*
X65623546Y-96430935D01*
X65522089Y-96514197D01*
X65486351Y-96543527D01*
X65329826Y-96627192D01*
X65159987Y-96678712D01*
X65093802Y-96685231D01*
X65027620Y-96691749D01*
X64939100Y-96691749D01*
X64872918Y-96685231D01*
X64806733Y-96678712D01*
X64636894Y-96627192D01*
X64480369Y-96543527D01*
X64444631Y-96514197D01*
X64343174Y-96430935D01*
X64259912Y-96329478D01*
X64230582Y-96293740D01*
X64146917Y-96137215D01*
X64095397Y-95967376D01*
X64078001Y-95790749D01*
X64095397Y-95614122D01*
X64146917Y-95444283D01*
X64230582Y-95287758D01*
X64259912Y-95252020D01*
X64343174Y-95150563D01*
X64444631Y-95067301D01*
X64480369Y-95037971D01*
X64636894Y-94954306D01*
X64806733Y-94902786D01*
X64872918Y-94896267D01*
X64939100Y-94889749D01*
X65027620Y-94889749D01*
X65093802Y-94896267D01*
X65093802Y-94896267D01*
G37*
G36*
X76380324Y-88455867D02*
G01*
X76416864Y-88466952D01*
X76450541Y-88484953D01*
X76480061Y-88509179D01*
X76504287Y-88538699D01*
X76522288Y-88572376D01*
X76533373Y-88608916D01*
X76537720Y-88653058D01*
X76537720Y-90101982D01*
X76533373Y-90146124D01*
X76522288Y-90182664D01*
X76504287Y-90216341D01*
X76480061Y-90245861D01*
X76450541Y-90270087D01*
X76416864Y-90288088D01*
X76380324Y-90299173D01*
X76336182Y-90303520D01*
X75387258Y-90303520D01*
X75343116Y-90299173D01*
X75306576Y-90288088D01*
X75272899Y-90270087D01*
X75243379Y-90245861D01*
X75219153Y-90216341D01*
X75201152Y-90182664D01*
X75190067Y-90146124D01*
X75185720Y-90101982D01*
X75185720Y-88653058D01*
X75190067Y-88608916D01*
X75201152Y-88572376D01*
X75219153Y-88538699D01*
X75243379Y-88509179D01*
X75272899Y-88484953D01*
X75306576Y-88466952D01*
X75343116Y-88455867D01*
X75387258Y-88451520D01*
X76336182Y-88451520D01*
X76380324Y-88455867D01*
X76380324Y-88455867D01*
G37*
G36*
X79180324Y-88455867D02*
G01*
X79216864Y-88466952D01*
X79250541Y-88484953D01*
X79280061Y-88509179D01*
X79304287Y-88538699D01*
X79322288Y-88572376D01*
X79333373Y-88608916D01*
X79337720Y-88653058D01*
X79337720Y-90101982D01*
X79333373Y-90146124D01*
X79322288Y-90182664D01*
X79304287Y-90216341D01*
X79280061Y-90245861D01*
X79250541Y-90270087D01*
X79216864Y-90288088D01*
X79180324Y-90299173D01*
X79136182Y-90303520D01*
X78187258Y-90303520D01*
X78143116Y-90299173D01*
X78106576Y-90288088D01*
X78072899Y-90270087D01*
X78043379Y-90245861D01*
X78019153Y-90216341D01*
X78001152Y-90182664D01*
X77990067Y-90146124D01*
X77985720Y-90101982D01*
X77985720Y-88653058D01*
X77990067Y-88608916D01*
X78001152Y-88572376D01*
X78019153Y-88538699D01*
X78043379Y-88509179D01*
X78072899Y-88484953D01*
X78106576Y-88466952D01*
X78143116Y-88455867D01*
X78187258Y-88451520D01*
X79136182Y-88451520D01*
X79180324Y-88455867D01*
X79180324Y-88455867D01*
G37*
G36*
X78030356Y-81711634D02*
G01*
X78055643Y-81719305D01*
X78078946Y-81731761D01*
X78099374Y-81748526D01*
X78116139Y-81768954D01*
X78128595Y-81792257D01*
X78136266Y-81817544D01*
X78139460Y-81849978D01*
X78139460Y-82618902D01*
X78136266Y-82651336D01*
X78128595Y-82676623D01*
X78116139Y-82699926D01*
X78099374Y-82720354D01*
X78078946Y-82737119D01*
X78055643Y-82749575D01*
X78030356Y-82757246D01*
X77997922Y-82760440D01*
X77712960Y-82760440D01*
X77688574Y-82762842D01*
X77665125Y-82769955D01*
X77643514Y-82781506D01*
X77624572Y-82797051D01*
X77609027Y-82815993D01*
X77597476Y-82837604D01*
X77590363Y-82861053D01*
X77587961Y-82885439D01*
X77590363Y-82909825D01*
X77597476Y-82933274D01*
X77609027Y-82954885D01*
X77624572Y-82973827D01*
X77643512Y-82989370D01*
X77787177Y-83085364D01*
X77912536Y-83210723D01*
X78011030Y-83358130D01*
X78011031Y-83358132D01*
X78078874Y-83521920D01*
X78088168Y-83568642D01*
X78113460Y-83695798D01*
X78113460Y-83873082D01*
X78078874Y-84046960D01*
X78011030Y-84210750D01*
X77912536Y-84358157D01*
X77787177Y-84483516D01*
X77643512Y-84579510D01*
X77624572Y-84595053D01*
X77609027Y-84613995D01*
X77597476Y-84635606D01*
X77590363Y-84659055D01*
X77587961Y-84683441D01*
X77590363Y-84707827D01*
X77597476Y-84731276D01*
X77609027Y-84752887D01*
X77624572Y-84771829D01*
X77643514Y-84787374D01*
X77665125Y-84798925D01*
X77688574Y-84806038D01*
X77712960Y-84808440D01*
X77997922Y-84808440D01*
X78030356Y-84811634D01*
X78055643Y-84819305D01*
X78078946Y-84831761D01*
X78099374Y-84848526D01*
X78116139Y-84868954D01*
X78128595Y-84892257D01*
X78136266Y-84917544D01*
X78139460Y-84949978D01*
X78139460Y-85718902D01*
X78136266Y-85751336D01*
X78128595Y-85776623D01*
X78116139Y-85799926D01*
X78099374Y-85820354D01*
X78078946Y-85837119D01*
X78055643Y-85849575D01*
X78030356Y-85857246D01*
X77997922Y-85860440D01*
X76428998Y-85860440D01*
X76396564Y-85857246D01*
X76371277Y-85849575D01*
X76347974Y-85837119D01*
X76327546Y-85820354D01*
X76310781Y-85799926D01*
X76298325Y-85776623D01*
X76290654Y-85751336D01*
X76287460Y-85718902D01*
X76287460Y-84949978D01*
X76290654Y-84917544D01*
X76298325Y-84892257D01*
X76310781Y-84868954D01*
X76327546Y-84848526D01*
X76347974Y-84831761D01*
X76371277Y-84819305D01*
X76396564Y-84811634D01*
X76428998Y-84808440D01*
X76713960Y-84808440D01*
X76738346Y-84806038D01*
X76761795Y-84798925D01*
X76783406Y-84787374D01*
X76802348Y-84771829D01*
X76817893Y-84752887D01*
X76829444Y-84731276D01*
X76836557Y-84707827D01*
X76838959Y-84683441D01*
X76836557Y-84659055D01*
X76829444Y-84635606D01*
X76817893Y-84613995D01*
X76802348Y-84595053D01*
X76783408Y-84579510D01*
X76639743Y-84483516D01*
X76514384Y-84358157D01*
X76415890Y-84210750D01*
X76348046Y-84046960D01*
X76313460Y-83873082D01*
X76313460Y-83695798D01*
X76338753Y-83568642D01*
X76348046Y-83521920D01*
X76415889Y-83358132D01*
X76415890Y-83358130D01*
X76514384Y-83210723D01*
X76639743Y-83085364D01*
X76783408Y-82989370D01*
X76802348Y-82973827D01*
X76817893Y-82954885D01*
X76829444Y-82933274D01*
X76836557Y-82909825D01*
X76838959Y-82885439D01*
X76836557Y-82861053D01*
X76829444Y-82837604D01*
X76817893Y-82815993D01*
X76802348Y-82797051D01*
X76783406Y-82781506D01*
X76761795Y-82769955D01*
X76738346Y-82762842D01*
X76713960Y-82760440D01*
X76428998Y-82760440D01*
X76396564Y-82757246D01*
X76371277Y-82749575D01*
X76347974Y-82737119D01*
X76327546Y-82720354D01*
X76310781Y-82699926D01*
X76298325Y-82676623D01*
X76290654Y-82651336D01*
X76287460Y-82618902D01*
X76287460Y-81849978D01*
X76290654Y-81817544D01*
X76298325Y-81792257D01*
X76310781Y-81768954D01*
X76327546Y-81748526D01*
X76347974Y-81731761D01*
X76371277Y-81719305D01*
X76396564Y-81711634D01*
X76428998Y-81708440D01*
X77997922Y-81708440D01*
X78030356Y-81711634D01*
X78030356Y-81711634D01*
G37*
G36*
X97476896Y-81407194D02*
G01*
X97502183Y-81414865D01*
X97525486Y-81427321D01*
X97545914Y-81444086D01*
X97562679Y-81464514D01*
X97575135Y-81487817D01*
X97582806Y-81513104D01*
X97586000Y-81545538D01*
X97586000Y-82314462D01*
X97582806Y-82346896D01*
X97575135Y-82372183D01*
X97562679Y-82395486D01*
X97545914Y-82415914D01*
X97525486Y-82432679D01*
X97502183Y-82445135D01*
X97476896Y-82452806D01*
X97444462Y-82456000D01*
X97159500Y-82456000D01*
X97135114Y-82458402D01*
X97111665Y-82465515D01*
X97090054Y-82477066D01*
X97071112Y-82492611D01*
X97055567Y-82511553D01*
X97044016Y-82533164D01*
X97036903Y-82556613D01*
X97034501Y-82580999D01*
X97036903Y-82605385D01*
X97044016Y-82628834D01*
X97055567Y-82650445D01*
X97071112Y-82669387D01*
X97090052Y-82684930D01*
X97233717Y-82780924D01*
X97359076Y-82906283D01*
X97404207Y-82973827D01*
X97457571Y-83053692D01*
X97525414Y-83217480D01*
X97560000Y-83391356D01*
X97560000Y-83568644D01*
X97525414Y-83742520D01*
X97471334Y-83873082D01*
X97457570Y-83906310D01*
X97359076Y-84053717D01*
X97233717Y-84179076D01*
X97090052Y-84275070D01*
X97071112Y-84290613D01*
X97055567Y-84309555D01*
X97044016Y-84331166D01*
X97036903Y-84354615D01*
X97034501Y-84379001D01*
X97036903Y-84403387D01*
X97044016Y-84426836D01*
X97055567Y-84448447D01*
X97071112Y-84467389D01*
X97090054Y-84482934D01*
X97111665Y-84494485D01*
X97135114Y-84501598D01*
X97159500Y-84504000D01*
X97444462Y-84504000D01*
X97476896Y-84507194D01*
X97502183Y-84514865D01*
X97525486Y-84527321D01*
X97545914Y-84544086D01*
X97562679Y-84564514D01*
X97575135Y-84587817D01*
X97582806Y-84613104D01*
X97586000Y-84645538D01*
X97586000Y-85414462D01*
X97582806Y-85446896D01*
X97575135Y-85472183D01*
X97562679Y-85495486D01*
X97545914Y-85515914D01*
X97525486Y-85532679D01*
X97502183Y-85545135D01*
X97476896Y-85552806D01*
X97444462Y-85556000D01*
X95875538Y-85556000D01*
X95843104Y-85552806D01*
X95817817Y-85545135D01*
X95794514Y-85532679D01*
X95774086Y-85515914D01*
X95757321Y-85495486D01*
X95744865Y-85472183D01*
X95737194Y-85446896D01*
X95734000Y-85414462D01*
X95734000Y-84645538D01*
X95737194Y-84613104D01*
X95744865Y-84587817D01*
X95757321Y-84564514D01*
X95774086Y-84544086D01*
X95794514Y-84527321D01*
X95817817Y-84514865D01*
X95843104Y-84507194D01*
X95875538Y-84504000D01*
X96160500Y-84504000D01*
X96184886Y-84501598D01*
X96208335Y-84494485D01*
X96229946Y-84482934D01*
X96248888Y-84467389D01*
X96264433Y-84448447D01*
X96275984Y-84426836D01*
X96283097Y-84403387D01*
X96285499Y-84379001D01*
X96283097Y-84354615D01*
X96275984Y-84331166D01*
X96264433Y-84309555D01*
X96248888Y-84290613D01*
X96229948Y-84275070D01*
X96086283Y-84179076D01*
X95960924Y-84053717D01*
X95862430Y-83906310D01*
X95848667Y-83873082D01*
X95794586Y-83742520D01*
X95760000Y-83568644D01*
X95760000Y-83391356D01*
X95794586Y-83217480D01*
X95862429Y-83053692D01*
X95915793Y-82973827D01*
X95960924Y-82906283D01*
X96086283Y-82780924D01*
X96229948Y-82684930D01*
X96248888Y-82669387D01*
X96264433Y-82650445D01*
X96275984Y-82628834D01*
X96283097Y-82605385D01*
X96285499Y-82580999D01*
X96283097Y-82556613D01*
X96275984Y-82533164D01*
X96264433Y-82511553D01*
X96248888Y-82492611D01*
X96229946Y-82477066D01*
X96208335Y-82465515D01*
X96184886Y-82458402D01*
X96160500Y-82456000D01*
X95875538Y-82456000D01*
X95843104Y-82452806D01*
X95817817Y-82445135D01*
X95794514Y-82432679D01*
X95774086Y-82415914D01*
X95757321Y-82395486D01*
X95744865Y-82372183D01*
X95737194Y-82346896D01*
X95734000Y-82314462D01*
X95734000Y-81545538D01*
X95737194Y-81513104D01*
X95744865Y-81487817D01*
X95757321Y-81464514D01*
X95774086Y-81444086D01*
X95794514Y-81427321D01*
X95817817Y-81414865D01*
X95843104Y-81407194D01*
X95875538Y-81404000D01*
X97444462Y-81404000D01*
X97476896Y-81407194D01*
X97476896Y-81407194D01*
G37*
M02*
