G04 #@! TF.GenerationSoftware,KiCad,Pcbnew,(5.1.2)-1*
G04 #@! TF.CreationDate,2019-05-13T20:23:08-05:00*
G04 #@! TF.ProjectId,van-sao,76616e2d-7361-46f2-9e6b-696361645f70,rev?*
G04 #@! TF.SameCoordinates,Original*
G04 #@! TF.FileFunction,Profile,NP*
%FSLAX46Y46*%
G04 Gerber Fmt 4.6, Leading zero omitted, Abs format (unit mm)*
G04 Created by KiCad (PCBNEW (5.1.2)-1) date 2019-05-13 20:23:08*
%MOMM*%
%LPD*%
G04 APERTURE LIST*
%ADD10C,0.100000*%
G04 APERTURE END LIST*
D10*
X45369200Y-71854440D02*
X56709200Y-66054440D01*
X56709200Y-66054440D02*
X58159200Y-65344440D01*
X58159200Y-65344440D02*
X62139200Y-63454440D01*
X62139200Y-63454440D02*
X62839200Y-63134440D01*
X62839200Y-63134440D02*
X63159200Y-62984440D01*
X63159200Y-62984440D02*
X63349200Y-62904440D01*
X63349200Y-62904440D02*
X63719200Y-62734440D01*
X63719200Y-62734440D02*
X63819200Y-62694440D01*
X63819200Y-62694440D02*
X63969200Y-62624440D01*
X63969200Y-62624440D02*
X64129200Y-62554440D01*
X64129200Y-62554440D02*
X64499200Y-62394440D01*
X64499200Y-62394440D02*
X64709200Y-62304440D01*
X64709200Y-62304440D02*
X64849200Y-62244440D01*
X64849200Y-62244440D02*
X64939200Y-62204440D01*
X64939200Y-62204440D02*
X65009200Y-62174440D01*
X65009200Y-62174440D02*
X65128140Y-62123320D01*
X65128140Y-62123320D02*
X65222120Y-62082680D01*
X65222120Y-62082680D02*
X65278000Y-62057280D01*
X65278000Y-62057280D02*
X65415160Y-61998860D01*
X65415160Y-61998860D02*
X65572640Y-61932820D01*
X65572640Y-61932820D02*
X65765680Y-61851540D01*
X65765680Y-61851540D02*
X66040000Y-61737240D01*
X66040000Y-61737240D02*
X66390520Y-61589920D01*
X66390520Y-61589920D02*
X66608960Y-61498480D01*
X66608960Y-61498480D02*
X67048380Y-61318140D01*
X67048380Y-61318140D02*
X67142360Y-61280040D01*
X67142360Y-61280040D02*
X67470020Y-61145420D01*
X67470020Y-61145420D02*
X67703700Y-61048900D01*
X67703700Y-61048900D02*
X67795140Y-61010800D01*
X67795140Y-61010800D02*
X68112640Y-60883800D01*
X68112640Y-60883800D02*
X68287900Y-60810140D01*
X68287900Y-60810140D02*
X68478400Y-60731400D01*
X68478400Y-60731400D02*
X68712080Y-60634880D01*
X68712080Y-60634880D02*
X68968620Y-60530740D01*
X68968620Y-60530740D02*
X69090540Y-60479940D01*
X69090540Y-60479940D02*
X69796660Y-60464700D01*
X69796660Y-60464700D02*
X70551040Y-60446920D01*
X70551040Y-60446920D02*
X71462900Y-60429140D01*
X71462900Y-60429140D02*
X72699880Y-60401200D01*
X72699880Y-60401200D02*
X73289160Y-60408820D01*
X73289160Y-60408820D02*
X75521820Y-60429140D01*
X75521820Y-60429140D02*
X75918060Y-60431680D01*
X75918060Y-60431680D02*
X78775560Y-60645040D01*
X78775560Y-60645040D02*
X81305400Y-61053980D01*
X81305400Y-61053980D02*
X84076540Y-61729620D01*
X84076540Y-61729620D02*
X86555580Y-62621160D01*
X86555580Y-62621160D02*
X88234520Y-63428880D01*
X88234520Y-63428880D02*
X89194640Y-63957200D01*
X89194640Y-63957200D02*
X89794080Y-64320420D01*
X89794080Y-64320420D02*
X90200480Y-64665860D01*
X90200480Y-64665860D02*
X90736420Y-65247520D01*
X90736420Y-65247520D02*
X91419680Y-66311780D01*
X91419680Y-66311780D02*
X91948000Y-67343020D01*
X91948000Y-67343020D02*
X92547440Y-68435220D01*
X92547440Y-68435220D02*
X93611700Y-70556120D01*
X93611700Y-70556120D02*
X94485460Y-72227440D01*
X94485460Y-72227440D02*
X94777560Y-72737980D01*
X94777560Y-72737980D02*
X95056960Y-73179940D01*
X95056960Y-73179940D02*
X95359220Y-73510140D01*
X95359220Y-73510140D02*
X95763080Y-73787000D01*
X95763080Y-73787000D02*
X96050100Y-74020680D01*
X96050100Y-74020680D02*
X96306640Y-74549000D01*
X96306640Y-74549000D02*
X96700340Y-75618340D01*
X96700340Y-75618340D02*
X97116900Y-76484480D01*
X97116900Y-76484480D02*
X97358200Y-77393800D01*
X97358200Y-77393800D02*
X97469960Y-78105000D01*
X97469960Y-78105000D02*
X97627440Y-79842360D01*
X97627440Y-79842360D02*
X97635060Y-81198720D01*
X97635060Y-81198720D02*
X97680780Y-82006440D01*
X97680780Y-82006440D02*
X97690940Y-82110580D01*
X97690940Y-82110580D02*
X97690940Y-82146140D01*
X97690940Y-82146140D02*
X97726500Y-82369660D01*
X97726500Y-82369660D02*
X97749360Y-82516980D01*
X97749360Y-82516980D02*
X97810320Y-82544920D01*
X97810320Y-82544920D02*
X97901760Y-82450940D01*
X97901760Y-82450940D02*
X97914460Y-82438240D01*
X97914460Y-82438240D02*
X97922080Y-82440780D01*
X97922080Y-82440780D02*
X97917000Y-82458560D01*
X97917000Y-82458560D02*
X97901760Y-82534760D01*
X97901760Y-82534760D02*
X97845880Y-82776060D01*
X97845880Y-82776060D02*
X97797620Y-82976720D01*
X97797620Y-82976720D02*
X97792540Y-82989420D01*
X97792540Y-82989420D02*
X97899220Y-84173060D01*
X97899220Y-84173060D02*
X97838260Y-84419440D01*
X97838260Y-84419440D02*
X97713800Y-85013800D01*
X97713800Y-85013800D02*
X97652840Y-85704680D01*
X97652840Y-85704680D02*
X97528380Y-89794080D01*
X97528380Y-89794080D02*
X98712020Y-89669620D01*
X98712020Y-89669620D02*
X99214940Y-89649300D01*
X99214940Y-89649300D02*
X99768660Y-89700100D01*
X99768660Y-89700100D02*
X100098860Y-89989660D01*
X100098860Y-89989660D02*
X100261420Y-90492580D01*
X100261420Y-90492580D02*
X100396040Y-92064840D01*
X100396040Y-92064840D02*
X100375720Y-92638880D01*
X100375720Y-92638880D02*
X100200460Y-92969080D01*
X100200460Y-92969080D02*
X99626420Y-93235780D01*
X99626420Y-93235780D02*
X98115120Y-93573600D01*
X98115120Y-93573600D02*
X96481900Y-93819980D01*
X96481900Y-93819980D02*
X94775020Y-94035880D01*
X94775020Y-94035880D02*
X94467680Y-94399100D01*
X94467680Y-94399100D02*
X92372180Y-95326200D01*
X92372180Y-95326200D02*
X91795600Y-95509080D01*
X91795600Y-95509080D02*
X91399360Y-95575120D01*
X91399360Y-95575120D02*
X90972640Y-95625920D01*
X90972640Y-95625920D02*
X90510360Y-95953580D01*
X90510360Y-95953580D02*
X90017600Y-96746060D01*
X90017600Y-96746060D02*
X89349580Y-97454720D01*
X89349580Y-97454720D02*
X88597740Y-98077020D01*
X88597740Y-98077020D02*
X87891620Y-98516440D01*
X87891620Y-98516440D02*
X87660480Y-98661220D01*
X87660480Y-98661220D02*
X87210900Y-98772980D01*
X87210900Y-98772980D02*
X86504780Y-98996500D01*
X86504780Y-98996500D02*
X85255100Y-99042220D01*
X85255100Y-99042220D02*
X84107020Y-98772980D01*
X84107020Y-98772980D02*
X82966560Y-98153220D01*
X82966560Y-98153220D02*
X82080100Y-97393760D01*
X82080100Y-97393760D02*
X81495900Y-96801940D01*
X81495900Y-96801940D02*
X81153000Y-96441260D01*
X81153000Y-96441260D02*
X78534260Y-96065340D01*
X78534260Y-96065340D02*
X77736700Y-95994220D01*
X77736700Y-95994220D02*
X77520800Y-96019620D01*
X77520800Y-96019620D02*
X77307440Y-96083120D01*
X77307440Y-96083120D02*
X76923900Y-96266000D01*
X76923900Y-96266000D02*
X76238100Y-96352360D01*
X76238100Y-96352360D02*
X75209400Y-96390460D01*
X75209400Y-96390460D02*
X74599800Y-96410780D01*
X74599800Y-96410780D02*
X74020680Y-96469200D01*
X74020680Y-96469200D02*
X73626980Y-96563180D01*
X73626980Y-96563180D02*
X73243440Y-96740980D01*
X73243440Y-96740980D02*
X72550020Y-97088960D01*
X72550020Y-97088960D02*
X72102980Y-97193100D01*
X72102980Y-97193100D02*
X71920100Y-97223580D01*
X71920100Y-97223580D02*
X70383400Y-97198180D01*
X70383400Y-97198180D02*
X70253860Y-97965260D01*
X70253860Y-97965260D02*
X70121780Y-98536760D01*
X70121780Y-98536760D02*
X70027800Y-99004120D01*
X70027800Y-99004120D02*
X69735700Y-99910900D01*
X69735700Y-99910900D02*
X69616320Y-100284280D01*
X69616320Y-100284280D02*
X69372480Y-100794820D01*
X69372480Y-100794820D02*
X69176900Y-101244400D01*
X69176900Y-101244400D02*
X68620640Y-102064820D01*
X68620640Y-102064820D02*
X68193920Y-102422960D01*
X68193920Y-102422960D02*
X67972940Y-102570280D01*
X67972940Y-102570280D02*
X67713860Y-102740460D01*
X67713860Y-102740460D02*
X67503040Y-102854760D01*
X67503040Y-102854760D02*
X67111880Y-103055420D01*
X67111880Y-103055420D02*
X66832480Y-103164640D01*
X66832480Y-103164640D02*
X66560700Y-103245920D01*
X66560700Y-103245920D02*
X66245740Y-103309420D01*
X66245740Y-103309420D02*
X65366900Y-103360220D01*
X65366900Y-103360220D02*
X64434720Y-103398320D01*
X64434720Y-103398320D02*
X63560960Y-103400860D01*
X63560960Y-103400860D02*
X62956440Y-103388160D01*
X62956440Y-103388160D02*
X62565280Y-103355140D01*
X62565280Y-103355140D02*
X61970920Y-103212900D01*
X61970920Y-103212900D02*
X61628020Y-103075740D01*
X61628020Y-103075740D02*
X61064140Y-102750620D01*
X61064140Y-102750620D02*
X60904120Y-102659180D01*
X60904120Y-102659180D02*
X60606940Y-102478840D01*
X60606940Y-102478840D02*
X60540900Y-102443280D01*
X60540900Y-102443280D02*
X59636660Y-101546660D01*
X59636660Y-101546660D02*
X58907680Y-100375720D01*
X58907680Y-100375720D02*
X58361580Y-98927920D01*
X58361580Y-98927920D02*
X58016140Y-97322640D01*
X58016140Y-97322640D02*
X57840880Y-95384620D01*
X57840880Y-95384620D02*
X57818020Y-92816680D01*
X57818020Y-92816680D02*
X56860440Y-92542360D01*
X56860440Y-92542360D02*
X56014620Y-92384880D01*
X56014620Y-92384880D02*
X54945280Y-92316300D01*
X54945280Y-92316300D02*
X54068980Y-92326460D01*
X54068980Y-92326460D02*
X53543200Y-92288360D01*
X53543200Y-92288360D02*
X53146960Y-92184220D01*
X53146960Y-92184220D02*
X52252880Y-91594940D01*
X52252880Y-91594940D02*
X51805840Y-91414600D01*
X51805840Y-91414600D02*
X51437540Y-91483180D01*
X51437540Y-91483180D02*
X50911760Y-91782900D01*
X50911760Y-91782900D02*
X50467260Y-91887040D01*
X50467260Y-91887040D02*
X50373280Y-92082620D01*
X50373280Y-92082620D02*
X50258980Y-93662500D01*
X50258980Y-93662500D02*
X50045620Y-94460060D01*
X50045620Y-94460060D02*
X49710340Y-95158560D01*
X49710340Y-95158560D02*
X49377600Y-95542100D01*
X49377600Y-95542100D02*
X49062640Y-95735140D01*
X49062640Y-95735140D02*
X48582580Y-95846900D01*
X48582580Y-95846900D02*
X47703740Y-95882460D01*
X47703740Y-95882460D02*
X47063660Y-95846900D01*
X47063660Y-95846900D02*
X46398180Y-95717360D01*
X46398180Y-95717360D02*
X46007020Y-95455740D01*
X46007020Y-95455740D02*
X45730160Y-95059500D01*
X45730160Y-95059500D02*
X45605700Y-94775020D01*
X45605700Y-94775020D02*
X45417740Y-94198440D01*
X45417740Y-94198440D02*
X45260260Y-93400880D01*
X45260260Y-93400880D02*
X45107860Y-92356940D01*
X45107860Y-92356940D02*
X45021500Y-91406980D01*
X45021500Y-91406980D02*
X45013880Y-90738960D01*
X45013880Y-90738960D02*
X45092620Y-89928700D01*
X45092620Y-89928700D02*
X45001180Y-89684860D01*
X45001180Y-89684860D02*
X44625260Y-89547700D01*
X44625260Y-89547700D02*
X44056300Y-89237820D01*
X44056300Y-89237820D02*
X43685460Y-88785700D01*
X43685460Y-88785700D02*
X43566080Y-88539320D01*
X43566080Y-88539320D02*
X43489880Y-88318340D01*
X43489880Y-88318340D02*
X43423840Y-87967820D01*
X43423840Y-87967820D02*
X43380660Y-87393780D01*
X43380660Y-87393780D02*
X43355260Y-85592920D01*
X43355260Y-85592920D02*
X43367960Y-82532220D01*
X43367960Y-82532220D02*
X43423840Y-80576420D01*
X43423840Y-80576420D02*
X43472100Y-79654400D01*
X43472100Y-79654400D02*
X43599100Y-77764640D01*
X43599100Y-77764640D02*
X43601640Y-77144880D01*
X43601640Y-77144880D02*
X43682920Y-76309220D01*
X43682920Y-76309220D02*
X43977560Y-75237340D01*
X43977560Y-75237340D02*
X44460160Y-73919080D01*
X44460160Y-73919080D02*
X45206920Y-72214740D01*
X45206920Y-72214740D02*
X45328840Y-71950580D01*
X45328840Y-71950580D02*
X45349160Y-71904860D01*
X45349160Y-71904860D02*
X45369200Y-71854440D01*
M02*
