G04 #@! TF.GenerationSoftware,KiCad,Pcbnew,(5.1.2)-1*
G04 #@! TF.CreationDate,2019-05-18T15:03:22-05:00*
G04 #@! TF.ProjectId,van-sao,76616e2d-7361-46f2-9e6b-696361645f70,rev?*
G04 #@! TF.SameCoordinates,Original*
G04 #@! TF.FileFunction,Legend,Bot*
G04 #@! TF.FilePolarity,Positive*
%FSLAX46Y46*%
G04 Gerber Fmt 4.6, Leading zero omitted, Abs format (unit mm)*
G04 Created by KiCad (PCBNEW (5.1.2)-1) date 2019-05-18 15:03:22*
%MOMM*%
%LPD*%
G04 APERTURE LIST*
%ADD10C,0.120000*%
%ADD11C,0.150000*%
G04 APERTURE END LIST*
D10*
X20977000Y-3178000D02*
X20977000Y707000D01*
X20977000Y707000D02*
X23247000Y707000D01*
X23247000Y707000D02*
X23247000Y-3178000D01*
X3222000Y334000D02*
X3222000Y-3551000D01*
X952000Y334000D02*
X3222000Y334000D01*
X952000Y-3551000D02*
X952000Y334000D01*
X-9003000Y-3426578D02*
X-9003000Y-2909422D01*
X-10423000Y-3426578D02*
X-10423000Y-2909422D01*
D11*
X-24177999Y-2685999D02*
G75*
G03X-24177999Y-2685999I-400000J0D01*
G01*
X20744380Y-839904D02*
X19744380Y-839904D01*
X19744380Y-1078000D01*
X19792000Y-1220857D01*
X19887238Y-1316095D01*
X19982476Y-1363714D01*
X20172952Y-1411333D01*
X20315809Y-1411333D01*
X20506285Y-1363714D01*
X20601523Y-1316095D01*
X20696761Y-1220857D01*
X20744380Y-1078000D01*
X20744380Y-839904D01*
X20744380Y-2363714D02*
X20744380Y-1792285D01*
X20744380Y-2078000D02*
X19744380Y-2078000D01*
X19887238Y-1982761D01*
X19982476Y-1887523D01*
X20030095Y-1792285D01*
X719380Y-1212904D02*
X-280619Y-1212904D01*
X-280619Y-1451000D01*
X-233000Y-1593857D01*
X-137761Y-1689095D01*
X-42523Y-1736714D01*
X147952Y-1784333D01*
X290809Y-1784333D01*
X481285Y-1736714D01*
X576523Y-1689095D01*
X671761Y-1593857D01*
X719380Y-1451000D01*
X719380Y-1212904D01*
X-185380Y-2165285D02*
X-233000Y-2212904D01*
X-280619Y-2308142D01*
X-280619Y-2546238D01*
X-233000Y-2641476D01*
X-185380Y-2689095D01*
X-90142Y-2736714D01*
X5095Y-2736714D01*
X147952Y-2689095D01*
X719380Y-2117666D01*
X719380Y-2736714D01*
X-7610619Y-3001333D02*
X-8086809Y-2668000D01*
X-7610619Y-2429904D02*
X-8610619Y-2429904D01*
X-8610619Y-2810857D01*
X-8563000Y-2906095D01*
X-8515380Y-2953714D01*
X-8420142Y-3001333D01*
X-8277285Y-3001333D01*
X-8182047Y-2953714D01*
X-8134428Y-2906095D01*
X-8086809Y-2810857D01*
X-8086809Y-2429904D01*
X-7610619Y-3953714D02*
X-7610619Y-3382285D01*
X-7610619Y-3668000D02*
X-8610619Y-3668000D01*
X-8467761Y-3572761D01*
X-8372523Y-3477523D01*
X-8324904Y-3382285D01*
M02*
