G04 #@! TF.GenerationSoftware,KiCad,Pcbnew,(5.1.2)-1*
G04 #@! TF.CreationDate,2019-05-14T08:10:40-05:00*
G04 #@! TF.ProjectId,van-sao,76616e2d-7361-46f2-9e6b-696361645f70,rev?*
G04 #@! TF.SameCoordinates,Original*
G04 #@! TF.FileFunction,Soldermask,Top*
G04 #@! TF.FilePolarity,Negative*
%FSLAX46Y46*%
G04 Gerber Fmt 4.6, Leading zero omitted, Abs format (unit mm)*
G04 Created by KiCad (PCBNEW (5.1.2)-1) date 2019-05-14 08:10:40*
%MOMM*%
%LPD*%
G04 APERTURE LIST*
%ADD10C,0.010000*%
G04 APERTURE END LIST*
D10*
G36*
X-11276827Y-10253530D02*
G01*
X-11158068Y-10304730D01*
X-10961730Y-10422487D01*
X-10756008Y-10583382D01*
X-10550735Y-10775338D01*
X-10355741Y-10986276D01*
X-10180857Y-11204115D01*
X-10035916Y-11416778D01*
X-9930749Y-11612185D01*
X-9875187Y-11778257D01*
X-9873337Y-11883167D01*
X-9897553Y-11896152D01*
X-9952650Y-11842935D01*
X-10041764Y-11719989D01*
X-10106970Y-11620500D01*
X-10256576Y-11389090D01*
X-10371931Y-11217217D01*
X-10463036Y-11092232D01*
X-10539888Y-11001491D01*
X-10612488Y-10932344D01*
X-10690834Y-10872146D01*
X-10708323Y-10859893D01*
X-10936050Y-10748980D01*
X-11173933Y-10716128D01*
X-11407285Y-10758459D01*
X-11621423Y-10873093D01*
X-11801661Y-11057152D01*
X-11815702Y-11077001D01*
X-11933555Y-11271060D01*
X-12045152Y-11495772D01*
X-12144304Y-11733464D01*
X-12224822Y-11966461D01*
X-12280518Y-12177091D01*
X-12305203Y-12347679D01*
X-12296524Y-12450125D01*
X-12258818Y-12506926D01*
X-12218598Y-12492687D01*
X-12193771Y-12418533D01*
X-12192000Y-12385185D01*
X-12171333Y-12303524D01*
X-12123640Y-12230472D01*
X-12070381Y-12192794D01*
X-12043239Y-12199650D01*
X-12025374Y-12256146D01*
X-12006388Y-12381063D01*
X-11987555Y-12558190D01*
X-11970146Y-12771316D01*
X-11955433Y-13004228D01*
X-11944687Y-13240716D01*
X-11939182Y-13464568D01*
X-11938733Y-13531598D01*
X-11922999Y-14086718D01*
X-11878567Y-14605366D01*
X-11807155Y-15076334D01*
X-11710483Y-15488411D01*
X-11590269Y-15830389D01*
X-11584174Y-15844309D01*
X-11463843Y-16060543D01*
X-11306675Y-16263914D01*
X-11133399Y-16430876D01*
X-10979424Y-16531212D01*
X-10855286Y-16576339D01*
X-10793674Y-16566357D01*
X-10795366Y-16504082D01*
X-10861140Y-16392331D01*
X-10920177Y-16316508D01*
X-11065241Y-16112241D01*
X-11148158Y-15930160D01*
X-11168103Y-15777895D01*
X-11124248Y-15663078D01*
X-11015768Y-15593339D01*
X-10999032Y-15588534D01*
X-10886931Y-15546127D01*
X-10823012Y-15479541D01*
X-10801230Y-15372285D01*
X-10815539Y-15207869D01*
X-10829398Y-15125788D01*
X-10865300Y-14927403D01*
X-10903305Y-14716015D01*
X-10926913Y-14583834D01*
X-10955432Y-14301130D01*
X-10946175Y-14013547D01*
X-10902607Y-13742597D01*
X-10828188Y-13509790D01*
X-10726382Y-13336639D01*
X-10726110Y-13336315D01*
X-10611833Y-13235636D01*
X-10509100Y-13217618D01*
X-10418492Y-13280968D01*
X-10340589Y-13424394D01*
X-10275973Y-13646603D01*
X-10225224Y-13946302D01*
X-10188922Y-14322198D01*
X-10175248Y-14562667D01*
X-10172427Y-15150515D01*
X-10220261Y-15675691D01*
X-10319325Y-16143791D01*
X-10348737Y-16241828D01*
X-10450639Y-16562718D01*
X-10328387Y-16445594D01*
X-10237553Y-16330005D01*
X-10158786Y-16183141D01*
X-10140655Y-16136292D01*
X-10068057Y-15844844D01*
X-10022708Y-15490222D01*
X-10003275Y-15088948D01*
X-10008422Y-14657547D01*
X-10036817Y-14212539D01*
X-10087124Y-13770447D01*
X-10158010Y-13347794D01*
X-10248141Y-12961102D01*
X-10356182Y-12626893D01*
X-10439288Y-12437868D01*
X-10554753Y-12249429D01*
X-10703686Y-12061611D01*
X-10865368Y-11897029D01*
X-11019082Y-11778300D01*
X-11068285Y-11751231D01*
X-11260910Y-11695187D01*
X-11466229Y-11691990D01*
X-11645936Y-11742032D01*
X-11652250Y-11745250D01*
X-11732572Y-11782126D01*
X-11768530Y-11788701D01*
X-11768666Y-11787893D01*
X-11737369Y-11739576D01*
X-11657564Y-11660787D01*
X-11550380Y-11569212D01*
X-11436948Y-11482534D01*
X-11338396Y-11418439D01*
X-11310026Y-11404029D01*
X-11218419Y-11369634D01*
X-11142476Y-11367683D01*
X-11046552Y-11401420D01*
X-10976439Y-11434386D01*
X-10786304Y-11554853D01*
X-10584110Y-11730038D01*
X-10392069Y-11937237D01*
X-10232391Y-12153746D01*
X-10173140Y-12255500D01*
X-9996960Y-12657359D01*
X-9856957Y-13111193D01*
X-9753642Y-13602218D01*
X-9687531Y-14115649D01*
X-9659136Y-14636703D01*
X-9668970Y-15150596D01*
X-9717547Y-15642542D01*
X-9805381Y-16097759D01*
X-9932984Y-16501462D01*
X-10019028Y-16693669D01*
X-10177746Y-16968035D01*
X-10339504Y-17164382D01*
X-10512096Y-17289222D01*
X-10703321Y-17349069D01*
X-10812682Y-17356667D01*
X-10960533Y-17343604D01*
X-11092203Y-17310892D01*
X-11125185Y-17296562D01*
X-11304134Y-17165164D01*
X-11492880Y-16956268D01*
X-11686673Y-16675783D01*
X-11840453Y-16407016D01*
X-11938765Y-16228200D01*
X-12027384Y-16078625D01*
X-12096893Y-15973421D01*
X-12137877Y-15927715D01*
X-12139083Y-15927238D01*
X-12182039Y-15943699D01*
X-12191484Y-16024126D01*
X-12171180Y-16156461D01*
X-12124887Y-16328649D01*
X-12056369Y-16528634D01*
X-11969387Y-16744361D01*
X-11867702Y-16963772D01*
X-11755077Y-17174813D01*
X-11743699Y-17194409D01*
X-11541113Y-17510046D01*
X-11344578Y-17748920D01*
X-11145463Y-17917651D01*
X-10935132Y-18022858D01*
X-10704954Y-18071162D01*
X-10593869Y-18076097D01*
X-10477674Y-18067057D01*
X-10386388Y-18028735D01*
X-10287174Y-17944881D01*
X-10247168Y-17904522D01*
X-10100310Y-17717886D01*
X-9951712Y-17466280D01*
X-9809136Y-17168867D01*
X-9680346Y-16844808D01*
X-9573105Y-16513266D01*
X-9495176Y-16193403D01*
X-9459244Y-15959667D01*
X-9440498Y-15803777D01*
X-9423707Y-15725735D01*
X-9406838Y-15718815D01*
X-9395239Y-15748000D01*
X-9363271Y-15967747D01*
X-9375325Y-16242865D01*
X-9428238Y-16558428D01*
X-9518844Y-16899511D01*
X-9643979Y-17251187D01*
X-9777987Y-17553157D01*
X-9899162Y-17786352D01*
X-10008083Y-17954426D01*
X-10119621Y-18072462D01*
X-10248650Y-18155542D01*
X-10410041Y-18218748D01*
X-10444960Y-18229566D01*
X-10730859Y-18280658D01*
X-11001352Y-18255325D01*
X-11259949Y-18151794D01*
X-11510160Y-17968291D01*
X-11755496Y-17703042D01*
X-11912649Y-17487973D01*
X-12148496Y-17088821D01*
X-12343418Y-16646841D01*
X-12499557Y-16154371D01*
X-12619055Y-15603746D01*
X-12704054Y-14987303D01*
X-12744147Y-14512938D01*
X-12766326Y-13903018D01*
X-12752545Y-13316846D01*
X-12704406Y-12762656D01*
X-12623513Y-12248687D01*
X-12511470Y-11783175D01*
X-12369879Y-11374356D01*
X-12200345Y-11030468D01*
X-12016034Y-10772747D01*
X-11907845Y-10674014D01*
X-11756163Y-10565273D01*
X-11602968Y-10475103D01*
X-11324166Y-10330378D01*
X-11557000Y-10356779D01*
X-11761411Y-10392153D01*
X-11919501Y-10455342D01*
X-12062028Y-10562848D01*
X-12189105Y-10695925D01*
X-12412932Y-11007225D01*
X-12602592Y-11391207D01*
X-12756707Y-11842491D01*
X-12873900Y-12355699D01*
X-12952790Y-12925453D01*
X-12992000Y-13546374D01*
X-12996333Y-13845751D01*
X-12971318Y-14593313D01*
X-12897192Y-15293952D01*
X-12775336Y-15943870D01*
X-12607129Y-16539268D01*
X-12393953Y-17076346D01*
X-12137187Y-17551305D01*
X-11838211Y-17960347D01*
X-11498407Y-18299673D01*
X-11330901Y-18429784D01*
X-11144137Y-18569331D01*
X-11022347Y-18673836D01*
X-10966442Y-18740801D01*
X-10977335Y-18767733D01*
X-11055939Y-18752134D01*
X-11203167Y-18691509D01*
X-11241844Y-18673323D01*
X-11580813Y-18483374D01*
X-11866402Y-18258087D01*
X-12112928Y-17983023D01*
X-12334706Y-17643743D01*
X-12421320Y-17483667D01*
X-12682269Y-16901503D01*
X-12887647Y-16273111D01*
X-13038433Y-15593670D01*
X-13135608Y-14858358D01*
X-13180155Y-14062355D01*
X-13183479Y-13737167D01*
X-13173082Y-13198769D01*
X-13141945Y-12728371D01*
X-13087422Y-12311260D01*
X-13006866Y-11932724D01*
X-12897631Y-11578053D01*
X-12757069Y-11232535D01*
X-12717636Y-11147777D01*
X-12582702Y-10910442D01*
X-12410884Y-10675835D01*
X-12222132Y-10467832D01*
X-12036396Y-10310307D01*
X-11995010Y-10282989D01*
X-11782042Y-10199868D01*
X-11538835Y-10190148D01*
X-11276827Y-10253530D01*
X-11276827Y-10253530D01*
G37*
X-11276827Y-10253530D02*
X-11158068Y-10304730D01*
X-10961730Y-10422487D01*
X-10756008Y-10583382D01*
X-10550735Y-10775338D01*
X-10355741Y-10986276D01*
X-10180857Y-11204115D01*
X-10035916Y-11416778D01*
X-9930749Y-11612185D01*
X-9875187Y-11778257D01*
X-9873337Y-11883167D01*
X-9897553Y-11896152D01*
X-9952650Y-11842935D01*
X-10041764Y-11719989D01*
X-10106970Y-11620500D01*
X-10256576Y-11389090D01*
X-10371931Y-11217217D01*
X-10463036Y-11092232D01*
X-10539888Y-11001491D01*
X-10612488Y-10932344D01*
X-10690834Y-10872146D01*
X-10708323Y-10859893D01*
X-10936050Y-10748980D01*
X-11173933Y-10716128D01*
X-11407285Y-10758459D01*
X-11621423Y-10873093D01*
X-11801661Y-11057152D01*
X-11815702Y-11077001D01*
X-11933555Y-11271060D01*
X-12045152Y-11495772D01*
X-12144304Y-11733464D01*
X-12224822Y-11966461D01*
X-12280518Y-12177091D01*
X-12305203Y-12347679D01*
X-12296524Y-12450125D01*
X-12258818Y-12506926D01*
X-12218598Y-12492687D01*
X-12193771Y-12418533D01*
X-12192000Y-12385185D01*
X-12171333Y-12303524D01*
X-12123640Y-12230472D01*
X-12070381Y-12192794D01*
X-12043239Y-12199650D01*
X-12025374Y-12256146D01*
X-12006388Y-12381063D01*
X-11987555Y-12558190D01*
X-11970146Y-12771316D01*
X-11955433Y-13004228D01*
X-11944687Y-13240716D01*
X-11939182Y-13464568D01*
X-11938733Y-13531598D01*
X-11922999Y-14086718D01*
X-11878567Y-14605366D01*
X-11807155Y-15076334D01*
X-11710483Y-15488411D01*
X-11590269Y-15830389D01*
X-11584174Y-15844309D01*
X-11463843Y-16060543D01*
X-11306675Y-16263914D01*
X-11133399Y-16430876D01*
X-10979424Y-16531212D01*
X-10855286Y-16576339D01*
X-10793674Y-16566357D01*
X-10795366Y-16504082D01*
X-10861140Y-16392331D01*
X-10920177Y-16316508D01*
X-11065241Y-16112241D01*
X-11148158Y-15930160D01*
X-11168103Y-15777895D01*
X-11124248Y-15663078D01*
X-11015768Y-15593339D01*
X-10999032Y-15588534D01*
X-10886931Y-15546127D01*
X-10823012Y-15479541D01*
X-10801230Y-15372285D01*
X-10815539Y-15207869D01*
X-10829398Y-15125788D01*
X-10865300Y-14927403D01*
X-10903305Y-14716015D01*
X-10926913Y-14583834D01*
X-10955432Y-14301130D01*
X-10946175Y-14013547D01*
X-10902607Y-13742597D01*
X-10828188Y-13509790D01*
X-10726382Y-13336639D01*
X-10726110Y-13336315D01*
X-10611833Y-13235636D01*
X-10509100Y-13217618D01*
X-10418492Y-13280968D01*
X-10340589Y-13424394D01*
X-10275973Y-13646603D01*
X-10225224Y-13946302D01*
X-10188922Y-14322198D01*
X-10175248Y-14562667D01*
X-10172427Y-15150515D01*
X-10220261Y-15675691D01*
X-10319325Y-16143791D01*
X-10348737Y-16241828D01*
X-10450639Y-16562718D01*
X-10328387Y-16445594D01*
X-10237553Y-16330005D01*
X-10158786Y-16183141D01*
X-10140655Y-16136292D01*
X-10068057Y-15844844D01*
X-10022708Y-15490222D01*
X-10003275Y-15088948D01*
X-10008422Y-14657547D01*
X-10036817Y-14212539D01*
X-10087124Y-13770447D01*
X-10158010Y-13347794D01*
X-10248141Y-12961102D01*
X-10356182Y-12626893D01*
X-10439288Y-12437868D01*
X-10554753Y-12249429D01*
X-10703686Y-12061611D01*
X-10865368Y-11897029D01*
X-11019082Y-11778300D01*
X-11068285Y-11751231D01*
X-11260910Y-11695187D01*
X-11466229Y-11691990D01*
X-11645936Y-11742032D01*
X-11652250Y-11745250D01*
X-11732572Y-11782126D01*
X-11768530Y-11788701D01*
X-11768666Y-11787893D01*
X-11737369Y-11739576D01*
X-11657564Y-11660787D01*
X-11550380Y-11569212D01*
X-11436948Y-11482534D01*
X-11338396Y-11418439D01*
X-11310026Y-11404029D01*
X-11218419Y-11369634D01*
X-11142476Y-11367683D01*
X-11046552Y-11401420D01*
X-10976439Y-11434386D01*
X-10786304Y-11554853D01*
X-10584110Y-11730038D01*
X-10392069Y-11937237D01*
X-10232391Y-12153746D01*
X-10173140Y-12255500D01*
X-9996960Y-12657359D01*
X-9856957Y-13111193D01*
X-9753642Y-13602218D01*
X-9687531Y-14115649D01*
X-9659136Y-14636703D01*
X-9668970Y-15150596D01*
X-9717547Y-15642542D01*
X-9805381Y-16097759D01*
X-9932984Y-16501462D01*
X-10019028Y-16693669D01*
X-10177746Y-16968035D01*
X-10339504Y-17164382D01*
X-10512096Y-17289222D01*
X-10703321Y-17349069D01*
X-10812682Y-17356667D01*
X-10960533Y-17343604D01*
X-11092203Y-17310892D01*
X-11125185Y-17296562D01*
X-11304134Y-17165164D01*
X-11492880Y-16956268D01*
X-11686673Y-16675783D01*
X-11840453Y-16407016D01*
X-11938765Y-16228200D01*
X-12027384Y-16078625D01*
X-12096893Y-15973421D01*
X-12137877Y-15927715D01*
X-12139083Y-15927238D01*
X-12182039Y-15943699D01*
X-12191484Y-16024126D01*
X-12171180Y-16156461D01*
X-12124887Y-16328649D01*
X-12056369Y-16528634D01*
X-11969387Y-16744361D01*
X-11867702Y-16963772D01*
X-11755077Y-17174813D01*
X-11743699Y-17194409D01*
X-11541113Y-17510046D01*
X-11344578Y-17748920D01*
X-11145463Y-17917651D01*
X-10935132Y-18022858D01*
X-10704954Y-18071162D01*
X-10593869Y-18076097D01*
X-10477674Y-18067057D01*
X-10386388Y-18028735D01*
X-10287174Y-17944881D01*
X-10247168Y-17904522D01*
X-10100310Y-17717886D01*
X-9951712Y-17466280D01*
X-9809136Y-17168867D01*
X-9680346Y-16844808D01*
X-9573105Y-16513266D01*
X-9495176Y-16193403D01*
X-9459244Y-15959667D01*
X-9440498Y-15803777D01*
X-9423707Y-15725735D01*
X-9406838Y-15718815D01*
X-9395239Y-15748000D01*
X-9363271Y-15967747D01*
X-9375325Y-16242865D01*
X-9428238Y-16558428D01*
X-9518844Y-16899511D01*
X-9643979Y-17251187D01*
X-9777987Y-17553157D01*
X-9899162Y-17786352D01*
X-10008083Y-17954426D01*
X-10119621Y-18072462D01*
X-10248650Y-18155542D01*
X-10410041Y-18218748D01*
X-10444960Y-18229566D01*
X-10730859Y-18280658D01*
X-11001352Y-18255325D01*
X-11259949Y-18151794D01*
X-11510160Y-17968291D01*
X-11755496Y-17703042D01*
X-11912649Y-17487973D01*
X-12148496Y-17088821D01*
X-12343418Y-16646841D01*
X-12499557Y-16154371D01*
X-12619055Y-15603746D01*
X-12704054Y-14987303D01*
X-12744147Y-14512938D01*
X-12766326Y-13903018D01*
X-12752545Y-13316846D01*
X-12704406Y-12762656D01*
X-12623513Y-12248687D01*
X-12511470Y-11783175D01*
X-12369879Y-11374356D01*
X-12200345Y-11030468D01*
X-12016034Y-10772747D01*
X-11907845Y-10674014D01*
X-11756163Y-10565273D01*
X-11602968Y-10475103D01*
X-11324166Y-10330378D01*
X-11557000Y-10356779D01*
X-11761411Y-10392153D01*
X-11919501Y-10455342D01*
X-12062028Y-10562848D01*
X-12189105Y-10695925D01*
X-12412932Y-11007225D01*
X-12602592Y-11391207D01*
X-12756707Y-11842491D01*
X-12873900Y-12355699D01*
X-12952790Y-12925453D01*
X-12992000Y-13546374D01*
X-12996333Y-13845751D01*
X-12971318Y-14593313D01*
X-12897192Y-15293952D01*
X-12775336Y-15943870D01*
X-12607129Y-16539268D01*
X-12393953Y-17076346D01*
X-12137187Y-17551305D01*
X-11838211Y-17960347D01*
X-11498407Y-18299673D01*
X-11330901Y-18429784D01*
X-11144137Y-18569331D01*
X-11022347Y-18673836D01*
X-10966442Y-18740801D01*
X-10977335Y-18767733D01*
X-11055939Y-18752134D01*
X-11203167Y-18691509D01*
X-11241844Y-18673323D01*
X-11580813Y-18483374D01*
X-11866402Y-18258087D01*
X-12112928Y-17983023D01*
X-12334706Y-17643743D01*
X-12421320Y-17483667D01*
X-12682269Y-16901503D01*
X-12887647Y-16273111D01*
X-13038433Y-15593670D01*
X-13135608Y-14858358D01*
X-13180155Y-14062355D01*
X-13183479Y-13737167D01*
X-13173082Y-13198769D01*
X-13141945Y-12728371D01*
X-13087422Y-12311260D01*
X-13006866Y-11932724D01*
X-12897631Y-11578053D01*
X-12757069Y-11232535D01*
X-12717636Y-11147777D01*
X-12582702Y-10910442D01*
X-12410884Y-10675835D01*
X-12222132Y-10467832D01*
X-12036396Y-10310307D01*
X-11995010Y-10282989D01*
X-11782042Y-10199868D01*
X-11538835Y-10190148D01*
X-11276827Y-10253530D01*
G36*
X-9376151Y-13747725D02*
G01*
X-9360862Y-13859976D01*
X-9355666Y-13993665D01*
X-9361697Y-14136468D01*
X-9377648Y-14234129D01*
X-9398000Y-14266334D01*
X-9419669Y-14227148D01*
X-9434658Y-14121993D01*
X-9440332Y-13969466D01*
X-9440333Y-13967502D01*
X-9434901Y-13804555D01*
X-9419364Y-13712028D01*
X-9398000Y-13694834D01*
X-9376151Y-13747725D01*
X-9376151Y-13747725D01*
G37*
X-9376151Y-13747725D02*
X-9360862Y-13859976D01*
X-9355666Y-13993665D01*
X-9361697Y-14136468D01*
X-9377648Y-14234129D01*
X-9398000Y-14266334D01*
X-9419669Y-14227148D01*
X-9434658Y-14121993D01*
X-9440332Y-13969466D01*
X-9440333Y-13967502D01*
X-9434901Y-13804555D01*
X-9419364Y-13712028D01*
X-9398000Y-13694834D01*
X-9376151Y-13747725D01*
G36*
X27777731Y-7827038D02*
G01*
X27824131Y-7831825D01*
X28014083Y-7869630D01*
X28170625Y-7928750D01*
X28297795Y-8017322D01*
X28399630Y-8143483D01*
X28480168Y-8315367D01*
X28543446Y-8541113D01*
X28593502Y-8828854D01*
X28634374Y-9186728D01*
X28662598Y-9521407D01*
X28688906Y-9949648D01*
X28696604Y-10300196D01*
X28685454Y-10578008D01*
X28655220Y-10788040D01*
X28605666Y-10935247D01*
X28594139Y-10956367D01*
X28457138Y-11116093D01*
X28252925Y-11256580D01*
X28014634Y-11360539D01*
X27815564Y-11418893D01*
X27542690Y-11484984D01*
X27206337Y-11557027D01*
X26816828Y-11633235D01*
X26384489Y-11711820D01*
X25919645Y-11790995D01*
X25432620Y-11868975D01*
X24933739Y-11943972D01*
X24433326Y-12014199D01*
X23941707Y-12077869D01*
X23704957Y-12106390D01*
X23456134Y-12135890D01*
X23134824Y-12174511D01*
X22752548Y-12220845D01*
X22320827Y-12273480D01*
X21851184Y-12331004D01*
X21355138Y-12392008D01*
X20844213Y-12455081D01*
X20329928Y-12518812D01*
X19896667Y-12572706D01*
X19045049Y-12678052D01*
X18274510Y-12771674D01*
X17582316Y-12853853D01*
X16965735Y-12924869D01*
X16422033Y-12985003D01*
X15948477Y-13034535D01*
X15542334Y-13073745D01*
X15200871Y-13102914D01*
X14921356Y-13122321D01*
X14701054Y-13132247D01*
X14537233Y-13132972D01*
X14468277Y-13129393D01*
X14395889Y-13085512D01*
X14324793Y-12981054D01*
X14265864Y-12839564D01*
X14229978Y-12684588D01*
X14224000Y-12600543D01*
X14198930Y-12421151D01*
X14145074Y-12315577D01*
X14066148Y-12218108D01*
X13181991Y-12310621D01*
X12619984Y-12367574D01*
X12065514Y-12419781D01*
X11511257Y-12467626D01*
X10949890Y-12511496D01*
X10374090Y-12551774D01*
X9776535Y-12588847D01*
X9149901Y-12623100D01*
X8486867Y-12654917D01*
X7780108Y-12684685D01*
X7022303Y-12712788D01*
X6206127Y-12739612D01*
X5324260Y-12765542D01*
X4369376Y-12790964D01*
X3767667Y-12805906D01*
X2976042Y-12825740D01*
X2234286Y-12845598D01*
X1546266Y-12865346D01*
X915851Y-12884847D01*
X346910Y-12903964D01*
X-156691Y-12922563D01*
X-591082Y-12940508D01*
X-952396Y-12957661D01*
X-1236765Y-12973888D01*
X-1439333Y-12988963D01*
X-1602377Y-13005965D01*
X-1699241Y-13025214D01*
X-1748286Y-13053611D01*
X-1767870Y-13098058D01*
X-1770450Y-13113429D01*
X-1750789Y-13259227D01*
X-1659207Y-13399881D01*
X-1507942Y-13520969D01*
X-1367324Y-13588548D01*
X-1063048Y-13680597D01*
X-679284Y-13759573D01*
X-220257Y-13825062D01*
X309807Y-13876645D01*
X906682Y-13913909D01*
X1566141Y-13936438D01*
X2243667Y-13943810D01*
X2763815Y-13941539D01*
X3213737Y-13933258D01*
X3607727Y-13917911D01*
X3960081Y-13894441D01*
X4285094Y-13861791D01*
X4597061Y-13818906D01*
X4910277Y-13764727D01*
X5058834Y-13735697D01*
X5347371Y-13682457D01*
X5681572Y-13630154D01*
X6065539Y-13578391D01*
X6503373Y-13526771D01*
X6999176Y-13474899D01*
X7557049Y-13422379D01*
X8181095Y-13368815D01*
X8875415Y-13313810D01*
X9644111Y-13256969D01*
X10491284Y-13197895D01*
X10943167Y-13167558D01*
X11553465Y-13128275D01*
X12084131Y-13096927D01*
X12539825Y-13073518D01*
X12925210Y-13058049D01*
X13244947Y-13050526D01*
X13503697Y-13050950D01*
X13706123Y-13059326D01*
X13856885Y-13075658D01*
X13960646Y-13099947D01*
X14022066Y-13132198D01*
X14045367Y-13169809D01*
X14036902Y-13194868D01*
X13994061Y-13216842D01*
X13906434Y-13237748D01*
X13763610Y-13259603D01*
X13555178Y-13284426D01*
X13332375Y-13307962D01*
X13042432Y-13339866D01*
X12733821Y-13377603D01*
X12436631Y-13417256D01*
X12180953Y-13454910D01*
X12092617Y-13469283D01*
X11968054Y-13489337D01*
X11845628Y-13506170D01*
X11716538Y-13520105D01*
X11571982Y-13531466D01*
X11403158Y-13540573D01*
X11201264Y-13547749D01*
X10957498Y-13553317D01*
X10663058Y-13557599D01*
X10309143Y-13560917D01*
X9886950Y-13563593D01*
X9461500Y-13565633D01*
X8851281Y-13569557D01*
X8316186Y-13576037D01*
X7846697Y-13585651D01*
X7433296Y-13598978D01*
X7066462Y-13616598D01*
X6736678Y-13639090D01*
X6434425Y-13667032D01*
X6150183Y-13701004D01*
X5874434Y-13741586D01*
X5597658Y-13789355D01*
X5507723Y-13806177D01*
X5306328Y-13839470D01*
X5047386Y-13874916D01*
X4757842Y-13909215D01*
X4464640Y-13939068D01*
X4318000Y-13951876D01*
X4048874Y-13974814D01*
X3783637Y-13999227D01*
X3544440Y-14022950D01*
X3353436Y-14043818D01*
X3267187Y-14054610D01*
X3139659Y-14065538D01*
X2940525Y-14074432D01*
X2682686Y-14081326D01*
X2379043Y-14086249D01*
X2042498Y-14089235D01*
X1685952Y-14090315D01*
X1322308Y-14089520D01*
X964465Y-14086884D01*
X625327Y-14082437D01*
X317794Y-14076211D01*
X54767Y-14068239D01*
X-150851Y-14058552D01*
X-286159Y-14047182D01*
X-296333Y-14045810D01*
X-442823Y-14021956D01*
X-646681Y-13984897D01*
X-882544Y-13939417D01*
X-1125046Y-13890297D01*
X-1160905Y-13882811D01*
X-1447226Y-13818488D01*
X-1664344Y-13757310D01*
X-1827073Y-13691963D01*
X-1950228Y-13615131D01*
X-2048623Y-13519502D01*
X-2134116Y-13402338D01*
X-2178304Y-13329771D01*
X-2208578Y-13260737D01*
X-2227452Y-13177728D01*
X-2237442Y-13063234D01*
X-2241063Y-12899747D01*
X-2240830Y-12669757D01*
X-2240780Y-12659776D01*
X-2238172Y-12432278D01*
X-2232655Y-12145140D01*
X-2229680Y-12022667D01*
X-1989666Y-12022667D01*
X-1984715Y-12190383D01*
X-1971199Y-12308240D01*
X-1951120Y-12360205D01*
X-1947333Y-12361334D01*
X-1926369Y-12321725D01*
X-1911636Y-12213591D01*
X-1905321Y-12057414D01*
X-1685693Y-12057414D01*
X-1652074Y-12177532D01*
X-1562775Y-12290301D01*
X-1422849Y-12377813D01*
X-1421337Y-12378447D01*
X-1170701Y-12457478D01*
X-837794Y-12519615D01*
X-423332Y-12564731D01*
X-345524Y-12570648D01*
X-129431Y-12582189D01*
X160656Y-12591582D01*
X514089Y-12598821D01*
X920222Y-12603903D01*
X1368409Y-12606823D01*
X1848003Y-12607576D01*
X2348358Y-12606158D01*
X2858826Y-12602564D01*
X3368763Y-12596789D01*
X3867520Y-12588829D01*
X4344452Y-12578680D01*
X4572000Y-12572766D01*
X5368074Y-12549640D01*
X6094929Y-12526146D01*
X6768015Y-12501517D01*
X7402780Y-12474982D01*
X8014670Y-12445774D01*
X8619135Y-12413124D01*
X9231622Y-12376263D01*
X9867579Y-12334424D01*
X10542454Y-12286838D01*
X11006667Y-12252658D01*
X11604121Y-12207670D01*
X12122690Y-12167182D01*
X12567952Y-12129841D01*
X12945487Y-12094291D01*
X13260873Y-12059178D01*
X13519689Y-12023148D01*
X13727514Y-11984845D01*
X13889926Y-11942916D01*
X14012505Y-11896006D01*
X14100828Y-11842759D01*
X14160476Y-11781823D01*
X14184423Y-11735970D01*
X14570476Y-11735970D01*
X14578640Y-12107733D01*
X14596683Y-12400267D01*
X14624797Y-12616025D01*
X14663176Y-12757459D01*
X14692595Y-12809362D01*
X14709747Y-12832788D01*
X14725007Y-12849646D01*
X14750276Y-12859566D01*
X14797456Y-12862178D01*
X14878447Y-12857113D01*
X15005150Y-12844000D01*
X15189468Y-12822470D01*
X15443302Y-12792154D01*
X15512939Y-12783879D01*
X16190449Y-12702384D01*
X16867503Y-12618723D01*
X17538595Y-12533698D01*
X18198217Y-12448109D01*
X18840860Y-12362755D01*
X19461016Y-12278437D01*
X20053179Y-12195955D01*
X20611838Y-12116109D01*
X21131488Y-12039700D01*
X21606620Y-11967527D01*
X22031725Y-11900391D01*
X22401296Y-11839093D01*
X22709825Y-11784432D01*
X22951805Y-11737208D01*
X23121727Y-11698222D01*
X23214082Y-11668275D01*
X23222116Y-11663860D01*
X23285055Y-11582394D01*
X23337323Y-11444853D01*
X23713539Y-11444853D01*
X23763621Y-11563681D01*
X23778867Y-11580819D01*
X23856011Y-11618269D01*
X23994784Y-11635517D01*
X24198558Y-11632269D01*
X24470703Y-11608228D01*
X24814590Y-11563099D01*
X25233588Y-11496588D01*
X25717500Y-11410896D01*
X26281217Y-11304131D01*
X26764024Y-11206029D01*
X27169147Y-11115813D01*
X27499816Y-11032707D01*
X27759258Y-10955935D01*
X27950702Y-10884721D01*
X27999649Y-10862239D01*
X28168267Y-10754243D01*
X28292969Y-10623843D01*
X28357753Y-10489524D01*
X28363334Y-10442071D01*
X28357905Y-10404012D01*
X28337067Y-10374975D01*
X28293992Y-10355528D01*
X28221850Y-10346240D01*
X28113813Y-10347681D01*
X27963051Y-10360419D01*
X27762738Y-10385023D01*
X27506044Y-10422063D01*
X27186139Y-10472106D01*
X26796197Y-10535723D01*
X26352500Y-10609611D01*
X25811150Y-10701663D01*
X25347853Y-10783692D01*
X24956767Y-10857053D01*
X24632046Y-10923098D01*
X24367845Y-10983183D01*
X24158321Y-11038661D01*
X23997628Y-11090885D01*
X23879923Y-11141210D01*
X23799360Y-11190989D01*
X23782852Y-11204843D01*
X23720086Y-11312350D01*
X23713539Y-11444853D01*
X23337323Y-11444853D01*
X23342122Y-11432226D01*
X23391952Y-11229200D01*
X23433183Y-10989163D01*
X23464450Y-10727957D01*
X23474953Y-10587560D01*
X23709975Y-10587560D01*
X23728076Y-10685881D01*
X23772658Y-10755420D01*
X23793581Y-10779737D01*
X23813716Y-10799032D01*
X23841190Y-10812466D01*
X23884130Y-10819198D01*
X23950664Y-10818388D01*
X24048919Y-10809198D01*
X24187023Y-10790787D01*
X24373102Y-10762316D01*
X24615284Y-10722945D01*
X24921697Y-10671835D01*
X25300468Y-10608145D01*
X25463500Y-10580732D01*
X26014456Y-10487377D01*
X26487450Y-10405208D01*
X26888231Y-10332709D01*
X27222545Y-10268365D01*
X27496141Y-10210662D01*
X27714764Y-10158083D01*
X27884163Y-10109114D01*
X28010086Y-10062239D01*
X28098279Y-10015944D01*
X28154489Y-9968713D01*
X28184465Y-9919030D01*
X28193954Y-9865381D01*
X28194000Y-9860873D01*
X28179412Y-9782730D01*
X28141648Y-9657059D01*
X28101877Y-9545801D01*
X28009753Y-9305067D01*
X27731460Y-9332844D01*
X27495316Y-9359119D01*
X27208670Y-9395385D01*
X26883124Y-9439795D01*
X26530283Y-9490504D01*
X26161749Y-9545662D01*
X25789126Y-9603425D01*
X25424017Y-9661945D01*
X25078026Y-9719375D01*
X24762756Y-9773868D01*
X24489810Y-9823578D01*
X24270793Y-9866658D01*
X24117306Y-9901260D01*
X24062694Y-9916781D01*
X23894256Y-10008639D01*
X23782630Y-10155879D01*
X23723290Y-10365253D01*
X23715526Y-10434746D01*
X23709975Y-10587560D01*
X23474953Y-10587560D01*
X23484390Y-10461428D01*
X23491640Y-10205421D01*
X23484835Y-9975779D01*
X23462612Y-9788348D01*
X23423607Y-9658972D01*
X23397889Y-9621505D01*
X23346135Y-9584190D01*
X23270390Y-9562879D01*
X23150959Y-9554727D01*
X22968146Y-9556888D01*
X22953645Y-9557316D01*
X22686184Y-9568852D01*
X22343893Y-9589165D01*
X21936060Y-9617395D01*
X21471972Y-9652682D01*
X20960916Y-9694166D01*
X20412180Y-9740988D01*
X19835049Y-9792288D01*
X19238813Y-9847205D01*
X18632757Y-9904881D01*
X18026168Y-9964454D01*
X17428335Y-10025066D01*
X16848544Y-10085857D01*
X16296082Y-10145966D01*
X15780236Y-10204534D01*
X15310294Y-10260701D01*
X15176500Y-10277350D01*
X14583834Y-10351886D01*
X14571996Y-11282526D01*
X14570476Y-11735970D01*
X14184423Y-11735970D01*
X14197026Y-11711841D01*
X14216058Y-11631460D01*
X14223150Y-11539325D01*
X14224000Y-11471475D01*
X14217144Y-11277999D01*
X14189231Y-11153818D01*
X14129248Y-11084158D01*
X14026182Y-11054245D01*
X13909048Y-11049000D01*
X13778878Y-11053724D01*
X13589416Y-11066609D01*
X13365433Y-11085724D01*
X13131700Y-11109139D01*
X13116788Y-11110760D01*
X12584691Y-11164152D01*
X11974939Y-11216745D01*
X11294541Y-11268165D01*
X10550507Y-11318043D01*
X9749848Y-11366005D01*
X8899574Y-11411681D01*
X8006693Y-11454697D01*
X7078217Y-11494683D01*
X6121156Y-11531266D01*
X5142518Y-11564076D01*
X4149316Y-11592739D01*
X3915834Y-11598800D01*
X3119597Y-11619336D01*
X2403708Y-11638511D01*
X1763863Y-11656535D01*
X1195758Y-11673618D01*
X695090Y-11689971D01*
X257553Y-11705804D01*
X-121157Y-11721328D01*
X-445342Y-11736752D01*
X-719308Y-11752288D01*
X-947358Y-11768146D01*
X-1133796Y-11784536D01*
X-1282927Y-11801669D01*
X-1399054Y-11819755D01*
X-1486482Y-11839004D01*
X-1549514Y-11859627D01*
X-1565683Y-11866764D01*
X-1658580Y-11947856D01*
X-1685693Y-12057414D01*
X-1905321Y-12057414D01*
X-1905141Y-12052963D01*
X-1905000Y-12022667D01*
X-1909951Y-11854951D01*
X-1923468Y-11737093D01*
X-1943546Y-11685129D01*
X-1947333Y-11684000D01*
X-1968298Y-11723608D01*
X-1983030Y-11831743D01*
X-1989525Y-11992370D01*
X-1989666Y-12022667D01*
X-2229680Y-12022667D01*
X-2224837Y-11823319D01*
X-2215323Y-11491770D01*
X-2204740Y-11176000D01*
X-2195755Y-10959035D01*
X-1830710Y-10959035D01*
X-1827041Y-11052788D01*
X-1783060Y-11122721D01*
X-1664515Y-11184068D01*
X-1469255Y-11237332D01*
X-1195128Y-11283016D01*
X-839983Y-11321622D01*
X-592666Y-11341207D01*
X-389495Y-11351858D01*
X-112671Y-11360838D01*
X226808Y-11368139D01*
X617945Y-11373754D01*
X1049743Y-11377676D01*
X1511203Y-11379896D01*
X1991328Y-11380408D01*
X2479122Y-11379205D01*
X2963585Y-11376278D01*
X3433722Y-11371621D01*
X3878533Y-11365225D01*
X4287023Y-11357084D01*
X4648192Y-11347191D01*
X4720167Y-11344780D01*
X5343006Y-11321914D01*
X5988055Y-11295992D01*
X6648299Y-11267424D01*
X7316725Y-11236617D01*
X7986319Y-11203979D01*
X8650067Y-11169921D01*
X9300956Y-11134849D01*
X9931973Y-11099173D01*
X10536102Y-11063302D01*
X11106331Y-11027643D01*
X11635646Y-10992606D01*
X12117034Y-10958599D01*
X12543480Y-10926031D01*
X12907971Y-10895309D01*
X13203493Y-10866844D01*
X13423033Y-10841043D01*
X13462000Y-10835534D01*
X13762125Y-10782444D01*
X13982306Y-10722508D01*
X14127142Y-10653414D01*
X14201235Y-10572851D01*
X14209184Y-10478508D01*
X14204730Y-10462309D01*
X14177962Y-10413210D01*
X14127018Y-10378551D01*
X14042170Y-10357869D01*
X13913688Y-10350702D01*
X13731844Y-10356588D01*
X13486908Y-10375063D01*
X13169150Y-10405665D01*
X13119985Y-10410716D01*
X12548708Y-10466610D01*
X11973927Y-10516295D01*
X11388321Y-10560040D01*
X10784571Y-10598110D01*
X10155356Y-10630771D01*
X9493358Y-10658291D01*
X8791255Y-10680935D01*
X8041729Y-10698971D01*
X7237459Y-10712664D01*
X6371125Y-10722281D01*
X5435407Y-10728089D01*
X4422987Y-10730354D01*
X4339167Y-10730390D01*
X3592508Y-10730153D01*
X2924532Y-10728841D01*
X2329262Y-10726267D01*
X1800717Y-10722246D01*
X1332920Y-10716595D01*
X919892Y-10709127D01*
X555654Y-10699659D01*
X234228Y-10688005D01*
X-50364Y-10673980D01*
X-304102Y-10657400D01*
X-532964Y-10638080D01*
X-742929Y-10615834D01*
X-939975Y-10590479D01*
X-1130081Y-10561828D01*
X-1134392Y-10561133D01*
X-1360826Y-10532022D01*
X-1520028Y-10529754D01*
X-1606645Y-10546639D01*
X-1722830Y-10629387D01*
X-1800138Y-10772868D01*
X-1830710Y-10959035D01*
X-2195755Y-10959035D01*
X-2190175Y-10824298D01*
X-2173488Y-10547472D01*
X-2152308Y-10335732D01*
X-2144566Y-10292539D01*
X-1016000Y-10292539D01*
X-1015851Y-10310399D01*
X-1006263Y-10323172D01*
X-973521Y-10332946D01*
X-903914Y-10341809D01*
X-783727Y-10351849D01*
X-599247Y-10365153D01*
X-486833Y-10373099D01*
X-361736Y-10378588D01*
X-158930Y-10383183D01*
X114632Y-10386911D01*
X451997Y-10389803D01*
X846212Y-10391886D01*
X1290325Y-10393191D01*
X1777382Y-10393746D01*
X2300430Y-10393580D01*
X2852518Y-10392722D01*
X3426691Y-10391201D01*
X4015998Y-10389046D01*
X4613484Y-10386286D01*
X5212198Y-10382951D01*
X5805187Y-10379068D01*
X6385497Y-10374668D01*
X6946177Y-10369779D01*
X7480272Y-10364429D01*
X7980830Y-10358649D01*
X8440898Y-10352467D01*
X8853524Y-10345912D01*
X9211755Y-10339014D01*
X9508637Y-10331800D01*
X9525000Y-10331339D01*
X10201759Y-10311386D01*
X10802126Y-10292018D01*
X11334368Y-10272767D01*
X11806752Y-10253166D01*
X12227546Y-10232747D01*
X12605018Y-10211044D01*
X12947435Y-10187588D01*
X13263064Y-10161913D01*
X13560174Y-10133551D01*
X13847032Y-10102035D01*
X14075834Y-10074092D01*
X14831070Y-9980978D01*
X15659263Y-9884231D01*
X16548839Y-9785027D01*
X17488223Y-9684539D01*
X18465843Y-9583944D01*
X18809510Y-9549885D01*
X23760282Y-9549885D01*
X23786465Y-9583949D01*
X23836633Y-9606697D01*
X23898272Y-9623571D01*
X23986353Y-9631553D01*
X24109509Y-9629916D01*
X24276375Y-9617934D01*
X24495584Y-9594881D01*
X24775770Y-9560031D01*
X25125568Y-9512657D01*
X25378834Y-9477013D01*
X26006249Y-9383730D01*
X26549994Y-9294109D01*
X27010976Y-9207927D01*
X27390103Y-9124957D01*
X27688283Y-9044976D01*
X27906422Y-8967759D01*
X28045428Y-8893080D01*
X28106209Y-8820715D01*
X28109334Y-8800510D01*
X28085862Y-8749447D01*
X28010959Y-8724646D01*
X27877894Y-8726358D01*
X27679937Y-8754832D01*
X27410356Y-8810317D01*
X27326167Y-8829555D01*
X26897209Y-8924682D01*
X26478489Y-9007546D01*
X26044812Y-9082578D01*
X25570985Y-9154208D01*
X25167167Y-9209277D01*
X24775375Y-9262844D01*
X24460535Y-9310912D01*
X24215230Y-9355048D01*
X24032039Y-9396818D01*
X23903544Y-9437789D01*
X23822327Y-9479527D01*
X23800305Y-9497886D01*
X23760282Y-9549885D01*
X18809510Y-9549885D01*
X19470125Y-9484415D01*
X20489495Y-9387129D01*
X21512379Y-9293259D01*
X22527203Y-9203980D01*
X23241000Y-9143650D01*
X23861057Y-9088582D01*
X24459190Y-9028440D01*
X25029174Y-8964211D01*
X25564780Y-8896877D01*
X26059781Y-8827423D01*
X26507949Y-8756833D01*
X26903056Y-8686090D01*
X27238874Y-8616180D01*
X27509176Y-8548086D01*
X27707735Y-8482791D01*
X27828322Y-8421281D01*
X27832421Y-8418144D01*
X27920481Y-8324531D01*
X27929034Y-8248431D01*
X27858176Y-8195261D01*
X27828260Y-8186235D01*
X27708218Y-8173385D01*
X27516446Y-8174542D01*
X27264556Y-8188803D01*
X26964160Y-8215262D01*
X26626871Y-8253014D01*
X26264301Y-8301155D01*
X26162000Y-8316051D01*
X25663710Y-8386615D01*
X25115833Y-8457651D01*
X24514993Y-8529486D01*
X23857817Y-8602445D01*
X23140928Y-8676856D01*
X22360951Y-8753044D01*
X21514512Y-8831335D01*
X20598235Y-8912056D01*
X19608746Y-8995533D01*
X18542669Y-9082093D01*
X17396629Y-9172061D01*
X16954500Y-9206060D01*
X15670081Y-9302701D01*
X14426063Y-9393072D01*
X13225584Y-9477006D01*
X12071781Y-9554339D01*
X10967789Y-9624904D01*
X9916746Y-9688538D01*
X8921788Y-9745074D01*
X7986053Y-9794348D01*
X7112676Y-9836193D01*
X6304795Y-9870444D01*
X5565546Y-9896937D01*
X4898065Y-9915505D01*
X4305491Y-9925983D01*
X3790959Y-9928207D01*
X3368265Y-9922290D01*
X3051274Y-9915412D01*
X2814125Y-9913475D01*
X2652129Y-9916603D01*
X2560597Y-9924921D01*
X2534842Y-9938552D01*
X2540000Y-9944254D01*
X2635637Y-9984471D01*
X2677584Y-9990019D01*
X2740451Y-10008869D01*
X2751667Y-10029388D01*
X2734991Y-10046890D01*
X2681059Y-10062738D01*
X2584015Y-10077309D01*
X2438001Y-10090982D01*
X2237160Y-10104134D01*
X1975637Y-10117144D01*
X1647574Y-10130390D01*
X1247115Y-10144250D01*
X768402Y-10159101D01*
X719667Y-10160547D01*
X280666Y-10174105D01*
X-80616Y-10186733D01*
X-371114Y-10198958D01*
X-597762Y-10211309D01*
X-767496Y-10224311D01*
X-887250Y-10238493D01*
X-963960Y-10254382D01*
X-1004559Y-10272506D01*
X-1016000Y-10292539D01*
X-2144566Y-10292539D01*
X-2124263Y-10179287D01*
X-2086984Y-10068347D01*
X-2038100Y-9993121D01*
X-1975238Y-9943820D01*
X-1898513Y-9911457D01*
X-1791773Y-9890715D01*
X-1600962Y-9870526D01*
X-1326673Y-9850913D01*
X-969501Y-9831899D01*
X-530040Y-9813507D01*
X-8882Y-9795761D01*
X593376Y-9778684D01*
X1276143Y-9762299D01*
X2038824Y-9746629D01*
X2561167Y-9737115D01*
X3474999Y-9719298D01*
X4372350Y-9697762D01*
X5263369Y-9672065D01*
X6158203Y-9641763D01*
X7067002Y-9606416D01*
X7999912Y-9565579D01*
X8967082Y-9518811D01*
X9978660Y-9465669D01*
X11044795Y-9405711D01*
X12175634Y-9338494D01*
X13292667Y-9269182D01*
X14063079Y-9219425D01*
X14803045Y-9169453D01*
X15508338Y-9119641D01*
X16174726Y-9070366D01*
X16797982Y-9022003D01*
X17373877Y-8974928D01*
X17898180Y-8929516D01*
X18366663Y-8886143D01*
X18775097Y-8845185D01*
X19119253Y-8807016D01*
X19394901Y-8772014D01*
X19597813Y-8740552D01*
X19723759Y-8713008D01*
X19766088Y-8694232D01*
X19736630Y-8684125D01*
X19622912Y-8680977D01*
X19424923Y-8684789D01*
X19142654Y-8695562D01*
X18776093Y-8713296D01*
X18325231Y-8737992D01*
X17790058Y-8769650D01*
X17170563Y-8808272D01*
X16466735Y-8853856D01*
X15678566Y-8906405D01*
X14806044Y-8965919D01*
X13849160Y-9032398D01*
X13165667Y-9080496D01*
X12340898Y-9138626D01*
X11596564Y-9190698D01*
X10928667Y-9236962D01*
X10333211Y-9277667D01*
X9806198Y-9313067D01*
X9343632Y-9343409D01*
X8941516Y-9368947D01*
X8595853Y-9389929D01*
X8302646Y-9406608D01*
X8057898Y-9419233D01*
X7857612Y-9428055D01*
X7697791Y-9433325D01*
X7574439Y-9435294D01*
X7514167Y-9434961D01*
X7217834Y-9430009D01*
X7450667Y-9395993D01*
X7640502Y-9371590D01*
X7909676Y-9342024D01*
X8253045Y-9307696D01*
X8665463Y-9269006D01*
X9141786Y-9226354D01*
X9676869Y-9180142D01*
X10265568Y-9130768D01*
X10902738Y-9078635D01*
X11583234Y-9024142D01*
X12301912Y-8967689D01*
X13053626Y-8909678D01*
X13833233Y-8850508D01*
X14635588Y-8790580D01*
X15455545Y-8730295D01*
X16287960Y-8670053D01*
X17127689Y-8610254D01*
X17969586Y-8551298D01*
X17991827Y-8549768D01*
X21000531Y-8549768D01*
X21039447Y-8573583D01*
X21147074Y-8589482D01*
X21272500Y-8593667D01*
X21412630Y-8588469D01*
X21511738Y-8574870D01*
X21547667Y-8556625D01*
X21509815Y-8519759D01*
X21413473Y-8494635D01*
X21284461Y-8485233D01*
X21149925Y-8495316D01*
X21035599Y-8522269D01*
X21000531Y-8549768D01*
X17991827Y-8549768D01*
X18808508Y-8493588D01*
X19639309Y-8437521D01*
X20456845Y-8383500D01*
X20468167Y-8382761D01*
X21268250Y-8330087D01*
X21987498Y-8281818D01*
X22629613Y-8237659D01*
X23198296Y-8197316D01*
X23697247Y-8160495D01*
X24130169Y-8126903D01*
X24500763Y-8096245D01*
X24812730Y-8068227D01*
X25069771Y-8042556D01*
X25275588Y-8018937D01*
X25433882Y-7997076D01*
X25527000Y-7981007D01*
X25709433Y-7951810D01*
X25947505Y-7923120D01*
X26224620Y-7896015D01*
X26524179Y-7871574D01*
X26829585Y-7850873D01*
X27124241Y-7834992D01*
X27391549Y-7825006D01*
X27614911Y-7821996D01*
X27777731Y-7827038D01*
X27777731Y-7827038D01*
G37*
X27777731Y-7827038D02*
X27824131Y-7831825D01*
X28014083Y-7869630D01*
X28170625Y-7928750D01*
X28297795Y-8017322D01*
X28399630Y-8143483D01*
X28480168Y-8315367D01*
X28543446Y-8541113D01*
X28593502Y-8828854D01*
X28634374Y-9186728D01*
X28662598Y-9521407D01*
X28688906Y-9949648D01*
X28696604Y-10300196D01*
X28685454Y-10578008D01*
X28655220Y-10788040D01*
X28605666Y-10935247D01*
X28594139Y-10956367D01*
X28457138Y-11116093D01*
X28252925Y-11256580D01*
X28014634Y-11360539D01*
X27815564Y-11418893D01*
X27542690Y-11484984D01*
X27206337Y-11557027D01*
X26816828Y-11633235D01*
X26384489Y-11711820D01*
X25919645Y-11790995D01*
X25432620Y-11868975D01*
X24933739Y-11943972D01*
X24433326Y-12014199D01*
X23941707Y-12077869D01*
X23704957Y-12106390D01*
X23456134Y-12135890D01*
X23134824Y-12174511D01*
X22752548Y-12220845D01*
X22320827Y-12273480D01*
X21851184Y-12331004D01*
X21355138Y-12392008D01*
X20844213Y-12455081D01*
X20329928Y-12518812D01*
X19896667Y-12572706D01*
X19045049Y-12678052D01*
X18274510Y-12771674D01*
X17582316Y-12853853D01*
X16965735Y-12924869D01*
X16422033Y-12985003D01*
X15948477Y-13034535D01*
X15542334Y-13073745D01*
X15200871Y-13102914D01*
X14921356Y-13122321D01*
X14701054Y-13132247D01*
X14537233Y-13132972D01*
X14468277Y-13129393D01*
X14395889Y-13085512D01*
X14324793Y-12981054D01*
X14265864Y-12839564D01*
X14229978Y-12684588D01*
X14224000Y-12600543D01*
X14198930Y-12421151D01*
X14145074Y-12315577D01*
X14066148Y-12218108D01*
X13181991Y-12310621D01*
X12619984Y-12367574D01*
X12065514Y-12419781D01*
X11511257Y-12467626D01*
X10949890Y-12511496D01*
X10374090Y-12551774D01*
X9776535Y-12588847D01*
X9149901Y-12623100D01*
X8486867Y-12654917D01*
X7780108Y-12684685D01*
X7022303Y-12712788D01*
X6206127Y-12739612D01*
X5324260Y-12765542D01*
X4369376Y-12790964D01*
X3767667Y-12805906D01*
X2976042Y-12825740D01*
X2234286Y-12845598D01*
X1546266Y-12865346D01*
X915851Y-12884847D01*
X346910Y-12903964D01*
X-156691Y-12922563D01*
X-591082Y-12940508D01*
X-952396Y-12957661D01*
X-1236765Y-12973888D01*
X-1439333Y-12988963D01*
X-1602377Y-13005965D01*
X-1699241Y-13025214D01*
X-1748286Y-13053611D01*
X-1767870Y-13098058D01*
X-1770450Y-13113429D01*
X-1750789Y-13259227D01*
X-1659207Y-13399881D01*
X-1507942Y-13520969D01*
X-1367324Y-13588548D01*
X-1063048Y-13680597D01*
X-679284Y-13759573D01*
X-220257Y-13825062D01*
X309807Y-13876645D01*
X906682Y-13913909D01*
X1566141Y-13936438D01*
X2243667Y-13943810D01*
X2763815Y-13941539D01*
X3213737Y-13933258D01*
X3607727Y-13917911D01*
X3960081Y-13894441D01*
X4285094Y-13861791D01*
X4597061Y-13818906D01*
X4910277Y-13764727D01*
X5058834Y-13735697D01*
X5347371Y-13682457D01*
X5681572Y-13630154D01*
X6065539Y-13578391D01*
X6503373Y-13526771D01*
X6999176Y-13474899D01*
X7557049Y-13422379D01*
X8181095Y-13368815D01*
X8875415Y-13313810D01*
X9644111Y-13256969D01*
X10491284Y-13197895D01*
X10943167Y-13167558D01*
X11553465Y-13128275D01*
X12084131Y-13096927D01*
X12539825Y-13073518D01*
X12925210Y-13058049D01*
X13244947Y-13050526D01*
X13503697Y-13050950D01*
X13706123Y-13059326D01*
X13856885Y-13075658D01*
X13960646Y-13099947D01*
X14022066Y-13132198D01*
X14045367Y-13169809D01*
X14036902Y-13194868D01*
X13994061Y-13216842D01*
X13906434Y-13237748D01*
X13763610Y-13259603D01*
X13555178Y-13284426D01*
X13332375Y-13307962D01*
X13042432Y-13339866D01*
X12733821Y-13377603D01*
X12436631Y-13417256D01*
X12180953Y-13454910D01*
X12092617Y-13469283D01*
X11968054Y-13489337D01*
X11845628Y-13506170D01*
X11716538Y-13520105D01*
X11571982Y-13531466D01*
X11403158Y-13540573D01*
X11201264Y-13547749D01*
X10957498Y-13553317D01*
X10663058Y-13557599D01*
X10309143Y-13560917D01*
X9886950Y-13563593D01*
X9461500Y-13565633D01*
X8851281Y-13569557D01*
X8316186Y-13576037D01*
X7846697Y-13585651D01*
X7433296Y-13598978D01*
X7066462Y-13616598D01*
X6736678Y-13639090D01*
X6434425Y-13667032D01*
X6150183Y-13701004D01*
X5874434Y-13741586D01*
X5597658Y-13789355D01*
X5507723Y-13806177D01*
X5306328Y-13839470D01*
X5047386Y-13874916D01*
X4757842Y-13909215D01*
X4464640Y-13939068D01*
X4318000Y-13951876D01*
X4048874Y-13974814D01*
X3783637Y-13999227D01*
X3544440Y-14022950D01*
X3353436Y-14043818D01*
X3267187Y-14054610D01*
X3139659Y-14065538D01*
X2940525Y-14074432D01*
X2682686Y-14081326D01*
X2379043Y-14086249D01*
X2042498Y-14089235D01*
X1685952Y-14090315D01*
X1322308Y-14089520D01*
X964465Y-14086884D01*
X625327Y-14082437D01*
X317794Y-14076211D01*
X54767Y-14068239D01*
X-150851Y-14058552D01*
X-286159Y-14047182D01*
X-296333Y-14045810D01*
X-442823Y-14021956D01*
X-646681Y-13984897D01*
X-882544Y-13939417D01*
X-1125046Y-13890297D01*
X-1160905Y-13882811D01*
X-1447226Y-13818488D01*
X-1664344Y-13757310D01*
X-1827073Y-13691963D01*
X-1950228Y-13615131D01*
X-2048623Y-13519502D01*
X-2134116Y-13402338D01*
X-2178304Y-13329771D01*
X-2208578Y-13260737D01*
X-2227452Y-13177728D01*
X-2237442Y-13063234D01*
X-2241063Y-12899747D01*
X-2240830Y-12669757D01*
X-2240780Y-12659776D01*
X-2238172Y-12432278D01*
X-2232655Y-12145140D01*
X-2229680Y-12022667D01*
X-1989666Y-12022667D01*
X-1984715Y-12190383D01*
X-1971199Y-12308240D01*
X-1951120Y-12360205D01*
X-1947333Y-12361334D01*
X-1926369Y-12321725D01*
X-1911636Y-12213591D01*
X-1905321Y-12057414D01*
X-1685693Y-12057414D01*
X-1652074Y-12177532D01*
X-1562775Y-12290301D01*
X-1422849Y-12377813D01*
X-1421337Y-12378447D01*
X-1170701Y-12457478D01*
X-837794Y-12519615D01*
X-423332Y-12564731D01*
X-345524Y-12570648D01*
X-129431Y-12582189D01*
X160656Y-12591582D01*
X514089Y-12598821D01*
X920222Y-12603903D01*
X1368409Y-12606823D01*
X1848003Y-12607576D01*
X2348358Y-12606158D01*
X2858826Y-12602564D01*
X3368763Y-12596789D01*
X3867520Y-12588829D01*
X4344452Y-12578680D01*
X4572000Y-12572766D01*
X5368074Y-12549640D01*
X6094929Y-12526146D01*
X6768015Y-12501517D01*
X7402780Y-12474982D01*
X8014670Y-12445774D01*
X8619135Y-12413124D01*
X9231622Y-12376263D01*
X9867579Y-12334424D01*
X10542454Y-12286838D01*
X11006667Y-12252658D01*
X11604121Y-12207670D01*
X12122690Y-12167182D01*
X12567952Y-12129841D01*
X12945487Y-12094291D01*
X13260873Y-12059178D01*
X13519689Y-12023148D01*
X13727514Y-11984845D01*
X13889926Y-11942916D01*
X14012505Y-11896006D01*
X14100828Y-11842759D01*
X14160476Y-11781823D01*
X14184423Y-11735970D01*
X14570476Y-11735970D01*
X14578640Y-12107733D01*
X14596683Y-12400267D01*
X14624797Y-12616025D01*
X14663176Y-12757459D01*
X14692595Y-12809362D01*
X14709747Y-12832788D01*
X14725007Y-12849646D01*
X14750276Y-12859566D01*
X14797456Y-12862178D01*
X14878447Y-12857113D01*
X15005150Y-12844000D01*
X15189468Y-12822470D01*
X15443302Y-12792154D01*
X15512939Y-12783879D01*
X16190449Y-12702384D01*
X16867503Y-12618723D01*
X17538595Y-12533698D01*
X18198217Y-12448109D01*
X18840860Y-12362755D01*
X19461016Y-12278437D01*
X20053179Y-12195955D01*
X20611838Y-12116109D01*
X21131488Y-12039700D01*
X21606620Y-11967527D01*
X22031725Y-11900391D01*
X22401296Y-11839093D01*
X22709825Y-11784432D01*
X22951805Y-11737208D01*
X23121727Y-11698222D01*
X23214082Y-11668275D01*
X23222116Y-11663860D01*
X23285055Y-11582394D01*
X23337323Y-11444853D01*
X23713539Y-11444853D01*
X23763621Y-11563681D01*
X23778867Y-11580819D01*
X23856011Y-11618269D01*
X23994784Y-11635517D01*
X24198558Y-11632269D01*
X24470703Y-11608228D01*
X24814590Y-11563099D01*
X25233588Y-11496588D01*
X25717500Y-11410896D01*
X26281217Y-11304131D01*
X26764024Y-11206029D01*
X27169147Y-11115813D01*
X27499816Y-11032707D01*
X27759258Y-10955935D01*
X27950702Y-10884721D01*
X27999649Y-10862239D01*
X28168267Y-10754243D01*
X28292969Y-10623843D01*
X28357753Y-10489524D01*
X28363334Y-10442071D01*
X28357905Y-10404012D01*
X28337067Y-10374975D01*
X28293992Y-10355528D01*
X28221850Y-10346240D01*
X28113813Y-10347681D01*
X27963051Y-10360419D01*
X27762738Y-10385023D01*
X27506044Y-10422063D01*
X27186139Y-10472106D01*
X26796197Y-10535723D01*
X26352500Y-10609611D01*
X25811150Y-10701663D01*
X25347853Y-10783692D01*
X24956767Y-10857053D01*
X24632046Y-10923098D01*
X24367845Y-10983183D01*
X24158321Y-11038661D01*
X23997628Y-11090885D01*
X23879923Y-11141210D01*
X23799360Y-11190989D01*
X23782852Y-11204843D01*
X23720086Y-11312350D01*
X23713539Y-11444853D01*
X23337323Y-11444853D01*
X23342122Y-11432226D01*
X23391952Y-11229200D01*
X23433183Y-10989163D01*
X23464450Y-10727957D01*
X23474953Y-10587560D01*
X23709975Y-10587560D01*
X23728076Y-10685881D01*
X23772658Y-10755420D01*
X23793581Y-10779737D01*
X23813716Y-10799032D01*
X23841190Y-10812466D01*
X23884130Y-10819198D01*
X23950664Y-10818388D01*
X24048919Y-10809198D01*
X24187023Y-10790787D01*
X24373102Y-10762316D01*
X24615284Y-10722945D01*
X24921697Y-10671835D01*
X25300468Y-10608145D01*
X25463500Y-10580732D01*
X26014456Y-10487377D01*
X26487450Y-10405208D01*
X26888231Y-10332709D01*
X27222545Y-10268365D01*
X27496141Y-10210662D01*
X27714764Y-10158083D01*
X27884163Y-10109114D01*
X28010086Y-10062239D01*
X28098279Y-10015944D01*
X28154489Y-9968713D01*
X28184465Y-9919030D01*
X28193954Y-9865381D01*
X28194000Y-9860873D01*
X28179412Y-9782730D01*
X28141648Y-9657059D01*
X28101877Y-9545801D01*
X28009753Y-9305067D01*
X27731460Y-9332844D01*
X27495316Y-9359119D01*
X27208670Y-9395385D01*
X26883124Y-9439795D01*
X26530283Y-9490504D01*
X26161749Y-9545662D01*
X25789126Y-9603425D01*
X25424017Y-9661945D01*
X25078026Y-9719375D01*
X24762756Y-9773868D01*
X24489810Y-9823578D01*
X24270793Y-9866658D01*
X24117306Y-9901260D01*
X24062694Y-9916781D01*
X23894256Y-10008639D01*
X23782630Y-10155879D01*
X23723290Y-10365253D01*
X23715526Y-10434746D01*
X23709975Y-10587560D01*
X23474953Y-10587560D01*
X23484390Y-10461428D01*
X23491640Y-10205421D01*
X23484835Y-9975779D01*
X23462612Y-9788348D01*
X23423607Y-9658972D01*
X23397889Y-9621505D01*
X23346135Y-9584190D01*
X23270390Y-9562879D01*
X23150959Y-9554727D01*
X22968146Y-9556888D01*
X22953645Y-9557316D01*
X22686184Y-9568852D01*
X22343893Y-9589165D01*
X21936060Y-9617395D01*
X21471972Y-9652682D01*
X20960916Y-9694166D01*
X20412180Y-9740988D01*
X19835049Y-9792288D01*
X19238813Y-9847205D01*
X18632757Y-9904881D01*
X18026168Y-9964454D01*
X17428335Y-10025066D01*
X16848544Y-10085857D01*
X16296082Y-10145966D01*
X15780236Y-10204534D01*
X15310294Y-10260701D01*
X15176500Y-10277350D01*
X14583834Y-10351886D01*
X14571996Y-11282526D01*
X14570476Y-11735970D01*
X14184423Y-11735970D01*
X14197026Y-11711841D01*
X14216058Y-11631460D01*
X14223150Y-11539325D01*
X14224000Y-11471475D01*
X14217144Y-11277999D01*
X14189231Y-11153818D01*
X14129248Y-11084158D01*
X14026182Y-11054245D01*
X13909048Y-11049000D01*
X13778878Y-11053724D01*
X13589416Y-11066609D01*
X13365433Y-11085724D01*
X13131700Y-11109139D01*
X13116788Y-11110760D01*
X12584691Y-11164152D01*
X11974939Y-11216745D01*
X11294541Y-11268165D01*
X10550507Y-11318043D01*
X9749848Y-11366005D01*
X8899574Y-11411681D01*
X8006693Y-11454697D01*
X7078217Y-11494683D01*
X6121156Y-11531266D01*
X5142518Y-11564076D01*
X4149316Y-11592739D01*
X3915834Y-11598800D01*
X3119597Y-11619336D01*
X2403708Y-11638511D01*
X1763863Y-11656535D01*
X1195758Y-11673618D01*
X695090Y-11689971D01*
X257553Y-11705804D01*
X-121157Y-11721328D01*
X-445342Y-11736752D01*
X-719308Y-11752288D01*
X-947358Y-11768146D01*
X-1133796Y-11784536D01*
X-1282927Y-11801669D01*
X-1399054Y-11819755D01*
X-1486482Y-11839004D01*
X-1549514Y-11859627D01*
X-1565683Y-11866764D01*
X-1658580Y-11947856D01*
X-1685693Y-12057414D01*
X-1905321Y-12057414D01*
X-1905141Y-12052963D01*
X-1905000Y-12022667D01*
X-1909951Y-11854951D01*
X-1923468Y-11737093D01*
X-1943546Y-11685129D01*
X-1947333Y-11684000D01*
X-1968298Y-11723608D01*
X-1983030Y-11831743D01*
X-1989525Y-11992370D01*
X-1989666Y-12022667D01*
X-2229680Y-12022667D01*
X-2224837Y-11823319D01*
X-2215323Y-11491770D01*
X-2204740Y-11176000D01*
X-2195755Y-10959035D01*
X-1830710Y-10959035D01*
X-1827041Y-11052788D01*
X-1783060Y-11122721D01*
X-1664515Y-11184068D01*
X-1469255Y-11237332D01*
X-1195128Y-11283016D01*
X-839983Y-11321622D01*
X-592666Y-11341207D01*
X-389495Y-11351858D01*
X-112671Y-11360838D01*
X226808Y-11368139D01*
X617945Y-11373754D01*
X1049743Y-11377676D01*
X1511203Y-11379896D01*
X1991328Y-11380408D01*
X2479122Y-11379205D01*
X2963585Y-11376278D01*
X3433722Y-11371621D01*
X3878533Y-11365225D01*
X4287023Y-11357084D01*
X4648192Y-11347191D01*
X4720167Y-11344780D01*
X5343006Y-11321914D01*
X5988055Y-11295992D01*
X6648299Y-11267424D01*
X7316725Y-11236617D01*
X7986319Y-11203979D01*
X8650067Y-11169921D01*
X9300956Y-11134849D01*
X9931973Y-11099173D01*
X10536102Y-11063302D01*
X11106331Y-11027643D01*
X11635646Y-10992606D01*
X12117034Y-10958599D01*
X12543480Y-10926031D01*
X12907971Y-10895309D01*
X13203493Y-10866844D01*
X13423033Y-10841043D01*
X13462000Y-10835534D01*
X13762125Y-10782444D01*
X13982306Y-10722508D01*
X14127142Y-10653414D01*
X14201235Y-10572851D01*
X14209184Y-10478508D01*
X14204730Y-10462309D01*
X14177962Y-10413210D01*
X14127018Y-10378551D01*
X14042170Y-10357869D01*
X13913688Y-10350702D01*
X13731844Y-10356588D01*
X13486908Y-10375063D01*
X13169150Y-10405665D01*
X13119985Y-10410716D01*
X12548708Y-10466610D01*
X11973927Y-10516295D01*
X11388321Y-10560040D01*
X10784571Y-10598110D01*
X10155356Y-10630771D01*
X9493358Y-10658291D01*
X8791255Y-10680935D01*
X8041729Y-10698971D01*
X7237459Y-10712664D01*
X6371125Y-10722281D01*
X5435407Y-10728089D01*
X4422987Y-10730354D01*
X4339167Y-10730390D01*
X3592508Y-10730153D01*
X2924532Y-10728841D01*
X2329262Y-10726267D01*
X1800717Y-10722246D01*
X1332920Y-10716595D01*
X919892Y-10709127D01*
X555654Y-10699659D01*
X234228Y-10688005D01*
X-50364Y-10673980D01*
X-304102Y-10657400D01*
X-532964Y-10638080D01*
X-742929Y-10615834D01*
X-939975Y-10590479D01*
X-1130081Y-10561828D01*
X-1134392Y-10561133D01*
X-1360826Y-10532022D01*
X-1520028Y-10529754D01*
X-1606645Y-10546639D01*
X-1722830Y-10629387D01*
X-1800138Y-10772868D01*
X-1830710Y-10959035D01*
X-2195755Y-10959035D01*
X-2190175Y-10824298D01*
X-2173488Y-10547472D01*
X-2152308Y-10335732D01*
X-2144566Y-10292539D01*
X-1016000Y-10292539D01*
X-1015851Y-10310399D01*
X-1006263Y-10323172D01*
X-973521Y-10332946D01*
X-903914Y-10341809D01*
X-783727Y-10351849D01*
X-599247Y-10365153D01*
X-486833Y-10373099D01*
X-361736Y-10378588D01*
X-158930Y-10383183D01*
X114632Y-10386911D01*
X451997Y-10389803D01*
X846212Y-10391886D01*
X1290325Y-10393191D01*
X1777382Y-10393746D01*
X2300430Y-10393580D01*
X2852518Y-10392722D01*
X3426691Y-10391201D01*
X4015998Y-10389046D01*
X4613484Y-10386286D01*
X5212198Y-10382951D01*
X5805187Y-10379068D01*
X6385497Y-10374668D01*
X6946177Y-10369779D01*
X7480272Y-10364429D01*
X7980830Y-10358649D01*
X8440898Y-10352467D01*
X8853524Y-10345912D01*
X9211755Y-10339014D01*
X9508637Y-10331800D01*
X9525000Y-10331339D01*
X10201759Y-10311386D01*
X10802126Y-10292018D01*
X11334368Y-10272767D01*
X11806752Y-10253166D01*
X12227546Y-10232747D01*
X12605018Y-10211044D01*
X12947435Y-10187588D01*
X13263064Y-10161913D01*
X13560174Y-10133551D01*
X13847032Y-10102035D01*
X14075834Y-10074092D01*
X14831070Y-9980978D01*
X15659263Y-9884231D01*
X16548839Y-9785027D01*
X17488223Y-9684539D01*
X18465843Y-9583944D01*
X18809510Y-9549885D01*
X23760282Y-9549885D01*
X23786465Y-9583949D01*
X23836633Y-9606697D01*
X23898272Y-9623571D01*
X23986353Y-9631553D01*
X24109509Y-9629916D01*
X24276375Y-9617934D01*
X24495584Y-9594881D01*
X24775770Y-9560031D01*
X25125568Y-9512657D01*
X25378834Y-9477013D01*
X26006249Y-9383730D01*
X26549994Y-9294109D01*
X27010976Y-9207927D01*
X27390103Y-9124957D01*
X27688283Y-9044976D01*
X27906422Y-8967759D01*
X28045428Y-8893080D01*
X28106209Y-8820715D01*
X28109334Y-8800510D01*
X28085862Y-8749447D01*
X28010959Y-8724646D01*
X27877894Y-8726358D01*
X27679937Y-8754832D01*
X27410356Y-8810317D01*
X27326167Y-8829555D01*
X26897209Y-8924682D01*
X26478489Y-9007546D01*
X26044812Y-9082578D01*
X25570985Y-9154208D01*
X25167167Y-9209277D01*
X24775375Y-9262844D01*
X24460535Y-9310912D01*
X24215230Y-9355048D01*
X24032039Y-9396818D01*
X23903544Y-9437789D01*
X23822327Y-9479527D01*
X23800305Y-9497886D01*
X23760282Y-9549885D01*
X18809510Y-9549885D01*
X19470125Y-9484415D01*
X20489495Y-9387129D01*
X21512379Y-9293259D01*
X22527203Y-9203980D01*
X23241000Y-9143650D01*
X23861057Y-9088582D01*
X24459190Y-9028440D01*
X25029174Y-8964211D01*
X25564780Y-8896877D01*
X26059781Y-8827423D01*
X26507949Y-8756833D01*
X26903056Y-8686090D01*
X27238874Y-8616180D01*
X27509176Y-8548086D01*
X27707735Y-8482791D01*
X27828322Y-8421281D01*
X27832421Y-8418144D01*
X27920481Y-8324531D01*
X27929034Y-8248431D01*
X27858176Y-8195261D01*
X27828260Y-8186235D01*
X27708218Y-8173385D01*
X27516446Y-8174542D01*
X27264556Y-8188803D01*
X26964160Y-8215262D01*
X26626871Y-8253014D01*
X26264301Y-8301155D01*
X26162000Y-8316051D01*
X25663710Y-8386615D01*
X25115833Y-8457651D01*
X24514993Y-8529486D01*
X23857817Y-8602445D01*
X23140928Y-8676856D01*
X22360951Y-8753044D01*
X21514512Y-8831335D01*
X20598235Y-8912056D01*
X19608746Y-8995533D01*
X18542669Y-9082093D01*
X17396629Y-9172061D01*
X16954500Y-9206060D01*
X15670081Y-9302701D01*
X14426063Y-9393072D01*
X13225584Y-9477006D01*
X12071781Y-9554339D01*
X10967789Y-9624904D01*
X9916746Y-9688538D01*
X8921788Y-9745074D01*
X7986053Y-9794348D01*
X7112676Y-9836193D01*
X6304795Y-9870444D01*
X5565546Y-9896937D01*
X4898065Y-9915505D01*
X4305491Y-9925983D01*
X3790959Y-9928207D01*
X3368265Y-9922290D01*
X3051274Y-9915412D01*
X2814125Y-9913475D01*
X2652129Y-9916603D01*
X2560597Y-9924921D01*
X2534842Y-9938552D01*
X2540000Y-9944254D01*
X2635637Y-9984471D01*
X2677584Y-9990019D01*
X2740451Y-10008869D01*
X2751667Y-10029388D01*
X2734991Y-10046890D01*
X2681059Y-10062738D01*
X2584015Y-10077309D01*
X2438001Y-10090982D01*
X2237160Y-10104134D01*
X1975637Y-10117144D01*
X1647574Y-10130390D01*
X1247115Y-10144250D01*
X768402Y-10159101D01*
X719667Y-10160547D01*
X280666Y-10174105D01*
X-80616Y-10186733D01*
X-371114Y-10198958D01*
X-597762Y-10211309D01*
X-767496Y-10224311D01*
X-887250Y-10238493D01*
X-963960Y-10254382D01*
X-1004559Y-10272506D01*
X-1016000Y-10292539D01*
X-2144566Y-10292539D01*
X-2124263Y-10179287D01*
X-2086984Y-10068347D01*
X-2038100Y-9993121D01*
X-1975238Y-9943820D01*
X-1898513Y-9911457D01*
X-1791773Y-9890715D01*
X-1600962Y-9870526D01*
X-1326673Y-9850913D01*
X-969501Y-9831899D01*
X-530040Y-9813507D01*
X-8882Y-9795761D01*
X593376Y-9778684D01*
X1276143Y-9762299D01*
X2038824Y-9746629D01*
X2561167Y-9737115D01*
X3474999Y-9719298D01*
X4372350Y-9697762D01*
X5263369Y-9672065D01*
X6158203Y-9641763D01*
X7067002Y-9606416D01*
X7999912Y-9565579D01*
X8967082Y-9518811D01*
X9978660Y-9465669D01*
X11044795Y-9405711D01*
X12175634Y-9338494D01*
X13292667Y-9269182D01*
X14063079Y-9219425D01*
X14803045Y-9169453D01*
X15508338Y-9119641D01*
X16174726Y-9070366D01*
X16797982Y-9022003D01*
X17373877Y-8974928D01*
X17898180Y-8929516D01*
X18366663Y-8886143D01*
X18775097Y-8845185D01*
X19119253Y-8807016D01*
X19394901Y-8772014D01*
X19597813Y-8740552D01*
X19723759Y-8713008D01*
X19766088Y-8694232D01*
X19736630Y-8684125D01*
X19622912Y-8680977D01*
X19424923Y-8684789D01*
X19142654Y-8695562D01*
X18776093Y-8713296D01*
X18325231Y-8737992D01*
X17790058Y-8769650D01*
X17170563Y-8808272D01*
X16466735Y-8853856D01*
X15678566Y-8906405D01*
X14806044Y-8965919D01*
X13849160Y-9032398D01*
X13165667Y-9080496D01*
X12340898Y-9138626D01*
X11596564Y-9190698D01*
X10928667Y-9236962D01*
X10333211Y-9277667D01*
X9806198Y-9313067D01*
X9343632Y-9343409D01*
X8941516Y-9368947D01*
X8595853Y-9389929D01*
X8302646Y-9406608D01*
X8057898Y-9419233D01*
X7857612Y-9428055D01*
X7697791Y-9433325D01*
X7574439Y-9435294D01*
X7514167Y-9434961D01*
X7217834Y-9430009D01*
X7450667Y-9395993D01*
X7640502Y-9371590D01*
X7909676Y-9342024D01*
X8253045Y-9307696D01*
X8665463Y-9269006D01*
X9141786Y-9226354D01*
X9676869Y-9180142D01*
X10265568Y-9130768D01*
X10902738Y-9078635D01*
X11583234Y-9024142D01*
X12301912Y-8967689D01*
X13053626Y-8909678D01*
X13833233Y-8850508D01*
X14635588Y-8790580D01*
X15455545Y-8730295D01*
X16287960Y-8670053D01*
X17127689Y-8610254D01*
X17969586Y-8551298D01*
X17991827Y-8549768D01*
X21000531Y-8549768D01*
X21039447Y-8573583D01*
X21147074Y-8589482D01*
X21272500Y-8593667D01*
X21412630Y-8588469D01*
X21511738Y-8574870D01*
X21547667Y-8556625D01*
X21509815Y-8519759D01*
X21413473Y-8494635D01*
X21284461Y-8485233D01*
X21149925Y-8495316D01*
X21035599Y-8522269D01*
X21000531Y-8549768D01*
X17991827Y-8549768D01*
X18808508Y-8493588D01*
X19639309Y-8437521D01*
X20456845Y-8383500D01*
X20468167Y-8382761D01*
X21268250Y-8330087D01*
X21987498Y-8281818D01*
X22629613Y-8237659D01*
X23198296Y-8197316D01*
X23697247Y-8160495D01*
X24130169Y-8126903D01*
X24500763Y-8096245D01*
X24812730Y-8068227D01*
X25069771Y-8042556D01*
X25275588Y-8018937D01*
X25433882Y-7997076D01*
X25527000Y-7981007D01*
X25709433Y-7951810D01*
X25947505Y-7923120D01*
X26224620Y-7896015D01*
X26524179Y-7871574D01*
X26829585Y-7850873D01*
X27124241Y-7834992D01*
X27391549Y-7825006D01*
X27614911Y-7821996D01*
X27777731Y-7827038D01*
G36*
X-25545191Y-7973225D02*
G01*
X-25511618Y-8012102D01*
X-25559134Y-8068099D01*
X-25632343Y-8109438D01*
X-25768507Y-8195889D01*
X-25887546Y-8309122D01*
X-25968776Y-8426172D01*
X-25992666Y-8509492D01*
X-25976984Y-8606049D01*
X-25944345Y-8707328D01*
X-25926006Y-8792257D01*
X-25909179Y-8942652D01*
X-25895444Y-9139311D01*
X-25886380Y-9363035D01*
X-25884834Y-9431092D01*
X-25878015Y-9688085D01*
X-25867473Y-9874534D01*
X-25851597Y-10004538D01*
X-25828775Y-10092194D01*
X-25803458Y-10142804D01*
X-25728783Y-10224040D01*
X-25666750Y-10224111D01*
X-25619063Y-10145809D01*
X-25587425Y-9991925D01*
X-25573553Y-9765996D01*
X-25555852Y-9523600D01*
X-25514583Y-9313558D01*
X-25454503Y-9154698D01*
X-25400440Y-9080899D01*
X-25344088Y-9040488D01*
X-25298191Y-9054320D01*
X-25237944Y-9123197D01*
X-25156975Y-9278024D01*
X-25100051Y-9496665D01*
X-25070443Y-9760856D01*
X-25071424Y-10052331D01*
X-25071431Y-10052455D01*
X-25093707Y-10290164D01*
X-25132503Y-10458925D01*
X-25194117Y-10573839D01*
X-25284842Y-10650004D01*
X-25330038Y-10672714D01*
X-25411196Y-10715402D01*
X-25448036Y-10768182D01*
X-25454646Y-10860863D01*
X-25451172Y-10929007D01*
X-25451814Y-11051098D01*
X-25467549Y-11134347D01*
X-25479370Y-11151560D01*
X-25560900Y-11156196D01*
X-25681906Y-11106400D01*
X-25824894Y-11010372D01*
X-25882130Y-10962784D01*
X-25979425Y-10884227D01*
X-26025057Y-10870800D01*
X-26024684Y-10926586D01*
X-25989395Y-11040188D01*
X-25960996Y-11164328D01*
X-25958146Y-11268755D01*
X-25970494Y-11331753D01*
X-25992011Y-11331835D01*
X-26040521Y-11265575D01*
X-26050326Y-11251039D01*
X-26101915Y-11160842D01*
X-26141893Y-11053890D01*
X-26172392Y-10917024D01*
X-26195545Y-10737085D01*
X-26213484Y-10500916D01*
X-26228343Y-10195357D01*
X-26230589Y-10138834D01*
X-26237611Y-9811159D01*
X-26234544Y-9477166D01*
X-26222404Y-9151908D01*
X-26202211Y-8850438D01*
X-26174980Y-8587809D01*
X-26141730Y-8379074D01*
X-26103479Y-8239288D01*
X-26101936Y-8235529D01*
X-25998889Y-8091366D01*
X-25841969Y-7993910D01*
X-25658600Y-7958667D01*
X-25545191Y-7973225D01*
X-25545191Y-7973225D01*
G37*
X-25545191Y-7973225D02*
X-25511618Y-8012102D01*
X-25559134Y-8068099D01*
X-25632343Y-8109438D01*
X-25768507Y-8195889D01*
X-25887546Y-8309122D01*
X-25968776Y-8426172D01*
X-25992666Y-8509492D01*
X-25976984Y-8606049D01*
X-25944345Y-8707328D01*
X-25926006Y-8792257D01*
X-25909179Y-8942652D01*
X-25895444Y-9139311D01*
X-25886380Y-9363035D01*
X-25884834Y-9431092D01*
X-25878015Y-9688085D01*
X-25867473Y-9874534D01*
X-25851597Y-10004538D01*
X-25828775Y-10092194D01*
X-25803458Y-10142804D01*
X-25728783Y-10224040D01*
X-25666750Y-10224111D01*
X-25619063Y-10145809D01*
X-25587425Y-9991925D01*
X-25573553Y-9765996D01*
X-25555852Y-9523600D01*
X-25514583Y-9313558D01*
X-25454503Y-9154698D01*
X-25400440Y-9080899D01*
X-25344088Y-9040488D01*
X-25298191Y-9054320D01*
X-25237944Y-9123197D01*
X-25156975Y-9278024D01*
X-25100051Y-9496665D01*
X-25070443Y-9760856D01*
X-25071424Y-10052331D01*
X-25071431Y-10052455D01*
X-25093707Y-10290164D01*
X-25132503Y-10458925D01*
X-25194117Y-10573839D01*
X-25284842Y-10650004D01*
X-25330038Y-10672714D01*
X-25411196Y-10715402D01*
X-25448036Y-10768182D01*
X-25454646Y-10860863D01*
X-25451172Y-10929007D01*
X-25451814Y-11051098D01*
X-25467549Y-11134347D01*
X-25479370Y-11151560D01*
X-25560900Y-11156196D01*
X-25681906Y-11106400D01*
X-25824894Y-11010372D01*
X-25882130Y-10962784D01*
X-25979425Y-10884227D01*
X-26025057Y-10870800D01*
X-26024684Y-10926586D01*
X-25989395Y-11040188D01*
X-25960996Y-11164328D01*
X-25958146Y-11268755D01*
X-25970494Y-11331753D01*
X-25992011Y-11331835D01*
X-26040521Y-11265575D01*
X-26050326Y-11251039D01*
X-26101915Y-11160842D01*
X-26141893Y-11053890D01*
X-26172392Y-10917024D01*
X-26195545Y-10737085D01*
X-26213484Y-10500916D01*
X-26228343Y-10195357D01*
X-26230589Y-10138834D01*
X-26237611Y-9811159D01*
X-26234544Y-9477166D01*
X-26222404Y-9151908D01*
X-26202211Y-8850438D01*
X-26174980Y-8587809D01*
X-26141730Y-8379074D01*
X-26103479Y-8239288D01*
X-26101936Y-8235529D01*
X-25998889Y-8091366D01*
X-25841969Y-7993910D01*
X-25658600Y-7958667D01*
X-25545191Y-7973225D01*
G36*
X5421496Y-9498850D02*
G01*
X5606360Y-9503431D01*
X5774071Y-9511170D01*
X5907137Y-9521482D01*
X5988068Y-9533782D01*
X6002641Y-9545498D01*
X5949717Y-9556168D01*
X5831586Y-9565337D01*
X5667701Y-9572573D01*
X5477513Y-9577450D01*
X5280477Y-9579536D01*
X5096043Y-9578403D01*
X4943666Y-9573622D01*
X4889500Y-9570063D01*
X4593167Y-9545336D01*
X4938891Y-9509908D01*
X5070270Y-9501503D01*
X5236969Y-9498013D01*
X5421496Y-9498850D01*
X5421496Y-9498850D01*
G37*
X5421496Y-9498850D02*
X5606360Y-9503431D01*
X5774071Y-9511170D01*
X5907137Y-9521482D01*
X5988068Y-9533782D01*
X6002641Y-9545498D01*
X5949717Y-9556168D01*
X5831586Y-9565337D01*
X5667701Y-9572573D01*
X5477513Y-9577450D01*
X5280477Y-9579536D01*
X5096043Y-9578403D01*
X4943666Y-9573622D01*
X4889500Y-9570063D01*
X4593167Y-9545336D01*
X4938891Y-9509908D01*
X5070270Y-9501503D01*
X5236969Y-9498013D01*
X5421496Y-9498850D01*
G36*
X-10988663Y-412636D02*
G01*
X-10932660Y-446032D01*
X-10837395Y-557660D01*
X-10779904Y-713193D01*
X-10769936Y-876644D01*
X-10791817Y-965983D01*
X-10885992Y-1099342D01*
X-11018099Y-1170063D01*
X-11165701Y-1174644D01*
X-11306360Y-1109583D01*
X-11362737Y-1055085D01*
X-11448828Y-905107D01*
X-11472105Y-751439D01*
X-11469028Y-736598D01*
X-11345333Y-736598D01*
X-11315339Y-898028D01*
X-11232769Y-1009632D01*
X-11108742Y-1057507D01*
X-11088025Y-1058334D01*
X-10978316Y-1033907D01*
X-10914870Y-953757D01*
X-10891383Y-823614D01*
X-10920881Y-689022D01*
X-10991182Y-577917D01*
X-11090101Y-518238D01*
X-11105984Y-515525D01*
X-11240638Y-529914D01*
X-11321103Y-609088D01*
X-11345333Y-736598D01*
X-11469028Y-736598D01*
X-11442349Y-607935D01*
X-11369345Y-488449D01*
X-11262874Y-406834D01*
X-11132719Y-376946D01*
X-10988663Y-412636D01*
X-10988663Y-412636D01*
G37*
X-10988663Y-412636D02*
X-10932660Y-446032D01*
X-10837395Y-557660D01*
X-10779904Y-713193D01*
X-10769936Y-876644D01*
X-10791817Y-965983D01*
X-10885992Y-1099342D01*
X-11018099Y-1170063D01*
X-11165701Y-1174644D01*
X-11306360Y-1109583D01*
X-11362737Y-1055085D01*
X-11448828Y-905107D01*
X-11472105Y-751439D01*
X-11469028Y-736598D01*
X-11345333Y-736598D01*
X-11315339Y-898028D01*
X-11232769Y-1009632D01*
X-11108742Y-1057507D01*
X-11088025Y-1058334D01*
X-10978316Y-1033907D01*
X-10914870Y-953757D01*
X-10891383Y-823614D01*
X-10920881Y-689022D01*
X-10991182Y-577917D01*
X-11090101Y-518238D01*
X-11105984Y-515525D01*
X-11240638Y-529914D01*
X-11321103Y-609088D01*
X-11345333Y-736598D01*
X-11469028Y-736598D01*
X-11442349Y-607935D01*
X-11369345Y-488449D01*
X-11262874Y-406834D01*
X-11132719Y-376946D01*
X-10988663Y-412636D01*
G36*
X-10170584Y-238442D02*
G01*
X-10164766Y-292650D01*
X-10206450Y-335111D01*
X-10234083Y-340013D01*
X-10326456Y-365837D01*
X-10387937Y-401755D01*
X-10434847Y-452229D01*
X-10451414Y-525431D01*
X-10442808Y-648956D01*
X-10439327Y-676091D01*
X-10418681Y-811292D01*
X-10397899Y-915932D01*
X-10388874Y-947553D01*
X-10402097Y-1009241D01*
X-10432734Y-1030375D01*
X-10489541Y-1037348D01*
X-10499753Y-1025255D01*
X-10509027Y-972585D01*
X-10532806Y-858560D01*
X-10566624Y-704341D01*
X-10580391Y-643082D01*
X-10659941Y-291330D01*
X-10568721Y-302269D01*
X-10458931Y-290711D01*
X-10385033Y-262437D01*
X-10286420Y-222385D01*
X-10226283Y-211667D01*
X-10170584Y-238442D01*
X-10170584Y-238442D01*
G37*
X-10170584Y-238442D02*
X-10164766Y-292650D01*
X-10206450Y-335111D01*
X-10234083Y-340013D01*
X-10326456Y-365837D01*
X-10387937Y-401755D01*
X-10434847Y-452229D01*
X-10451414Y-525431D01*
X-10442808Y-648956D01*
X-10439327Y-676091D01*
X-10418681Y-811292D01*
X-10397899Y-915932D01*
X-10388874Y-947553D01*
X-10402097Y-1009241D01*
X-10432734Y-1030375D01*
X-10489541Y-1037348D01*
X-10499753Y-1025255D01*
X-10509027Y-972585D01*
X-10532806Y-858560D01*
X-10566624Y-704341D01*
X-10580391Y-643082D01*
X-10659941Y-291330D01*
X-10568721Y-302269D01*
X-10458931Y-290711D01*
X-10385033Y-262437D01*
X-10286420Y-222385D01*
X-10226283Y-211667D01*
X-10170584Y-238442D01*
G36*
X-9530859Y236455D02*
G01*
X-9501603Y183672D01*
X-9473243Y79338D01*
X-9465707Y37935D01*
X-9444921Y-69298D01*
X-9421027Y-106765D01*
X-9381248Y-88813D01*
X-9364896Y-75271D01*
X-9223332Y4912D01*
X-9088509Y8843D01*
X-8971909Y-55193D01*
X-8885013Y-178916D01*
X-8839302Y-354042D01*
X-8835447Y-457223D01*
X-8871137Y-614314D01*
X-8970227Y-719593D01*
X-9136395Y-776219D01*
X-9217968Y-785643D01*
X-9429181Y-800716D01*
X-9516564Y-362131D01*
X-9383429Y-362131D01*
X-9348627Y-534942D01*
X-9329390Y-603250D01*
X-9275418Y-657721D01*
X-9179405Y-677511D01*
X-9077741Y-659834D01*
X-9025466Y-626534D01*
X-8975779Y-531390D01*
X-8970463Y-410303D01*
X-9001117Y-285769D01*
X-9059338Y-180284D01*
X-9136726Y-116342D01*
X-9217123Y-113365D01*
X-9321225Y-166822D01*
X-9375478Y-244584D01*
X-9383429Y-362131D01*
X-9516564Y-362131D01*
X-9522404Y-332821D01*
X-9568943Y-74266D01*
X-9589677Y106396D01*
X-9584646Y211897D01*
X-9553892Y244970D01*
X-9530859Y236455D01*
X-9530859Y236455D01*
G37*
X-9530859Y236455D02*
X-9501603Y183672D01*
X-9473243Y79338D01*
X-9465707Y37935D01*
X-9444921Y-69298D01*
X-9421027Y-106765D01*
X-9381248Y-88813D01*
X-9364896Y-75271D01*
X-9223332Y4912D01*
X-9088509Y8843D01*
X-8971909Y-55193D01*
X-8885013Y-178916D01*
X-8839302Y-354042D01*
X-8835447Y-457223D01*
X-8871137Y-614314D01*
X-8970227Y-719593D01*
X-9136395Y-776219D01*
X-9217968Y-785643D01*
X-9429181Y-800716D01*
X-9516564Y-362131D01*
X-9383429Y-362131D01*
X-9348627Y-534942D01*
X-9329390Y-603250D01*
X-9275418Y-657721D01*
X-9179405Y-677511D01*
X-9077741Y-659834D01*
X-9025466Y-626534D01*
X-8975779Y-531390D01*
X-8970463Y-410303D01*
X-9001117Y-285769D01*
X-9059338Y-180284D01*
X-9136726Y-116342D01*
X-9217123Y-113365D01*
X-9321225Y-166822D01*
X-9375478Y-244584D01*
X-9383429Y-362131D01*
X-9516564Y-362131D01*
X-9522404Y-332821D01*
X-9568943Y-74266D01*
X-9589677Y106396D01*
X-9584646Y211897D01*
X-9553892Y244970D01*
X-9530859Y236455D01*
G36*
X-8092853Y175737D02*
G01*
X-8065649Y116416D01*
X-8009547Y-137997D01*
X-7974314Y-320753D01*
X-7959487Y-442132D01*
X-7964602Y-512412D01*
X-7989198Y-541872D01*
X-8032810Y-540791D01*
X-8036092Y-539961D01*
X-8130642Y-547215D01*
X-8192350Y-577357D01*
X-8321674Y-629730D01*
X-8452909Y-616058D01*
X-8527079Y-568540D01*
X-8592218Y-470930D01*
X-8614427Y-409790D01*
X-8660266Y-200886D01*
X-8686919Y-59221D01*
X-8696110Y30014D01*
X-8689566Y81623D01*
X-8674450Y105479D01*
X-8623480Y117003D01*
X-8578207Y46227D01*
X-8539828Y-104605D01*
X-8529745Y-165754D01*
X-8486528Y-359653D01*
X-8424667Y-473437D01*
X-8340113Y-510392D01*
X-8228817Y-473801D01*
X-8184768Y-445613D01*
X-8137595Y-406841D01*
X-8116845Y-360546D01*
X-8120223Y-283262D01*
X-8145437Y-151527D01*
X-8152695Y-117529D01*
X-8187351Y46173D01*
X-8204430Y143983D01*
X-8203791Y192862D01*
X-8185295Y209770D01*
X-8149973Y211666D01*
X-8092853Y175737D01*
X-8092853Y175737D01*
G37*
X-8092853Y175737D02*
X-8065649Y116416D01*
X-8009547Y-137997D01*
X-7974314Y-320753D01*
X-7959487Y-442132D01*
X-7964602Y-512412D01*
X-7989198Y-541872D01*
X-8032810Y-540791D01*
X-8036092Y-539961D01*
X-8130642Y-547215D01*
X-8192350Y-577357D01*
X-8321674Y-629730D01*
X-8452909Y-616058D01*
X-8527079Y-568540D01*
X-8592218Y-470930D01*
X-8614427Y-409790D01*
X-8660266Y-200886D01*
X-8686919Y-59221D01*
X-8696110Y30014D01*
X-8689566Y81623D01*
X-8674450Y105479D01*
X-8623480Y117003D01*
X-8578207Y46227D01*
X-8539828Y-104605D01*
X-8529745Y-165754D01*
X-8486528Y-359653D01*
X-8424667Y-473437D01*
X-8340113Y-510392D01*
X-8228817Y-473801D01*
X-8184768Y-445613D01*
X-8137595Y-406841D01*
X-8116845Y-360546D01*
X-8120223Y-283262D01*
X-8145437Y-151527D01*
X-8152695Y-117529D01*
X-8187351Y46173D01*
X-8204430Y143983D01*
X-8203791Y192862D01*
X-8185295Y209770D01*
X-8149973Y211666D01*
X-8092853Y175737D01*
G36*
X-7389160Y327228D02*
G01*
X-7315885Y287684D01*
X-7307668Y273368D01*
X-7305032Y231239D01*
X-7355778Y223733D01*
X-7419555Y233397D01*
X-7547143Y233671D01*
X-7646356Y193092D01*
X-7696149Y124325D01*
X-7691707Y69622D01*
X-7640789Y20681D01*
X-7527950Y969D01*
X-7481628Y0D01*
X-7356500Y-11092D01*
X-7264567Y-38854D01*
X-7247466Y-50800D01*
X-7199441Y-151456D01*
X-7219999Y-268157D01*
X-7304291Y-374798D01*
X-7308209Y-377928D01*
X-7410620Y-432686D01*
X-7531139Y-462575D01*
X-7644164Y-466181D01*
X-7724092Y-442090D01*
X-7747000Y-402167D01*
X-7714047Y-354682D01*
X-7609720Y-338703D01*
X-7602296Y-338667D01*
X-7440920Y-325392D01*
X-7351136Y-282649D01*
X-7323666Y-207138D01*
X-7342588Y-151043D01*
X-7413509Y-128960D01*
X-7469077Y-127000D01*
X-7660637Y-108107D01*
X-7779622Y-50078D01*
X-7829558Y49111D01*
X-7831666Y81218D01*
X-7795303Y213316D01*
X-7737580Y272766D01*
X-7630363Y319726D01*
X-7504104Y337895D01*
X-7389160Y327228D01*
X-7389160Y327228D01*
G37*
X-7389160Y327228D02*
X-7315885Y287684D01*
X-7307668Y273368D01*
X-7305032Y231239D01*
X-7355778Y223733D01*
X-7419555Y233397D01*
X-7547143Y233671D01*
X-7646356Y193092D01*
X-7696149Y124325D01*
X-7691707Y69622D01*
X-7640789Y20681D01*
X-7527950Y969D01*
X-7481628Y0D01*
X-7356500Y-11092D01*
X-7264567Y-38854D01*
X-7247466Y-50800D01*
X-7199441Y-151456D01*
X-7219999Y-268157D01*
X-7304291Y-374798D01*
X-7308209Y-377928D01*
X-7410620Y-432686D01*
X-7531139Y-462575D01*
X-7644164Y-466181D01*
X-7724092Y-442090D01*
X-7747000Y-402167D01*
X-7714047Y-354682D01*
X-7609720Y-338703D01*
X-7602296Y-338667D01*
X-7440920Y-325392D01*
X-7351136Y-282649D01*
X-7323666Y-207138D01*
X-7342588Y-151043D01*
X-7413509Y-128960D01*
X-7469077Y-127000D01*
X-7660637Y-108107D01*
X-7779622Y-50078D01*
X-7829558Y49111D01*
X-7831666Y81218D01*
X-7795303Y213316D01*
X-7737580Y272766D01*
X-7630363Y319726D01*
X-7504104Y337895D01*
X-7389160Y327228D01*
G36*
X-7039461Y634469D02*
G01*
X-7008107Y564162D01*
X-6974924Y488796D01*
X-6909232Y469603D01*
X-6856059Y474981D01*
X-6759406Y470763D01*
X-6730974Y434518D01*
X-6773612Y388025D01*
X-6841349Y362483D01*
X-6907719Y339438D01*
X-6935004Y297906D01*
X-6932606Y212240D01*
X-6922610Y140814D01*
X-6894889Y-19103D01*
X-6864125Y-112321D01*
X-6819334Y-156436D01*
X-6749530Y-169041D01*
X-6728969Y-169334D01*
X-6629736Y-183443D01*
X-6582341Y-216840D01*
X-6600007Y-256128D01*
X-6628872Y-270731D01*
X-6759985Y-295383D01*
X-6881056Y-277424D01*
X-6934312Y-245421D01*
X-6970158Y-178122D01*
X-7009804Y-57205D01*
X-7035915Y50912D01*
X-7074358Y194182D01*
X-7116142Y279519D01*
X-7141636Y296333D01*
X-7190356Y330398D01*
X-7196666Y359833D01*
X-7173381Y416162D01*
X-7153527Y423333D01*
X-7129335Y457787D01*
X-7135509Y523429D01*
X-7134154Y616218D01*
X-7097864Y647611D01*
X-7039461Y634469D01*
X-7039461Y634469D01*
G37*
X-7039461Y634469D02*
X-7008107Y564162D01*
X-6974924Y488796D01*
X-6909232Y469603D01*
X-6856059Y474981D01*
X-6759406Y470763D01*
X-6730974Y434518D01*
X-6773612Y388025D01*
X-6841349Y362483D01*
X-6907719Y339438D01*
X-6935004Y297906D01*
X-6932606Y212240D01*
X-6922610Y140814D01*
X-6894889Y-19103D01*
X-6864125Y-112321D01*
X-6819334Y-156436D01*
X-6749530Y-169041D01*
X-6728969Y-169334D01*
X-6629736Y-183443D01*
X-6582341Y-216840D01*
X-6600007Y-256128D01*
X-6628872Y-270731D01*
X-6759985Y-295383D01*
X-6881056Y-277424D01*
X-6934312Y-245421D01*
X-6970158Y-178122D01*
X-7009804Y-57205D01*
X-7035915Y50912D01*
X-7074358Y194182D01*
X-7116142Y279519D01*
X-7141636Y296333D01*
X-7190356Y330398D01*
X-7196666Y359833D01*
X-7173381Y416162D01*
X-7153527Y423333D01*
X-7129335Y457787D01*
X-7135509Y523429D01*
X-7134154Y616218D01*
X-7097864Y647611D01*
X-7039461Y634469D01*
G36*
X-12219315Y1363525D02*
G01*
X-12186514Y1352394D01*
X-12037742Y1248816D01*
X-11940617Y1095309D01*
X-11901084Y913215D01*
X-11925085Y723876D01*
X-11978515Y605477D01*
X-12062577Y506366D01*
X-12187296Y436671D01*
X-12282374Y404393D01*
X-12446975Y361571D01*
X-12574123Y340156D01*
X-12646911Y342423D01*
X-12657666Y353939D01*
X-12665599Y399147D01*
X-12687030Y509270D01*
X-12718411Y666288D01*
X-12745782Y801253D01*
X-12780514Y986681D01*
X-12804310Y1144208D01*
X-12807477Y1178428D01*
X-12665679Y1178428D01*
X-12662173Y1066790D01*
X-12630596Y888615D01*
X-12590847Y687584D01*
X-12559142Y557842D01*
X-12524496Y488177D01*
X-12475924Y467378D01*
X-12402440Y484233D01*
X-12293059Y527530D01*
X-12281397Y532213D01*
X-12137548Y626139D01*
X-12055535Y754748D01*
X-12031826Y899481D01*
X-12062891Y1041778D01*
X-12145200Y1163080D01*
X-12275221Y1244829D01*
X-12421629Y1269352D01*
X-12553997Y1264059D01*
X-12632483Y1238968D01*
X-12665679Y1178428D01*
X-12807477Y1178428D01*
X-12814432Y1253559D01*
X-12811906Y1290607D01*
X-12755689Y1333940D01*
X-12641811Y1365518D01*
X-12496782Y1382720D01*
X-12347113Y1382929D01*
X-12219315Y1363525D01*
X-12219315Y1363525D01*
G37*
X-12219315Y1363525D02*
X-12186514Y1352394D01*
X-12037742Y1248816D01*
X-11940617Y1095309D01*
X-11901084Y913215D01*
X-11925085Y723876D01*
X-11978515Y605477D01*
X-12062577Y506366D01*
X-12187296Y436671D01*
X-12282374Y404393D01*
X-12446975Y361571D01*
X-12574123Y340156D01*
X-12646911Y342423D01*
X-12657666Y353939D01*
X-12665599Y399147D01*
X-12687030Y509270D01*
X-12718411Y666288D01*
X-12745782Y801253D01*
X-12780514Y986681D01*
X-12804310Y1144208D01*
X-12807477Y1178428D01*
X-12665679Y1178428D01*
X-12662173Y1066790D01*
X-12630596Y888615D01*
X-12590847Y687584D01*
X-12559142Y557842D01*
X-12524496Y488177D01*
X-12475924Y467378D01*
X-12402440Y484233D01*
X-12293059Y527530D01*
X-12281397Y532213D01*
X-12137548Y626139D01*
X-12055535Y754748D01*
X-12031826Y899481D01*
X-12062891Y1041778D01*
X-12145200Y1163080D01*
X-12275221Y1244829D01*
X-12421629Y1269352D01*
X-12553997Y1264059D01*
X-12632483Y1238968D01*
X-12665679Y1178428D01*
X-12807477Y1178428D01*
X-12814432Y1253559D01*
X-12811906Y1290607D01*
X-12755689Y1333940D01*
X-12641811Y1365518D01*
X-12496782Y1382720D01*
X-12347113Y1382929D01*
X-12219315Y1363525D01*
G36*
X-11216784Y1339664D02*
G01*
X-11119994Y1261338D01*
X-11069088Y1135307D01*
X-11058377Y1072459D01*
X-11076246Y1033337D01*
X-11139801Y1005767D01*
X-11266146Y977574D01*
X-11300167Y970846D01*
X-11439119Y938905D01*
X-11541284Y906825D01*
X-11580742Y884833D01*
X-11571263Y831032D01*
X-11513161Y762332D01*
X-11432840Y703074D01*
X-11356703Y677595D01*
X-11355916Y677594D01*
X-11266652Y696787D01*
X-11160578Y741094D01*
X-11063067Y789532D01*
X-11018965Y798038D01*
X-11007116Y766780D01*
X-11006666Y742323D01*
X-11043947Y670618D01*
X-11139705Y620118D01*
X-11269814Y593451D01*
X-11410147Y593245D01*
X-11536578Y622129D01*
X-11618945Y675615D01*
X-11671060Y769727D01*
X-11708756Y902409D01*
X-11714805Y943036D01*
X-11706582Y1073112D01*
X-11599333Y1073112D01*
X-11574176Y1035749D01*
X-11492903Y1031172D01*
X-11346812Y1059689D01*
X-11250115Y1085503D01*
X-11200310Y1117207D01*
X-11216675Y1182136D01*
X-11219854Y1188176D01*
X-11294312Y1253148D01*
X-11397238Y1263415D01*
X-11500725Y1227438D01*
X-11576865Y1153679D01*
X-11599333Y1073112D01*
X-11706582Y1073112D01*
X-11703150Y1127401D01*
X-11627208Y1264680D01*
X-11494752Y1345383D01*
X-11370789Y1363133D01*
X-11216784Y1339664D01*
X-11216784Y1339664D01*
G37*
X-11216784Y1339664D02*
X-11119994Y1261338D01*
X-11069088Y1135307D01*
X-11058377Y1072459D01*
X-11076246Y1033337D01*
X-11139801Y1005767D01*
X-11266146Y977574D01*
X-11300167Y970846D01*
X-11439119Y938905D01*
X-11541284Y906825D01*
X-11580742Y884833D01*
X-11571263Y831032D01*
X-11513161Y762332D01*
X-11432840Y703074D01*
X-11356703Y677595D01*
X-11355916Y677594D01*
X-11266652Y696787D01*
X-11160578Y741094D01*
X-11063067Y789532D01*
X-11018965Y798038D01*
X-11007116Y766780D01*
X-11006666Y742323D01*
X-11043947Y670618D01*
X-11139705Y620118D01*
X-11269814Y593451D01*
X-11410147Y593245D01*
X-11536578Y622129D01*
X-11618945Y675615D01*
X-11671060Y769727D01*
X-11708756Y902409D01*
X-11714805Y943036D01*
X-11706582Y1073112D01*
X-11599333Y1073112D01*
X-11574176Y1035749D01*
X-11492903Y1031172D01*
X-11346812Y1059689D01*
X-11250115Y1085503D01*
X-11200310Y1117207D01*
X-11216675Y1182136D01*
X-11219854Y1188176D01*
X-11294312Y1253148D01*
X-11397238Y1263415D01*
X-11500725Y1227438D01*
X-11576865Y1153679D01*
X-11599333Y1073112D01*
X-11706582Y1073112D01*
X-11703150Y1127401D01*
X-11627208Y1264680D01*
X-11494752Y1345383D01*
X-11370789Y1363133D01*
X-11216784Y1339664D01*
G36*
X-10641839Y1813255D02*
G01*
X-10565064Y1776529D01*
X-10561724Y1727207D01*
X-10629278Y1690059D01*
X-10654907Y1685804D01*
X-10750563Y1652787D01*
X-10787902Y1572787D01*
X-10789161Y1506100D01*
X-10750741Y1488687D01*
X-10671485Y1502068D01*
X-10578619Y1513292D01*
X-10543499Y1486443D01*
X-10541000Y1463863D01*
X-10577299Y1409385D01*
X-10646833Y1397000D01*
X-10706732Y1390555D01*
X-10739753Y1361365D01*
X-10747547Y1294651D01*
X-10731765Y1175632D01*
X-10694058Y989526D01*
X-10692927Y984250D01*
X-10664462Y838039D01*
X-10658092Y756734D01*
X-10673753Y723523D01*
X-10691916Y719666D01*
X-10755772Y740234D01*
X-10765722Y751416D01*
X-10782015Y806458D01*
X-10807405Y920297D01*
X-10836406Y1068333D01*
X-10836513Y1068916D01*
X-10877883Y1246032D01*
X-10921062Y1339223D01*
X-10947960Y1354666D01*
X-11001148Y1379133D01*
X-11006666Y1397000D01*
X-10974452Y1438103D01*
X-10964333Y1439333D01*
X-10934521Y1476097D01*
X-10922001Y1564581D01*
X-10922000Y1565357D01*
X-10886616Y1683316D01*
X-10798654Y1774866D01*
X-10685398Y1815866D01*
X-10641839Y1813255D01*
X-10641839Y1813255D01*
G37*
X-10641839Y1813255D02*
X-10565064Y1776529D01*
X-10561724Y1727207D01*
X-10629278Y1690059D01*
X-10654907Y1685804D01*
X-10750563Y1652787D01*
X-10787902Y1572787D01*
X-10789161Y1506100D01*
X-10750741Y1488687D01*
X-10671485Y1502068D01*
X-10578619Y1513292D01*
X-10543499Y1486443D01*
X-10541000Y1463863D01*
X-10577299Y1409385D01*
X-10646833Y1397000D01*
X-10706732Y1390555D01*
X-10739753Y1361365D01*
X-10747547Y1294651D01*
X-10731765Y1175632D01*
X-10694058Y989526D01*
X-10692927Y984250D01*
X-10664462Y838039D01*
X-10658092Y756734D01*
X-10673753Y723523D01*
X-10691916Y719666D01*
X-10755772Y740234D01*
X-10765722Y751416D01*
X-10782015Y806458D01*
X-10807405Y920297D01*
X-10836406Y1068333D01*
X-10836513Y1068916D01*
X-10877883Y1246032D01*
X-10921062Y1339223D01*
X-10947960Y1354666D01*
X-11001148Y1379133D01*
X-11006666Y1397000D01*
X-10974452Y1438103D01*
X-10964333Y1439333D01*
X-10934521Y1476097D01*
X-10922001Y1564581D01*
X-10922000Y1565357D01*
X-10886616Y1683316D01*
X-10798654Y1774866D01*
X-10685398Y1815866D01*
X-10641839Y1813255D01*
G36*
X-9944733Y1628691D02*
G01*
X-9870150Y1584720D01*
X-9868303Y1539159D01*
X-9930351Y1513079D01*
X-9992336Y1515215D01*
X-10135473Y1503237D01*
X-10234149Y1429290D01*
X-10280083Y1307956D01*
X-10264994Y1153814D01*
X-10238242Y1082305D01*
X-10156718Y976708D01*
X-10043349Y949255D01*
X-9910218Y992652D01*
X-9804310Y1043571D01*
X-9752822Y1053489D01*
X-9737163Y1024271D01*
X-9736666Y1010083D01*
X-9773705Y932295D01*
X-9868513Y878576D01*
X-9996632Y852826D01*
X-10133603Y858944D01*
X-10254967Y900831D01*
X-10286505Y922420D01*
X-10363752Y1030945D01*
X-10402735Y1199368D01*
X-10410083Y1335267D01*
X-10387908Y1425038D01*
X-10331025Y1501032D01*
X-10192624Y1601882D01*
X-10038597Y1640914D01*
X-9944733Y1628691D01*
X-9944733Y1628691D01*
G37*
X-9944733Y1628691D02*
X-9870150Y1584720D01*
X-9868303Y1539159D01*
X-9930351Y1513079D01*
X-9992336Y1515215D01*
X-10135473Y1503237D01*
X-10234149Y1429290D01*
X-10280083Y1307956D01*
X-10264994Y1153814D01*
X-10238242Y1082305D01*
X-10156718Y976708D01*
X-10043349Y949255D01*
X-9910218Y992652D01*
X-9804310Y1043571D01*
X-9752822Y1053489D01*
X-9737163Y1024271D01*
X-9736666Y1010083D01*
X-9773705Y932295D01*
X-9868513Y878576D01*
X-9996632Y852826D01*
X-10133603Y858944D01*
X-10254967Y900831D01*
X-10286505Y922420D01*
X-10363752Y1030945D01*
X-10402735Y1199368D01*
X-10410083Y1335267D01*
X-10387908Y1425038D01*
X-10331025Y1501032D01*
X-10192624Y1601882D01*
X-10038597Y1640914D01*
X-9944733Y1628691D01*
G36*
X-9210663Y1746364D02*
G01*
X-9154660Y1712968D01*
X-9059395Y1601340D01*
X-9001904Y1445807D01*
X-8991936Y1282356D01*
X-9013817Y1193017D01*
X-9107992Y1059658D01*
X-9240099Y988937D01*
X-9387701Y984356D01*
X-9528360Y1049417D01*
X-9584737Y1103915D01*
X-9670828Y1253893D01*
X-9694105Y1407561D01*
X-9691709Y1419119D01*
X-9567333Y1419119D01*
X-9538514Y1258687D01*
X-9459002Y1150872D01*
X-9339220Y1107857D01*
X-9301943Y1108871D01*
X-9194322Y1141939D01*
X-9136906Y1227163D01*
X-9134462Y1234310D01*
X-9123852Y1375156D01*
X-9160792Y1498893D01*
X-9216614Y1602444D01*
X-9284004Y1645194D01*
X-9345040Y1651000D01*
X-9477119Y1624243D01*
X-9549080Y1539920D01*
X-9567333Y1419119D01*
X-9691709Y1419119D01*
X-9664349Y1551065D01*
X-9591345Y1670551D01*
X-9484874Y1752166D01*
X-9354719Y1782054D01*
X-9210663Y1746364D01*
X-9210663Y1746364D01*
G37*
X-9210663Y1746364D02*
X-9154660Y1712968D01*
X-9059395Y1601340D01*
X-9001904Y1445807D01*
X-8991936Y1282356D01*
X-9013817Y1193017D01*
X-9107992Y1059658D01*
X-9240099Y988937D01*
X-9387701Y984356D01*
X-9528360Y1049417D01*
X-9584737Y1103915D01*
X-9670828Y1253893D01*
X-9694105Y1407561D01*
X-9691709Y1419119D01*
X-9567333Y1419119D01*
X-9538514Y1258687D01*
X-9459002Y1150872D01*
X-9339220Y1107857D01*
X-9301943Y1108871D01*
X-9194322Y1141939D01*
X-9136906Y1227163D01*
X-9134462Y1234310D01*
X-9123852Y1375156D01*
X-9160792Y1498893D01*
X-9216614Y1602444D01*
X-9284004Y1645194D01*
X-9345040Y1651000D01*
X-9477119Y1624243D01*
X-9549080Y1539920D01*
X-9567333Y1419119D01*
X-9691709Y1419119D01*
X-9664349Y1551065D01*
X-9591345Y1670551D01*
X-9484874Y1752166D01*
X-9354719Y1782054D01*
X-9210663Y1746364D01*
G36*
X-8319074Y1926970D02*
G01*
X-8261064Y1891140D01*
X-8232676Y1829190D01*
X-8197500Y1715531D01*
X-8161334Y1575085D01*
X-8129978Y1432775D01*
X-8109230Y1313524D01*
X-8104887Y1242254D01*
X-8108058Y1233497D01*
X-8161121Y1224024D01*
X-8215375Y1282422D01*
X-8259507Y1392823D01*
X-8275033Y1467716D01*
X-8301308Y1604867D01*
X-8332313Y1715384D01*
X-8345334Y1746250D01*
X-8419945Y1808066D01*
X-8526395Y1812678D01*
X-8633281Y1759174D01*
X-8638285Y1754765D01*
X-8671177Y1719717D01*
X-8688062Y1676849D01*
X-8688163Y1609245D01*
X-8670704Y1499988D01*
X-8634910Y1332164D01*
X-8614792Y1242663D01*
X-8622919Y1156477D01*
X-8657036Y1127741D01*
X-8716137Y1140261D01*
X-8741569Y1197411D01*
X-8760975Y1286017D01*
X-8790547Y1426506D01*
X-8822359Y1581028D01*
X-8881385Y1870890D01*
X-8780128Y1851533D01*
X-8683145Y1858064D01*
X-8631085Y1889755D01*
X-8550101Y1933028D01*
X-8432220Y1945485D01*
X-8319074Y1926970D01*
X-8319074Y1926970D01*
G37*
X-8319074Y1926970D02*
X-8261064Y1891140D01*
X-8232676Y1829190D01*
X-8197500Y1715531D01*
X-8161334Y1575085D01*
X-8129978Y1432775D01*
X-8109230Y1313524D01*
X-8104887Y1242254D01*
X-8108058Y1233497D01*
X-8161121Y1224024D01*
X-8215375Y1282422D01*
X-8259507Y1392823D01*
X-8275033Y1467716D01*
X-8301308Y1604867D01*
X-8332313Y1715384D01*
X-8345334Y1746250D01*
X-8419945Y1808066D01*
X-8526395Y1812678D01*
X-8633281Y1759174D01*
X-8638285Y1754765D01*
X-8671177Y1719717D01*
X-8688062Y1676849D01*
X-8688163Y1609245D01*
X-8670704Y1499988D01*
X-8634910Y1332164D01*
X-8614792Y1242663D01*
X-8622919Y1156477D01*
X-8657036Y1127741D01*
X-8716137Y1140261D01*
X-8741569Y1197411D01*
X-8760975Y1286017D01*
X-8790547Y1426506D01*
X-8822359Y1581028D01*
X-8881385Y1870890D01*
X-8780128Y1851533D01*
X-8683145Y1858064D01*
X-8631085Y1889755D01*
X-8550101Y1933028D01*
X-8432220Y1945485D01*
X-8319074Y1926970D01*
G36*
X-7094804Y2464016D02*
G01*
X-7059260Y2450580D01*
X-6941309Y2353159D01*
X-6897048Y2222273D01*
X-6926505Y2055437D01*
X-7029708Y1850166D01*
X-7066553Y1793268D01*
X-7147308Y1670538D01*
X-7203899Y1579517D01*
X-7224956Y1538552D01*
X-7224764Y1537987D01*
X-7182682Y1541348D01*
X-7084301Y1558822D01*
X-7014368Y1573144D01*
X-6880090Y1592569D01*
X-6769750Y1592603D01*
X-6702703Y1575333D01*
X-6698302Y1542848D01*
X-6701489Y1539399D01*
X-6751588Y1519582D01*
X-6858286Y1490108D01*
X-6995002Y1457128D01*
X-7135156Y1426790D01*
X-7252169Y1405244D01*
X-7310585Y1398487D01*
X-7378089Y1428224D01*
X-7388119Y1440874D01*
X-7378415Y1493858D01*
X-7328671Y1595931D01*
X-7248721Y1727765D01*
X-7221186Y1768957D01*
X-7095606Y1975056D01*
X-7035030Y2132732D01*
X-7038651Y2246829D01*
X-7105665Y2322193D01*
X-7127299Y2333362D01*
X-7221998Y2355575D01*
X-7327805Y2325918D01*
X-7364066Y2308167D01*
X-7477551Y2261879D01*
X-7529990Y2272820D01*
X-7523104Y2341397D01*
X-7521576Y2345455D01*
X-7459512Y2406201D01*
X-7345895Y2451167D01*
X-7213425Y2472917D01*
X-7094804Y2464016D01*
X-7094804Y2464016D01*
G37*
X-7094804Y2464016D02*
X-7059260Y2450580D01*
X-6941309Y2353159D01*
X-6897048Y2222273D01*
X-6926505Y2055437D01*
X-7029708Y1850166D01*
X-7066553Y1793268D01*
X-7147308Y1670538D01*
X-7203899Y1579517D01*
X-7224956Y1538552D01*
X-7224764Y1537987D01*
X-7182682Y1541348D01*
X-7084301Y1558822D01*
X-7014368Y1573144D01*
X-6880090Y1592569D01*
X-6769750Y1592603D01*
X-6702703Y1575333D01*
X-6698302Y1542848D01*
X-6701489Y1539399D01*
X-6751588Y1519582D01*
X-6858286Y1490108D01*
X-6995002Y1457128D01*
X-7135156Y1426790D01*
X-7252169Y1405244D01*
X-7310585Y1398487D01*
X-7378089Y1428224D01*
X-7388119Y1440874D01*
X-7378415Y1493858D01*
X-7328671Y1595931D01*
X-7248721Y1727765D01*
X-7221186Y1768957D01*
X-7095606Y1975056D01*
X-7035030Y2132732D01*
X-7038651Y2246829D01*
X-7105665Y2322193D01*
X-7127299Y2333362D01*
X-7221998Y2355575D01*
X-7327805Y2325918D01*
X-7364066Y2308167D01*
X-7477551Y2261879D01*
X-7529990Y2272820D01*
X-7523104Y2341397D01*
X-7521576Y2345455D01*
X-7459512Y2406201D01*
X-7345895Y2451167D01*
X-7213425Y2472917D01*
X-7094804Y2464016D01*
G36*
X-6122506Y2670250D02*
G01*
X-6112314Y2659148D01*
X-6117771Y2604874D01*
X-6181801Y2559135D01*
X-6273516Y2540648D01*
X-6354740Y2503812D01*
X-6429343Y2415827D01*
X-6473301Y2308406D01*
X-6477000Y2272051D01*
X-6458592Y2215419D01*
X-6402916Y2222774D01*
X-6207999Y2278735D01*
X-6058690Y2265338D01*
X-5950438Y2181430D01*
X-5903131Y2096359D01*
X-5865486Y1952211D01*
X-5893124Y1827641D01*
X-5982687Y1703916D01*
X-6100742Y1629744D01*
X-6250381Y1610368D01*
X-6395236Y1650074D01*
X-6402917Y1654391D01*
X-6502343Y1756383D01*
X-6570563Y1912260D01*
X-6584595Y1988492D01*
X-6453876Y1988492D01*
X-6430709Y1911844D01*
X-6359066Y1791577D01*
X-6261449Y1727571D01*
X-6158809Y1720342D01*
X-6072097Y1770403D01*
X-6022262Y1878267D01*
X-6019028Y1901749D01*
X-6024375Y2015778D01*
X-6055962Y2098265D01*
X-6144325Y2147422D01*
X-6267213Y2154783D01*
X-6385052Y2119512D01*
X-6406752Y2105669D01*
X-6452529Y2056599D01*
X-6453876Y1988492D01*
X-6584595Y1988492D01*
X-6604387Y2096011D01*
X-6600624Y2281623D01*
X-6556084Y2443085D01*
X-6508750Y2517218D01*
X-6414436Y2596700D01*
X-6301075Y2654982D01*
X-6194991Y2682640D01*
X-6122506Y2670250D01*
X-6122506Y2670250D01*
G37*
X-6122506Y2670250D02*
X-6112314Y2659148D01*
X-6117771Y2604874D01*
X-6181801Y2559135D01*
X-6273516Y2540648D01*
X-6354740Y2503812D01*
X-6429343Y2415827D01*
X-6473301Y2308406D01*
X-6477000Y2272051D01*
X-6458592Y2215419D01*
X-6402916Y2222774D01*
X-6207999Y2278735D01*
X-6058690Y2265338D01*
X-5950438Y2181430D01*
X-5903131Y2096359D01*
X-5865486Y1952211D01*
X-5893124Y1827641D01*
X-5982687Y1703916D01*
X-6100742Y1629744D01*
X-6250381Y1610368D01*
X-6395236Y1650074D01*
X-6402917Y1654391D01*
X-6502343Y1756383D01*
X-6570563Y1912260D01*
X-6584595Y1988492D01*
X-6453876Y1988492D01*
X-6430709Y1911844D01*
X-6359066Y1791577D01*
X-6261449Y1727571D01*
X-6158809Y1720342D01*
X-6072097Y1770403D01*
X-6022262Y1878267D01*
X-6019028Y1901749D01*
X-6024375Y2015778D01*
X-6055962Y2098265D01*
X-6144325Y2147422D01*
X-6267213Y2154783D01*
X-6385052Y2119512D01*
X-6406752Y2105669D01*
X-6452529Y2056599D01*
X-6453876Y1988492D01*
X-6584595Y1988492D01*
X-6604387Y2096011D01*
X-6600624Y2281623D01*
X-6556084Y2443085D01*
X-6508750Y2517218D01*
X-6414436Y2596700D01*
X-6301075Y2654982D01*
X-6194991Y2682640D01*
X-6122506Y2670250D01*
G36*
X22981602Y5494718D02*
G01*
X22993832Y5463186D01*
X23005465Y5379847D01*
X23007697Y5232116D01*
X23001865Y5039585D01*
X22989309Y4821846D01*
X22971366Y4598488D01*
X22949376Y4389104D01*
X22924676Y4213284D01*
X22900507Y4097279D01*
X22853851Y3968402D01*
X22808349Y3915209D01*
X22767887Y3941413D01*
X22758603Y3961872D01*
X22741038Y4048724D01*
X22733046Y4169335D01*
X22733000Y4178446D01*
X22740290Y4300889D01*
X22759818Y4482307D01*
X22788075Y4698487D01*
X22821552Y4925215D01*
X22856737Y5138278D01*
X22890122Y5313461D01*
X22909712Y5397500D01*
X22939342Y5500497D01*
X22959603Y5530012D01*
X22981602Y5494718D01*
X22981602Y5494718D01*
G37*
X22981602Y5494718D02*
X22993832Y5463186D01*
X23005465Y5379847D01*
X23007697Y5232116D01*
X23001865Y5039585D01*
X22989309Y4821846D01*
X22971366Y4598488D01*
X22949376Y4389104D01*
X22924676Y4213284D01*
X22900507Y4097279D01*
X22853851Y3968402D01*
X22808349Y3915209D01*
X22767887Y3941413D01*
X22758603Y3961872D01*
X22741038Y4048724D01*
X22733046Y4169335D01*
X22733000Y4178446D01*
X22740290Y4300889D01*
X22759818Y4482307D01*
X22788075Y4698487D01*
X22821552Y4925215D01*
X22856737Y5138278D01*
X22890122Y5313461D01*
X22909712Y5397500D01*
X22939342Y5500497D01*
X22959603Y5530012D01*
X22981602Y5494718D01*
G36*
X22115090Y5506057D02*
G01*
X22124514Y5398077D01*
X22131737Y5238000D01*
X22136650Y5042100D01*
X22139145Y4826648D01*
X22139115Y4607919D01*
X22136450Y4402185D01*
X22131042Y4225720D01*
X22122783Y4094797D01*
X22113651Y4032250D01*
X22072478Y3951599D01*
X22022255Y3947786D01*
X21984520Y4005161D01*
X21977046Y4071711D01*
X21975152Y4204294D01*
X21978085Y4384510D01*
X21985092Y4593964D01*
X21995421Y4814257D01*
X22008319Y5026992D01*
X22023033Y5213771D01*
X22038810Y5356197D01*
X22040188Y5365750D01*
X22064099Y5475456D01*
X22092839Y5539169D01*
X22103574Y5545666D01*
X22115090Y5506057D01*
X22115090Y5506057D01*
G37*
X22115090Y5506057D02*
X22124514Y5398077D01*
X22131737Y5238000D01*
X22136650Y5042100D01*
X22139145Y4826648D01*
X22139115Y4607919D01*
X22136450Y4402185D01*
X22131042Y4225720D01*
X22122783Y4094797D01*
X22113651Y4032250D01*
X22072478Y3951599D01*
X22022255Y3947786D01*
X21984520Y4005161D01*
X21977046Y4071711D01*
X21975152Y4204294D01*
X21978085Y4384510D01*
X21985092Y4593964D01*
X21995421Y4814257D01*
X22008319Y5026992D01*
X22023033Y5213771D01*
X22038810Y5356197D01*
X22040188Y5365750D01*
X22064099Y5475456D01*
X22092839Y5539169D01*
X22103574Y5545666D01*
X22115090Y5506057D01*
G36*
X22514236Y5556016D02*
G01*
X22525236Y5540802D01*
X22547007Y5458862D01*
X22558488Y5311337D01*
X22560705Y5116548D01*
X22554684Y4892819D01*
X22541450Y4658469D01*
X22522030Y4431823D01*
X22497449Y4231201D01*
X22468733Y4074925D01*
X22438030Y3983272D01*
X22410431Y3960908D01*
X22386506Y4010603D01*
X22371515Y4079081D01*
X22358297Y4204264D01*
X22352640Y4382723D01*
X22353701Y4595155D01*
X22360634Y4822259D01*
X22372597Y5044731D01*
X22388744Y5243269D01*
X22408233Y5398569D01*
X22430219Y5491330D01*
X22433578Y5498469D01*
X22479042Y5563553D01*
X22514236Y5556016D01*
X22514236Y5556016D01*
G37*
X22514236Y5556016D02*
X22525236Y5540802D01*
X22547007Y5458862D01*
X22558488Y5311337D01*
X22560705Y5116548D01*
X22554684Y4892819D01*
X22541450Y4658469D01*
X22522030Y4431823D01*
X22497449Y4231201D01*
X22468733Y4074925D01*
X22438030Y3983272D01*
X22410431Y3960908D01*
X22386506Y4010603D01*
X22371515Y4079081D01*
X22358297Y4204264D01*
X22352640Y4382723D01*
X22353701Y4595155D01*
X22360634Y4822259D01*
X22372597Y5044731D01*
X22388744Y5243269D01*
X22408233Y5398569D01*
X22430219Y5491330D01*
X22433578Y5498469D01*
X22479042Y5563553D01*
X22514236Y5556016D01*
G36*
X21786089Y5552605D02*
G01*
X21795664Y5423163D01*
X21797292Y5211220D01*
X21793002Y4974166D01*
X21784147Y4698403D01*
X21772495Y4492648D01*
X21756405Y4342252D01*
X21734234Y4232564D01*
X21704338Y4148935D01*
X21699256Y4138083D01*
X21632487Y4021285D01*
X21581129Y3984735D01*
X21540567Y4026418D01*
X21526891Y4062769D01*
X21518953Y4149378D01*
X21524319Y4300034D01*
X21540883Y4495535D01*
X21566538Y4716677D01*
X21599177Y4944254D01*
X21636693Y5159064D01*
X21658883Y5265889D01*
X21704963Y5456190D01*
X21741210Y5568093D01*
X21768095Y5600573D01*
X21786089Y5552605D01*
X21786089Y5552605D01*
G37*
X21786089Y5552605D02*
X21795664Y5423163D01*
X21797292Y5211220D01*
X21793002Y4974166D01*
X21784147Y4698403D01*
X21772495Y4492648D01*
X21756405Y4342252D01*
X21734234Y4232564D01*
X21704338Y4148935D01*
X21699256Y4138083D01*
X21632487Y4021285D01*
X21581129Y3984735D01*
X21540567Y4026418D01*
X21526891Y4062769D01*
X21518953Y4149378D01*
X21524319Y4300034D01*
X21540883Y4495535D01*
X21566538Y4716677D01*
X21599177Y4944254D01*
X21636693Y5159064D01*
X21658883Y5265889D01*
X21704963Y5456190D01*
X21741210Y5568093D01*
X21768095Y5600573D01*
X21786089Y5552605D01*
G36*
X23305273Y4540230D02*
G01*
X23320573Y4428079D01*
X23325667Y4296833D01*
X23319497Y4153003D01*
X23303405Y4045416D01*
X23283334Y4000500D01*
X23260351Y4024896D01*
X23245921Y4126916D01*
X23241000Y4296833D01*
X23246067Y4468781D01*
X23260630Y4569708D01*
X23283334Y4593166D01*
X23305273Y4540230D01*
X23305273Y4540230D01*
G37*
X23305273Y4540230D02*
X23320573Y4428079D01*
X23325667Y4296833D01*
X23319497Y4153003D01*
X23303405Y4045416D01*
X23283334Y4000500D01*
X23260351Y4024896D01*
X23245921Y4126916D01*
X23241000Y4296833D01*
X23246067Y4468781D01*
X23260630Y4569708D01*
X23283334Y4593166D01*
X23305273Y4540230D01*
G36*
X20847290Y5835339D02*
G01*
X21135408Y5790069D01*
X21304250Y5751696D01*
X21371434Y5731980D01*
X21419187Y5703894D01*
X21448777Y5655635D01*
X21461469Y5575404D01*
X21458532Y5451401D01*
X21441232Y5271826D01*
X21410837Y5024878D01*
X21395248Y4904226D01*
X21354365Y4624763D01*
X21311804Y4418212D01*
X21263217Y4272861D01*
X21204257Y4176996D01*
X21130576Y4118905D01*
X21098383Y4104514D01*
X20997942Y4084431D01*
X20840884Y4072200D01*
X20654007Y4067758D01*
X20464110Y4071047D01*
X20297991Y4082005D01*
X20182446Y4100571D01*
X20164018Y4106629D01*
X20087526Y4149685D01*
X20034415Y4215735D01*
X20001707Y4317886D01*
X19989366Y4440111D01*
X20152931Y4440111D01*
X20174409Y4328462D01*
X20200889Y4284711D01*
X20265735Y4265461D01*
X20333891Y4308596D01*
X20386414Y4394811D01*
X20404667Y4492405D01*
X20378770Y4595332D01*
X20340391Y4635500D01*
X20870334Y4635500D01*
X20875400Y4463552D01*
X20889963Y4362625D01*
X20912667Y4339166D01*
X20934606Y4392103D01*
X20949906Y4504254D01*
X20955000Y4635500D01*
X20948830Y4779330D01*
X20932739Y4886917D01*
X20912667Y4931833D01*
X20889685Y4907437D01*
X20875255Y4805417D01*
X20870334Y4635500D01*
X20340391Y4635500D01*
X20316334Y4660677D01*
X20240242Y4671285D01*
X20199485Y4646218D01*
X20161233Y4560709D01*
X20152931Y4440111D01*
X19989366Y4440111D01*
X19986423Y4469247D01*
X19985585Y4682926D01*
X19991552Y4865729D01*
X20010274Y5166874D01*
X20040829Y5395811D01*
X20086653Y5564577D01*
X20151180Y5685214D01*
X20237843Y5769761D01*
X20252229Y5779594D01*
X20391484Y5830479D01*
X20594577Y5848935D01*
X20847290Y5835339D01*
X20847290Y5835339D01*
G37*
X20847290Y5835339D02*
X21135408Y5790069D01*
X21304250Y5751696D01*
X21371434Y5731980D01*
X21419187Y5703894D01*
X21448777Y5655635D01*
X21461469Y5575404D01*
X21458532Y5451401D01*
X21441232Y5271826D01*
X21410837Y5024878D01*
X21395248Y4904226D01*
X21354365Y4624763D01*
X21311804Y4418212D01*
X21263217Y4272861D01*
X21204257Y4176996D01*
X21130576Y4118905D01*
X21098383Y4104514D01*
X20997942Y4084431D01*
X20840884Y4072200D01*
X20654007Y4067758D01*
X20464110Y4071047D01*
X20297991Y4082005D01*
X20182446Y4100571D01*
X20164018Y4106629D01*
X20087526Y4149685D01*
X20034415Y4215735D01*
X20001707Y4317886D01*
X19989366Y4440111D01*
X20152931Y4440111D01*
X20174409Y4328462D01*
X20200889Y4284711D01*
X20265735Y4265461D01*
X20333891Y4308596D01*
X20386414Y4394811D01*
X20404667Y4492405D01*
X20378770Y4595332D01*
X20340391Y4635500D01*
X20870334Y4635500D01*
X20875400Y4463552D01*
X20889963Y4362625D01*
X20912667Y4339166D01*
X20934606Y4392103D01*
X20949906Y4504254D01*
X20955000Y4635500D01*
X20948830Y4779330D01*
X20932739Y4886917D01*
X20912667Y4931833D01*
X20889685Y4907437D01*
X20875255Y4805417D01*
X20870334Y4635500D01*
X20340391Y4635500D01*
X20316334Y4660677D01*
X20240242Y4671285D01*
X20199485Y4646218D01*
X20161233Y4560709D01*
X20152931Y4440111D01*
X19989366Y4440111D01*
X19986423Y4469247D01*
X19985585Y4682926D01*
X19991552Y4865729D01*
X20010274Y5166874D01*
X20040829Y5395811D01*
X20086653Y5564577D01*
X20151180Y5685214D01*
X20237843Y5769761D01*
X20252229Y5779594D01*
X20391484Y5830479D01*
X20594577Y5848935D01*
X20847290Y5835339D01*
G36*
X19742006Y5912340D02*
G01*
X19857489Y5879280D01*
X19875646Y5868295D01*
X19923088Y5823280D01*
X19934210Y5765910D01*
X19912274Y5666409D01*
X19901696Y5630424D01*
X19877426Y5512713D01*
X19854508Y5337132D01*
X19836005Y5130459D01*
X19827236Y4979713D01*
X19806036Y4642137D01*
X19775505Y4387621D01*
X19735287Y4215036D01*
X19685023Y4123252D01*
X19624354Y4111138D01*
X19567095Y4159250D01*
X19527428Y4246801D01*
X19490372Y4399479D01*
X19459010Y4597744D01*
X19436423Y4822060D01*
X19425693Y5052885D01*
X19425643Y5056025D01*
X19420285Y5397500D01*
X19359942Y4974166D01*
X19310472Y4693553D01*
X19252116Y4476868D01*
X19187168Y4330280D01*
X19117921Y4259958D01*
X19092334Y4254500D01*
X19056741Y4279199D01*
X19036972Y4357729D01*
X19032995Y4496743D01*
X19044781Y4702892D01*
X19072298Y4982827D01*
X19088341Y5122333D01*
X19119516Y5383655D01*
X19143699Y5573323D01*
X19164126Y5703732D01*
X19184034Y5787272D01*
X19206661Y5836339D01*
X19235243Y5863325D01*
X19273017Y5880623D01*
X19287867Y5886247D01*
X19423384Y5916856D01*
X19586034Y5925209D01*
X19742006Y5912340D01*
X19742006Y5912340D01*
G37*
X19742006Y5912340D02*
X19857489Y5879280D01*
X19875646Y5868295D01*
X19923088Y5823280D01*
X19934210Y5765910D01*
X19912274Y5666409D01*
X19901696Y5630424D01*
X19877426Y5512713D01*
X19854508Y5337132D01*
X19836005Y5130459D01*
X19827236Y4979713D01*
X19806036Y4642137D01*
X19775505Y4387621D01*
X19735287Y4215036D01*
X19685023Y4123252D01*
X19624354Y4111138D01*
X19567095Y4159250D01*
X19527428Y4246801D01*
X19490372Y4399479D01*
X19459010Y4597744D01*
X19436423Y4822060D01*
X19425693Y5052885D01*
X19425643Y5056025D01*
X19420285Y5397500D01*
X19359942Y4974166D01*
X19310472Y4693553D01*
X19252116Y4476868D01*
X19187168Y4330280D01*
X19117921Y4259958D01*
X19092334Y4254500D01*
X19056741Y4279199D01*
X19036972Y4357729D01*
X19032995Y4496743D01*
X19044781Y4702892D01*
X19072298Y4982827D01*
X19088341Y5122333D01*
X19119516Y5383655D01*
X19143699Y5573323D01*
X19164126Y5703732D01*
X19184034Y5787272D01*
X19206661Y5836339D01*
X19235243Y5863325D01*
X19273017Y5880623D01*
X19287867Y5886247D01*
X19423384Y5916856D01*
X19586034Y5925209D01*
X19742006Y5912340D01*
G36*
X18513601Y6056256D02*
G01*
X18535364Y5944921D01*
X18542737Y5773841D01*
X18535717Y5554862D01*
X18514297Y5299829D01*
X18478475Y5020588D01*
X18477862Y5016500D01*
X18429243Y4726935D01*
X18380771Y4502437D01*
X18333896Y4347213D01*
X18290069Y4265471D01*
X18250737Y4261419D01*
X18230121Y4297450D01*
X18210100Y4407769D01*
X18204248Y4586835D01*
X18212070Y4820008D01*
X18233069Y5092646D01*
X18266752Y5390109D01*
X18267202Y5393544D01*
X18305501Y5663156D01*
X18341040Y5858160D01*
X18376771Y5988421D01*
X18415647Y6063803D01*
X18460620Y6094174D01*
X18477452Y6096000D01*
X18513601Y6056256D01*
X18513601Y6056256D01*
G37*
X18513601Y6056256D02*
X18535364Y5944921D01*
X18542737Y5773841D01*
X18535717Y5554862D01*
X18514297Y5299829D01*
X18478475Y5020588D01*
X18477862Y5016500D01*
X18429243Y4726935D01*
X18380771Y4502437D01*
X18333896Y4347213D01*
X18290069Y4265471D01*
X18250737Y4261419D01*
X18230121Y4297450D01*
X18210100Y4407769D01*
X18204248Y4586835D01*
X18212070Y4820008D01*
X18233069Y5092646D01*
X18266752Y5390109D01*
X18267202Y5393544D01*
X18305501Y5663156D01*
X18341040Y5858160D01*
X18376771Y5988421D01*
X18415647Y6063803D01*
X18460620Y6094174D01*
X18477452Y6096000D01*
X18513601Y6056256D01*
G36*
X18876689Y5666566D02*
G01*
X18880667Y5576755D01*
X18874401Y5444523D01*
X18857567Y5262333D01*
X18833111Y5051862D01*
X18803978Y4834785D01*
X18773115Y4632777D01*
X18743466Y4467513D01*
X18717977Y4360669D01*
X18713747Y4348500D01*
X18684084Y4284785D01*
X18661676Y4296851D01*
X18645978Y4332666D01*
X18632583Y4419891D01*
X18630827Y4569104D01*
X18639080Y4758671D01*
X18655714Y4966960D01*
X18679101Y5172336D01*
X18707613Y5353167D01*
X18730585Y5456712D01*
X18781883Y5623709D01*
X18825105Y5715768D01*
X18857594Y5730762D01*
X18876689Y5666566D01*
X18876689Y5666566D01*
G37*
X18876689Y5666566D02*
X18880667Y5576755D01*
X18874401Y5444523D01*
X18857567Y5262333D01*
X18833111Y5051862D01*
X18803978Y4834785D01*
X18773115Y4632777D01*
X18743466Y4467513D01*
X18717977Y4360669D01*
X18713747Y4348500D01*
X18684084Y4284785D01*
X18661676Y4296851D01*
X18645978Y4332666D01*
X18632583Y4419891D01*
X18630827Y4569104D01*
X18639080Y4758671D01*
X18655714Y4966960D01*
X18679101Y5172336D01*
X18707613Y5353167D01*
X18730585Y5456712D01*
X18781883Y5623709D01*
X18825105Y5715768D01*
X18857594Y5730762D01*
X18876689Y5666566D01*
G36*
X15028334Y6053666D02*
G01*
X15036342Y5607626D01*
X15010507Y5227024D01*
X14951456Y4915150D01*
X14859815Y4675295D01*
X14736213Y4510749D01*
X14733702Y4508500D01*
X14601558Y4441285D01*
X14434205Y4423237D01*
X14265264Y4454220D01*
X14156012Y4510836D01*
X14060030Y4613394D01*
X13989840Y4740372D01*
X13988670Y4743669D01*
X13937859Y4889500D01*
X13909763Y4762500D01*
X13864952Y4614257D01*
X13806724Y4492328D01*
X13747916Y4422243D01*
X13735579Y4416115D01*
X13671226Y4429617D01*
X13640329Y4452937D01*
X13608474Y4504425D01*
X13593957Y4585940D01*
X13597509Y4708902D01*
X13619862Y4884732D01*
X13624385Y4910666D01*
X14605000Y4910666D01*
X14611186Y4763693D01*
X14628689Y4686018D01*
X14647334Y4677833D01*
X14672025Y4732149D01*
X14687280Y4840927D01*
X14689667Y4910666D01*
X14681667Y5036152D01*
X14661316Y5123204D01*
X14647334Y5143500D01*
X14622686Y5120889D01*
X14608221Y5022744D01*
X14605000Y4910666D01*
X13624385Y4910666D01*
X13661745Y5124850D01*
X13694006Y5291666D01*
X13747431Y5574716D01*
X13782686Y5790857D01*
X13799258Y5935954D01*
X13796634Y6005874D01*
X13782788Y6007566D01*
X13765021Y5963178D01*
X13726980Y5851367D01*
X13673092Y5685691D01*
X13607780Y5479712D01*
X13550840Y5296831D01*
X13461815Y5013694D01*
X13391194Y4802620D01*
X13334867Y4654049D01*
X13288727Y4558426D01*
X13248664Y4506194D01*
X13210569Y4487794D01*
X13202817Y4487333D01*
X13179564Y4526405D01*
X13168180Y4632389D01*
X13168164Y4788440D01*
X13179019Y4977712D01*
X13200243Y5183360D01*
X13229167Y5376333D01*
X13258751Y5574825D01*
X13279180Y5773445D01*
X13290001Y5956144D01*
X13290758Y6106875D01*
X13280999Y6209587D01*
X13260268Y6248232D01*
X13253773Y6246292D01*
X13231773Y6210709D01*
X13201706Y6122671D01*
X13161991Y5975959D01*
X13111050Y5764354D01*
X13047304Y5481637D01*
X12974446Y5146181D01*
X12923458Y4944440D01*
X12867290Y4804808D01*
X12796510Y4704835D01*
X12783278Y4691098D01*
X12641019Y4596357D01*
X12488085Y4573785D01*
X12345688Y4626309D01*
X12340527Y4630002D01*
X12302193Y4675286D01*
X12275964Y4752652D01*
X12261300Y4872127D01*
X12258691Y4995274D01*
X12584103Y4995274D01*
X12591582Y4899120D01*
X12619363Y4867420D01*
X12667521Y4895721D01*
X12696026Y4927044D01*
X12743558Y5023523D01*
X12786474Y5180423D01*
X12822456Y5376311D01*
X12849189Y5589754D01*
X12864355Y5799321D01*
X12865639Y5983577D01*
X12850723Y6121092D01*
X12830980Y6175677D01*
X12808306Y6201639D01*
X12788093Y6193256D01*
X12766889Y6139800D01*
X12741243Y6030544D01*
X12707702Y5854763D01*
X12682723Y5715000D01*
X12629748Y5398759D01*
X12596850Y5160335D01*
X12584103Y4995274D01*
X12258691Y4995274D01*
X12257663Y5043740D01*
X12264515Y5277519D01*
X12281316Y5583493D01*
X12285645Y5651500D01*
X12315791Y6117166D01*
X12190304Y5512338D01*
X12140145Y5282082D01*
X12089304Y5068596D01*
X12042868Y4891969D01*
X12005923Y4772291D01*
X11997383Y4750338D01*
X11929948Y4593166D01*
X11887701Y4699000D01*
X11872274Y4783418D01*
X11862562Y4933960D01*
X11859256Y5132232D01*
X11862962Y5357143D01*
X11878725Y5656743D01*
X11907485Y5885355D01*
X11953733Y6056227D01*
X12021962Y6182611D01*
X12116664Y6277755D01*
X12192000Y6327655D01*
X12245278Y6355029D01*
X12306525Y6376236D01*
X12387293Y6392277D01*
X12499133Y6404151D01*
X12653597Y6412859D01*
X12862236Y6419401D01*
X13136602Y6424777D01*
X13351837Y6428064D01*
X14363508Y6442628D01*
X14337404Y6174064D01*
X14321142Y5991353D01*
X14303749Y5772050D01*
X14289209Y5566833D01*
X14267118Y5228166D01*
X14345467Y5545666D01*
X14424019Y5850993D01*
X14490472Y6078645D01*
X14547221Y6234364D01*
X14596660Y6323891D01*
X14641185Y6352969D01*
X14675251Y6336194D01*
X14693942Y6281664D01*
X14716552Y6162404D01*
X14739755Y5998039D01*
X14754167Y5870594D01*
X14798244Y5439833D01*
X14902706Y5947833D01*
X15007167Y6455833D01*
X15028334Y6053666D01*
X15028334Y6053666D01*
G37*
X15028334Y6053666D02*
X15036342Y5607626D01*
X15010507Y5227024D01*
X14951456Y4915150D01*
X14859815Y4675295D01*
X14736213Y4510749D01*
X14733702Y4508500D01*
X14601558Y4441285D01*
X14434205Y4423237D01*
X14265264Y4454220D01*
X14156012Y4510836D01*
X14060030Y4613394D01*
X13989840Y4740372D01*
X13988670Y4743669D01*
X13937859Y4889500D01*
X13909763Y4762500D01*
X13864952Y4614257D01*
X13806724Y4492328D01*
X13747916Y4422243D01*
X13735579Y4416115D01*
X13671226Y4429617D01*
X13640329Y4452937D01*
X13608474Y4504425D01*
X13593957Y4585940D01*
X13597509Y4708902D01*
X13619862Y4884732D01*
X13624385Y4910666D01*
X14605000Y4910666D01*
X14611186Y4763693D01*
X14628689Y4686018D01*
X14647334Y4677833D01*
X14672025Y4732149D01*
X14687280Y4840927D01*
X14689667Y4910666D01*
X14681667Y5036152D01*
X14661316Y5123204D01*
X14647334Y5143500D01*
X14622686Y5120889D01*
X14608221Y5022744D01*
X14605000Y4910666D01*
X13624385Y4910666D01*
X13661745Y5124850D01*
X13694006Y5291666D01*
X13747431Y5574716D01*
X13782686Y5790857D01*
X13799258Y5935954D01*
X13796634Y6005874D01*
X13782788Y6007566D01*
X13765021Y5963178D01*
X13726980Y5851367D01*
X13673092Y5685691D01*
X13607780Y5479712D01*
X13550840Y5296831D01*
X13461815Y5013694D01*
X13391194Y4802620D01*
X13334867Y4654049D01*
X13288727Y4558426D01*
X13248664Y4506194D01*
X13210569Y4487794D01*
X13202817Y4487333D01*
X13179564Y4526405D01*
X13168180Y4632389D01*
X13168164Y4788440D01*
X13179019Y4977712D01*
X13200243Y5183360D01*
X13229167Y5376333D01*
X13258751Y5574825D01*
X13279180Y5773445D01*
X13290001Y5956144D01*
X13290758Y6106875D01*
X13280999Y6209587D01*
X13260268Y6248232D01*
X13253773Y6246292D01*
X13231773Y6210709D01*
X13201706Y6122671D01*
X13161991Y5975959D01*
X13111050Y5764354D01*
X13047304Y5481637D01*
X12974446Y5146181D01*
X12923458Y4944440D01*
X12867290Y4804808D01*
X12796510Y4704835D01*
X12783278Y4691098D01*
X12641019Y4596357D01*
X12488085Y4573785D01*
X12345688Y4626309D01*
X12340527Y4630002D01*
X12302193Y4675286D01*
X12275964Y4752652D01*
X12261300Y4872127D01*
X12258691Y4995274D01*
X12584103Y4995274D01*
X12591582Y4899120D01*
X12619363Y4867420D01*
X12667521Y4895721D01*
X12696026Y4927044D01*
X12743558Y5023523D01*
X12786474Y5180423D01*
X12822456Y5376311D01*
X12849189Y5589754D01*
X12864355Y5799321D01*
X12865639Y5983577D01*
X12850723Y6121092D01*
X12830980Y6175677D01*
X12808306Y6201639D01*
X12788093Y6193256D01*
X12766889Y6139800D01*
X12741243Y6030544D01*
X12707702Y5854763D01*
X12682723Y5715000D01*
X12629748Y5398759D01*
X12596850Y5160335D01*
X12584103Y4995274D01*
X12258691Y4995274D01*
X12257663Y5043740D01*
X12264515Y5277519D01*
X12281316Y5583493D01*
X12285645Y5651500D01*
X12315791Y6117166D01*
X12190304Y5512338D01*
X12140145Y5282082D01*
X12089304Y5068596D01*
X12042868Y4891969D01*
X12005923Y4772291D01*
X11997383Y4750338D01*
X11929948Y4593166D01*
X11887701Y4699000D01*
X11872274Y4783418D01*
X11862562Y4933960D01*
X11859256Y5132232D01*
X11862962Y5357143D01*
X11878725Y5656743D01*
X11907485Y5885355D01*
X11953733Y6056227D01*
X12021962Y6182611D01*
X12116664Y6277755D01*
X12192000Y6327655D01*
X12245278Y6355029D01*
X12306525Y6376236D01*
X12387293Y6392277D01*
X12499133Y6404151D01*
X12653597Y6412859D01*
X12862236Y6419401D01*
X13136602Y6424777D01*
X13351837Y6428064D01*
X14363508Y6442628D01*
X14337404Y6174064D01*
X14321142Y5991353D01*
X14303749Y5772050D01*
X14289209Y5566833D01*
X14267118Y5228166D01*
X14345467Y5545666D01*
X14424019Y5850993D01*
X14490472Y6078645D01*
X14547221Y6234364D01*
X14596660Y6323891D01*
X14641185Y6352969D01*
X14675251Y6336194D01*
X14693942Y6281664D01*
X14716552Y6162404D01*
X14739755Y5998039D01*
X14754167Y5870594D01*
X14798244Y5439833D01*
X14902706Y5947833D01*
X15007167Y6455833D01*
X15028334Y6053666D01*
G36*
X15859135Y6081224D02*
G01*
X15852036Y5966566D01*
X15835877Y5802712D01*
X15812851Y5612704D01*
X15786209Y5388555D01*
X15764750Y5168299D01*
X15751039Y4980766D01*
X15747376Y4876748D01*
X15734855Y4705896D01*
X15702930Y4565823D01*
X15658636Y4466302D01*
X15609009Y4417105D01*
X15561083Y4428004D01*
X15521894Y4508773D01*
X15512449Y4550433D01*
X15500898Y4686175D01*
X15504919Y4852232D01*
X15511933Y4923568D01*
X15543093Y5122109D01*
X15586027Y5335651D01*
X15636616Y5549744D01*
X15690739Y5749937D01*
X15744275Y5921780D01*
X15793106Y6050823D01*
X15833110Y6122615D01*
X15855740Y6129372D01*
X15859135Y6081224D01*
X15859135Y6081224D01*
G37*
X15859135Y6081224D02*
X15852036Y5966566D01*
X15835877Y5802712D01*
X15812851Y5612704D01*
X15786209Y5388555D01*
X15764750Y5168299D01*
X15751039Y4980766D01*
X15747376Y4876748D01*
X15734855Y4705896D01*
X15702930Y4565823D01*
X15658636Y4466302D01*
X15609009Y4417105D01*
X15561083Y4428004D01*
X15521894Y4508773D01*
X15512449Y4550433D01*
X15500898Y4686175D01*
X15504919Y4852232D01*
X15511933Y4923568D01*
X15543093Y5122109D01*
X15586027Y5335651D01*
X15636616Y5549744D01*
X15690739Y5749937D01*
X15744275Y5921780D01*
X15793106Y6050823D01*
X15833110Y6122615D01*
X15855740Y6129372D01*
X15859135Y6081224D01*
G36*
X16207197Y6150091D02*
G01*
X16214341Y6059809D01*
X16214700Y5916417D01*
X16209171Y5735474D01*
X16198654Y5532541D01*
X16184045Y5323177D01*
X16166242Y5122944D01*
X16146145Y4947402D01*
X16124650Y4812109D01*
X16110544Y4753735D01*
X16054487Y4591333D01*
X16012133Y4510449D01*
X15983198Y4511542D01*
X15967400Y4595073D01*
X15964454Y4761503D01*
X15972336Y4978216D01*
X15989858Y5205433D01*
X16018203Y5442900D01*
X16054174Y5673265D01*
X16094571Y5879177D01*
X16136194Y6043282D01*
X16175845Y6148230D01*
X16192370Y6171703D01*
X16207197Y6150091D01*
X16207197Y6150091D01*
G37*
X16207197Y6150091D02*
X16214341Y6059809D01*
X16214700Y5916417D01*
X16209171Y5735474D01*
X16198654Y5532541D01*
X16184045Y5323177D01*
X16166242Y5122944D01*
X16146145Y4947402D01*
X16124650Y4812109D01*
X16110544Y4753735D01*
X16054487Y4591333D01*
X16012133Y4510449D01*
X15983198Y4511542D01*
X15967400Y4595073D01*
X15964454Y4761503D01*
X15972336Y4978216D01*
X15989858Y5205433D01*
X16018203Y5442900D01*
X16054174Y5673265D01*
X16094571Y5879177D01*
X16136194Y6043282D01*
X16175845Y6148230D01*
X16192370Y6171703D01*
X16207197Y6150091D01*
G36*
X11332754Y6544893D02*
G01*
X11328416Y6428256D01*
X11318344Y6253969D01*
X11303315Y6035385D01*
X11284102Y5785854D01*
X11283149Y5774077D01*
X11262861Y5517690D01*
X11245497Y5286187D01*
X11232097Y5094454D01*
X11223701Y4957373D01*
X11221348Y4889921D01*
X11232443Y4896137D01*
X11260780Y4972226D01*
X11302417Y5106087D01*
X11353412Y5285617D01*
X11369188Y5343753D01*
X11433138Y5572263D01*
X11500082Y5795630D01*
X11562064Y5988181D01*
X11610968Y6123851D01*
X11677414Y6266767D01*
X11737815Y6357775D01*
X11784278Y6389063D01*
X11808911Y6352816D01*
X11810915Y6321778D01*
X11801417Y6226828D01*
X11775614Y6071906D01*
X11737353Y5874123D01*
X11690477Y5650591D01*
X11638831Y5418423D01*
X11586259Y5194729D01*
X11536607Y4996623D01*
X11493719Y4841217D01*
X11461439Y4745622D01*
X11453056Y4728991D01*
X11335560Y4616683D01*
X11190579Y4574590D01*
X11041172Y4605103D01*
X10941243Y4675909D01*
X10871043Y4777831D01*
X10840411Y4912496D01*
X10848456Y5094090D01*
X10894287Y5336801D01*
X10898584Y5355166D01*
X10933315Y5484554D01*
X10984260Y5652356D01*
X11045908Y5842810D01*
X11112748Y6040156D01*
X11179268Y6228634D01*
X11239957Y6392482D01*
X11289303Y6515939D01*
X11321796Y6583246D01*
X11330582Y6590529D01*
X11332754Y6544893D01*
X11332754Y6544893D01*
G37*
X11332754Y6544893D02*
X11328416Y6428256D01*
X11318344Y6253969D01*
X11303315Y6035385D01*
X11284102Y5785854D01*
X11283149Y5774077D01*
X11262861Y5517690D01*
X11245497Y5286187D01*
X11232097Y5094454D01*
X11223701Y4957373D01*
X11221348Y4889921D01*
X11232443Y4896137D01*
X11260780Y4972226D01*
X11302417Y5106087D01*
X11353412Y5285617D01*
X11369188Y5343753D01*
X11433138Y5572263D01*
X11500082Y5795630D01*
X11562064Y5988181D01*
X11610968Y6123851D01*
X11677414Y6266767D01*
X11737815Y6357775D01*
X11784278Y6389063D01*
X11808911Y6352816D01*
X11810915Y6321778D01*
X11801417Y6226828D01*
X11775614Y6071906D01*
X11737353Y5874123D01*
X11690477Y5650591D01*
X11638831Y5418423D01*
X11586259Y5194729D01*
X11536607Y4996623D01*
X11493719Y4841217D01*
X11461439Y4745622D01*
X11453056Y4728991D01*
X11335560Y4616683D01*
X11190579Y4574590D01*
X11041172Y4605103D01*
X10941243Y4675909D01*
X10871043Y4777831D01*
X10840411Y4912496D01*
X10848456Y5094090D01*
X10894287Y5336801D01*
X10898584Y5355166D01*
X10933315Y5484554D01*
X10984260Y5652356D01*
X11045908Y5842810D01*
X11112748Y6040156D01*
X11179268Y6228634D01*
X11239957Y6392482D01*
X11289303Y6515939D01*
X11321796Y6583246D01*
X11330582Y6590529D01*
X11332754Y6544893D01*
G36*
X17995710Y6067411D02*
G01*
X18038926Y5980375D01*
X18067706Y5838380D01*
X18081916Y5655682D01*
X18081420Y5446539D01*
X18066084Y5225206D01*
X18035772Y5005941D01*
X17990350Y4803000D01*
X17951449Y4683397D01*
X17904136Y4592191D01*
X17863529Y4585219D01*
X17829575Y4662537D01*
X17802224Y4824203D01*
X17798840Y4854307D01*
X17784788Y5071498D01*
X17785257Y5302430D01*
X17798379Y5530605D01*
X17822285Y5739526D01*
X17855109Y5912694D01*
X17894982Y6033611D01*
X17938192Y6085230D01*
X17995710Y6067411D01*
X17995710Y6067411D01*
G37*
X17995710Y6067411D02*
X18038926Y5980375D01*
X18067706Y5838380D01*
X18081916Y5655682D01*
X18081420Y5446539D01*
X18066084Y5225206D01*
X18035772Y5005941D01*
X17990350Y4803000D01*
X17951449Y4683397D01*
X17904136Y4592191D01*
X17863529Y4585219D01*
X17829575Y4662537D01*
X17802224Y4824203D01*
X17798840Y4854307D01*
X17784788Y5071498D01*
X17785257Y5302430D01*
X17798379Y5530605D01*
X17822285Y5739526D01*
X17855109Y5912694D01*
X17894982Y6033611D01*
X17938192Y6085230D01*
X17995710Y6067411D01*
G36*
X7695203Y6254862D02*
G01*
X7717099Y6176813D01*
X7738130Y6071558D01*
X7807854Y5656923D01*
X7851667Y5292012D01*
X7868293Y4988828D01*
X7866220Y4868333D01*
X7852834Y4593166D01*
X7779975Y4872158D01*
X7741859Y5047628D01*
X7707216Y5260532D01*
X7677859Y5491474D01*
X7655602Y5721058D01*
X7642256Y5929886D01*
X7639637Y6098564D01*
X7649556Y6207694D01*
X7653764Y6222231D01*
X7675972Y6266642D01*
X7695203Y6254862D01*
X7695203Y6254862D01*
G37*
X7695203Y6254862D02*
X7717099Y6176813D01*
X7738130Y6071558D01*
X7807854Y5656923D01*
X7851667Y5292012D01*
X7868293Y4988828D01*
X7866220Y4868333D01*
X7852834Y4593166D01*
X7779975Y4872158D01*
X7741859Y5047628D01*
X7707216Y5260532D01*
X7677859Y5491474D01*
X7655602Y5721058D01*
X7642256Y5929886D01*
X7639637Y6098564D01*
X7649556Y6207694D01*
X7653764Y6222231D01*
X7675972Y6266642D01*
X7695203Y6254862D01*
G36*
X8033224Y6433373D02*
G01*
X8066599Y6339491D01*
X8109139Y6198589D01*
X8128291Y6129654D01*
X8195038Y5815840D01*
X8235720Y5478281D01*
X8247958Y5149298D01*
X8229376Y4861213D01*
X8224182Y4826000D01*
X8186885Y4593166D01*
X8155775Y5016500D01*
X8136467Y5244265D01*
X8109644Y5515107D01*
X8079491Y5788251D01*
X8060783Y5942255D01*
X8037429Y6138528D01*
X8021004Y6302036D01*
X8013004Y6415765D01*
X8014927Y6462703D01*
X8014965Y6462742D01*
X8033224Y6433373D01*
X8033224Y6433373D01*
G37*
X8033224Y6433373D02*
X8066599Y6339491D01*
X8109139Y6198589D01*
X8128291Y6129654D01*
X8195038Y5815840D01*
X8235720Y5478281D01*
X8247958Y5149298D01*
X8229376Y4861213D01*
X8224182Y4826000D01*
X8186885Y4593166D01*
X8155775Y5016500D01*
X8136467Y5244265D01*
X8109644Y5515107D01*
X8079491Y5788251D01*
X8060783Y5942255D01*
X8037429Y6138528D01*
X8021004Y6302036D01*
X8013004Y6415765D01*
X8014927Y6462703D01*
X8014965Y6462742D01*
X8033224Y6433373D01*
G36*
X8497870Y6436490D02*
G01*
X8536052Y6322010D01*
X8575209Y6144134D01*
X8613556Y5913438D01*
X8649311Y5640495D01*
X8680690Y5335881D01*
X8703388Y5048250D01*
X8712700Y4835158D01*
X8708313Y4690404D01*
X8691741Y4617394D01*
X8664497Y4619532D01*
X8628096Y4700223D01*
X8597029Y4809018D01*
X8552094Y5014262D01*
X8512073Y5247226D01*
X8478095Y5493894D01*
X8451293Y5740252D01*
X8432796Y5972283D01*
X8423737Y6175972D01*
X8425245Y6337303D01*
X8438451Y6442262D01*
X8462444Y6477000D01*
X8497870Y6436490D01*
X8497870Y6436490D01*
G37*
X8497870Y6436490D02*
X8536052Y6322010D01*
X8575209Y6144134D01*
X8613556Y5913438D01*
X8649311Y5640495D01*
X8680690Y5335881D01*
X8703388Y5048250D01*
X8712700Y4835158D01*
X8708313Y4690404D01*
X8691741Y4617394D01*
X8664497Y4619532D01*
X8628096Y4700223D01*
X8597029Y4809018D01*
X8552094Y5014262D01*
X8512073Y5247226D01*
X8478095Y5493894D01*
X8451293Y5740252D01*
X8432796Y5972283D01*
X8423737Y6175972D01*
X8425245Y6337303D01*
X8438451Y6442262D01*
X8462444Y6477000D01*
X8497870Y6436490D01*
G36*
X9726610Y6295340D02*
G01*
X9748789Y6175722D01*
X9774695Y6004755D01*
X9802364Y5798924D01*
X9829831Y5574715D01*
X9855131Y5348613D01*
X9876302Y5137103D01*
X9891377Y4956671D01*
X9898394Y4823801D01*
X9897799Y4772023D01*
X9884834Y4593166D01*
X9805380Y4804833D01*
X9771435Y4916336D01*
X9745944Y5054695D01*
X9727165Y5235400D01*
X9713356Y5473938D01*
X9705403Y5693833D01*
X9699978Y5920207D01*
X9698150Y6111455D01*
X9699820Y6254088D01*
X9704891Y6334613D01*
X9710122Y6347123D01*
X9726610Y6295340D01*
X9726610Y6295340D01*
G37*
X9726610Y6295340D02*
X9748789Y6175722D01*
X9774695Y6004755D01*
X9802364Y5798924D01*
X9829831Y5574715D01*
X9855131Y5348613D01*
X9876302Y5137103D01*
X9891377Y4956671D01*
X9898394Y4823801D01*
X9897799Y4772023D01*
X9884834Y4593166D01*
X9805380Y4804833D01*
X9771435Y4916336D01*
X9745944Y5054695D01*
X9727165Y5235400D01*
X9713356Y5473938D01*
X9705403Y5693833D01*
X9699978Y5920207D01*
X9698150Y6111455D01*
X9699820Y6254088D01*
X9704891Y6334613D01*
X9710122Y6347123D01*
X9726610Y6295340D01*
G36*
X15395372Y6184271D02*
G01*
X15406324Y6061623D01*
X15405417Y5889591D01*
X15394367Y5683917D01*
X15374891Y5460345D01*
X15348705Y5234621D01*
X15317525Y5022486D01*
X15283067Y4839685D01*
X15247048Y4701963D01*
X15211182Y4625062D01*
X15193444Y4614333D01*
X15169023Y4651735D01*
X15156243Y4744473D01*
X15155681Y4773083D01*
X15161576Y4939533D01*
X15177164Y5140156D01*
X15200245Y5359936D01*
X15228619Y5583857D01*
X15260086Y5796901D01*
X15292446Y5984054D01*
X15323498Y6130299D01*
X15351045Y6220618D01*
X15370846Y6241790D01*
X15395372Y6184271D01*
X15395372Y6184271D01*
G37*
X15395372Y6184271D02*
X15406324Y6061623D01*
X15405417Y5889591D01*
X15394367Y5683917D01*
X15374891Y5460345D01*
X15348705Y5234621D01*
X15317525Y5022486D01*
X15283067Y4839685D01*
X15247048Y4701963D01*
X15211182Y4625062D01*
X15193444Y4614333D01*
X15169023Y4651735D01*
X15156243Y4744473D01*
X15155681Y4773083D01*
X15161576Y4939533D01*
X15177164Y5140156D01*
X15200245Y5359936D01*
X15228619Y5583857D01*
X15260086Y5796901D01*
X15292446Y5984054D01*
X15323498Y6130299D01*
X15351045Y6220618D01*
X15370846Y6241790D01*
X15395372Y6184271D01*
G36*
X8872188Y6476985D02*
G01*
X8909908Y6389729D01*
X8949489Y6219973D01*
X8991090Y5967024D01*
X9034869Y5630190D01*
X9038371Y5600453D01*
X9074648Y5258616D01*
X9094944Y4991125D01*
X9099198Y4800239D01*
X9087351Y4688217D01*
X9063732Y4656666D01*
X9039880Y4695341D01*
X9008084Y4798828D01*
X8973685Y4948323D01*
X8958509Y5027083D01*
X8919818Y5262642D01*
X8885659Y5512989D01*
X8857297Y5763072D01*
X8835998Y5997835D01*
X8823028Y6202226D01*
X8819651Y6361188D01*
X8827134Y6459669D01*
X8836171Y6482437D01*
X8872188Y6476985D01*
X8872188Y6476985D01*
G37*
X8872188Y6476985D02*
X8909908Y6389729D01*
X8949489Y6219973D01*
X8991090Y5967024D01*
X9034869Y5630190D01*
X9038371Y5600453D01*
X9074648Y5258616D01*
X9094944Y4991125D01*
X9099198Y4800239D01*
X9087351Y4688217D01*
X9063732Y4656666D01*
X9039880Y4695341D01*
X9008084Y4798828D01*
X8973685Y4948323D01*
X8958509Y5027083D01*
X8919818Y5262642D01*
X8885659Y5512989D01*
X8857297Y5763072D01*
X8835998Y5997835D01*
X8823028Y6202226D01*
X8819651Y6361188D01*
X8827134Y6459669D01*
X8836171Y6482437D01*
X8872188Y6476985D01*
G36*
X10266606Y5217563D02*
G01*
X10281906Y5105413D01*
X10287000Y4974166D01*
X10280830Y4830337D01*
X10264739Y4722749D01*
X10244667Y4677833D01*
X10221685Y4702230D01*
X10207255Y4804250D01*
X10202334Y4974166D01*
X10207400Y5146114D01*
X10221963Y5247041D01*
X10244667Y5270500D01*
X10266606Y5217563D01*
X10266606Y5217563D01*
G37*
X10266606Y5217563D02*
X10281906Y5105413D01*
X10287000Y4974166D01*
X10280830Y4830337D01*
X10264739Y4722749D01*
X10244667Y4677833D01*
X10221685Y4702230D01*
X10207255Y4804250D01*
X10202334Y4974166D01*
X10207400Y5146114D01*
X10221963Y5247041D01*
X10244667Y5270500D01*
X10266606Y5217563D01*
G36*
X10899133Y6461145D02*
G01*
X10910595Y6349923D01*
X10892786Y6162376D01*
X10845606Y5897566D01*
X10768956Y5554558D01*
X10749444Y5473886D01*
X10689709Y5238418D01*
X10633842Y5034375D01*
X10585767Y4874854D01*
X10549409Y4772954D01*
X10529984Y4741333D01*
X10513209Y4781567D01*
X10508555Y4895542D01*
X10516266Y5073172D01*
X10520583Y5131800D01*
X10550361Y5422187D01*
X10591455Y5701209D01*
X10640830Y5956613D01*
X10695454Y6176145D01*
X10752294Y6347550D01*
X10808315Y6458575D01*
X10858500Y6496976D01*
X10899133Y6461145D01*
X10899133Y6461145D01*
G37*
X10899133Y6461145D02*
X10910595Y6349923D01*
X10892786Y6162376D01*
X10845606Y5897566D01*
X10768956Y5554558D01*
X10749444Y5473886D01*
X10689709Y5238418D01*
X10633842Y5034375D01*
X10585767Y4874854D01*
X10549409Y4772954D01*
X10529984Y4741333D01*
X10513209Y4781567D01*
X10508555Y4895542D01*
X10516266Y5073172D01*
X10520583Y5131800D01*
X10550361Y5422187D01*
X10591455Y5701209D01*
X10640830Y5956613D01*
X10695454Y6176145D01*
X10752294Y6347550D01*
X10808315Y6458575D01*
X10858500Y6496976D01*
X10899133Y6461145D01*
G36*
X17544716Y5750528D02*
G01*
X17557831Y5662624D01*
X17565451Y5492430D01*
X17567685Y5281083D01*
X17566891Y5078477D01*
X17564257Y4910556D01*
X17560178Y4793194D01*
X17555051Y4742262D01*
X17554222Y4741333D01*
X17516093Y4765498D01*
X17511889Y4769555D01*
X17497435Y4825471D01*
X17488452Y4944187D01*
X17484628Y5104037D01*
X17485656Y5283352D01*
X17491226Y5460466D01*
X17501027Y5613708D01*
X17514750Y5721413D01*
X17526000Y5757333D01*
X17544716Y5750528D01*
X17544716Y5750528D01*
G37*
X17544716Y5750528D02*
X17557831Y5662624D01*
X17565451Y5492430D01*
X17567685Y5281083D01*
X17566891Y5078477D01*
X17564257Y4910556D01*
X17560178Y4793194D01*
X17555051Y4742262D01*
X17554222Y4741333D01*
X17516093Y4765498D01*
X17511889Y4769555D01*
X17497435Y4825471D01*
X17488452Y4944187D01*
X17484628Y5104037D01*
X17485656Y5283352D01*
X17491226Y5460466D01*
X17501027Y5613708D01*
X17514750Y5721413D01*
X17526000Y5757333D01*
X17544716Y5750528D01*
G36*
X9183601Y6565134D02*
G01*
X9226086Y6474905D01*
X9281923Y6342594D01*
X9290953Y6320174D01*
X9372094Y6044958D01*
X9421279Y5719534D01*
X9435826Y5373139D01*
X9413051Y5035009D01*
X9410561Y5016500D01*
X9396839Y4923261D01*
X9385741Y4873731D01*
X9375545Y4875263D01*
X9364529Y4935214D01*
X9350972Y5060938D01*
X9333152Y5259790D01*
X9321378Y5397500D01*
X9297656Y5647876D01*
X9270090Y5893612D01*
X9241684Y6110402D01*
X9215448Y6273940D01*
X9208818Y6307262D01*
X9180931Y6448191D01*
X9164514Y6551683D01*
X9163058Y6594836D01*
X9183601Y6565134D01*
X9183601Y6565134D01*
G37*
X9183601Y6565134D02*
X9226086Y6474905D01*
X9281923Y6342594D01*
X9290953Y6320174D01*
X9372094Y6044958D01*
X9421279Y5719534D01*
X9435826Y5373139D01*
X9413051Y5035009D01*
X9410561Y5016500D01*
X9396839Y4923261D01*
X9385741Y4873731D01*
X9375545Y4875263D01*
X9364529Y4935214D01*
X9350972Y5060938D01*
X9333152Y5259790D01*
X9321378Y5397500D01*
X9297656Y5647876D01*
X9270090Y5893612D01*
X9241684Y6110402D01*
X9215448Y6273940D01*
X9208818Y6307262D01*
X9180931Y6448191D01*
X9164514Y6551683D01*
X9163058Y6594836D01*
X9183601Y6565134D01*
G36*
X10096709Y6395297D02*
G01*
X10111592Y6288843D01*
X10117635Y6132786D01*
X10117667Y6119665D01*
X10112352Y5964033D01*
X10098319Y5843524D01*
X10078437Y5781263D01*
X10075334Y5778500D01*
X10052775Y5803337D01*
X10038390Y5906266D01*
X10033018Y6081029D01*
X10033000Y6093501D01*
X10037918Y6262116D01*
X10051356Y6380716D01*
X10071343Y6433406D01*
X10075334Y6434666D01*
X10096709Y6395297D01*
X10096709Y6395297D01*
G37*
X10096709Y6395297D02*
X10111592Y6288843D01*
X10117635Y6132786D01*
X10117667Y6119665D01*
X10112352Y5964033D01*
X10098319Y5843524D01*
X10078437Y5781263D01*
X10075334Y5778500D01*
X10052775Y5803337D01*
X10038390Y5906266D01*
X10033018Y6081029D01*
X10033000Y6093501D01*
X10037918Y6262116D01*
X10051356Y6380716D01*
X10071343Y6433406D01*
X10075334Y6434666D01*
X10096709Y6395297D01*
G36*
X10435940Y6402896D02*
G01*
X10451239Y6290746D01*
X10456334Y6159500D01*
X10450163Y6015670D01*
X10434072Y5908082D01*
X10414000Y5863166D01*
X10391018Y5887563D01*
X10376588Y5989583D01*
X10371667Y6159500D01*
X10376734Y6331447D01*
X10391296Y6432374D01*
X10414000Y6455833D01*
X10435940Y6402896D01*
X10435940Y6402896D01*
G37*
X10435940Y6402896D02*
X10451239Y6290746D01*
X10456334Y6159500D01*
X10450163Y6015670D01*
X10434072Y5908082D01*
X10414000Y5863166D01*
X10391018Y5887563D01*
X10376588Y5989583D01*
X10371667Y6159500D01*
X10376734Y6331447D01*
X10391296Y6432374D01*
X10414000Y6455833D01*
X10435940Y6402896D01*
G36*
X8001000Y6540500D02*
G01*
X7979834Y6519333D01*
X7958667Y6540500D01*
X7979834Y6561666D01*
X8001000Y6540500D01*
X8001000Y6540500D01*
G37*
X8001000Y6540500D02*
X7979834Y6519333D01*
X7958667Y6540500D01*
X7979834Y6561666D01*
X8001000Y6540500D01*
G36*
X16842265Y-10713236D02*
G01*
X16928001Y-10726305D01*
X16970830Y-10756087D01*
X16990217Y-10803735D01*
X17004608Y-10886954D01*
X16976486Y-10911323D01*
X16890007Y-10887261D01*
X16872949Y-10880851D01*
X16677065Y-10839880D01*
X16492305Y-10861553D01*
X16367543Y-10925073D01*
X16276639Y-11024914D01*
X16266724Y-11113479D01*
X16334456Y-11187031D01*
X16476493Y-11241830D01*
X16678854Y-11273259D01*
X16841090Y-11292933D01*
X16945899Y-11324270D01*
X17020502Y-11377180D01*
X17049271Y-11408096D01*
X17129228Y-11550241D01*
X17133360Y-11689380D01*
X17070225Y-11815616D01*
X16948385Y-11919053D01*
X16776398Y-11989794D01*
X16562824Y-12017943D01*
X16521943Y-12017756D01*
X16384861Y-12010859D01*
X16274738Y-11999173D01*
X16245417Y-11993485D01*
X16184780Y-11938910D01*
X16171334Y-11875539D01*
X16175283Y-11817801D01*
X16201256Y-11796616D01*
X16270442Y-11807751D01*
X16368246Y-11836215D01*
X16548174Y-11867198D01*
X16712758Y-11854898D01*
X16846577Y-11806174D01*
X16934212Y-11727888D01*
X16960243Y-11626901D01*
X16948575Y-11577991D01*
X16875378Y-11498963D01*
X16735999Y-11447700D01*
X16551570Y-11430000D01*
X16345330Y-11402901D01*
X16199363Y-11323318D01*
X16133668Y-11232840D01*
X16090889Y-11084049D01*
X16118480Y-10959459D01*
X16161691Y-10895205D01*
X16264890Y-10797110D01*
X16393748Y-10739116D01*
X16570548Y-10713466D01*
X16692780Y-10710334D01*
X16842265Y-10713236D01*
X16842265Y-10713236D01*
G37*
X16842265Y-10713236D02*
X16928001Y-10726305D01*
X16970830Y-10756087D01*
X16990217Y-10803735D01*
X17004608Y-10886954D01*
X16976486Y-10911323D01*
X16890007Y-10887261D01*
X16872949Y-10880851D01*
X16677065Y-10839880D01*
X16492305Y-10861553D01*
X16367543Y-10925073D01*
X16276639Y-11024914D01*
X16266724Y-11113479D01*
X16334456Y-11187031D01*
X16476493Y-11241830D01*
X16678854Y-11273259D01*
X16841090Y-11292933D01*
X16945899Y-11324270D01*
X17020502Y-11377180D01*
X17049271Y-11408096D01*
X17129228Y-11550241D01*
X17133360Y-11689380D01*
X17070225Y-11815616D01*
X16948385Y-11919053D01*
X16776398Y-11989794D01*
X16562824Y-12017943D01*
X16521943Y-12017756D01*
X16384861Y-12010859D01*
X16274738Y-11999173D01*
X16245417Y-11993485D01*
X16184780Y-11938910D01*
X16171334Y-11875539D01*
X16175283Y-11817801D01*
X16201256Y-11796616D01*
X16270442Y-11807751D01*
X16368246Y-11836215D01*
X16548174Y-11867198D01*
X16712758Y-11854898D01*
X16846577Y-11806174D01*
X16934212Y-11727888D01*
X16960243Y-11626901D01*
X16948575Y-11577991D01*
X16875378Y-11498963D01*
X16735999Y-11447700D01*
X16551570Y-11430000D01*
X16345330Y-11402901D01*
X16199363Y-11323318D01*
X16133668Y-11232840D01*
X16090889Y-11084049D01*
X16118480Y-10959459D01*
X16161691Y-10895205D01*
X16264890Y-10797110D01*
X16393748Y-10739116D01*
X16570548Y-10713466D01*
X16692780Y-10710334D01*
X16842265Y-10713236D01*
G36*
X17968604Y-10905964D02*
G01*
X18042939Y-10968910D01*
X18111556Y-11079751D01*
X18154906Y-11202852D01*
X18161000Y-11256646D01*
X18156647Y-11297034D01*
X18134003Y-11326254D01*
X18078692Y-11348921D01*
X17976336Y-11369653D01*
X17812558Y-11393065D01*
X17684750Y-11409565D01*
X17567668Y-11430891D01*
X17495174Y-11456431D01*
X17483667Y-11469218D01*
X17507569Y-11522892D01*
X17565685Y-11607446D01*
X17571406Y-11614791D01*
X17685835Y-11698437D01*
X17835265Y-11729254D01*
X17985939Y-11703811D01*
X18057659Y-11664180D01*
X18147727Y-11608599D01*
X18192749Y-11618089D01*
X18203334Y-11678864D01*
X18164953Y-11754964D01*
X18064888Y-11816616D01*
X17925756Y-11857238D01*
X17770174Y-11870248D01*
X17620757Y-11849063D01*
X17619638Y-11848735D01*
X17477637Y-11767471D01*
X17379790Y-11633883D01*
X17327527Y-11468744D01*
X17322276Y-11292825D01*
X17325961Y-11278664D01*
X17488056Y-11278664D01*
X17520246Y-11301080D01*
X17608774Y-11293273D01*
X17638667Y-11288447D01*
X17773141Y-11270322D01*
X17888222Y-11261328D01*
X17899361Y-11261133D01*
X17972814Y-11235231D01*
X17990071Y-11174121D01*
X17956014Y-11101228D01*
X17875525Y-11039976D01*
X17851202Y-11030083D01*
X17716686Y-11018472D01*
X17593288Y-11065563D01*
X17509149Y-11156905D01*
X17490500Y-11215312D01*
X17488056Y-11278664D01*
X17325961Y-11278664D01*
X17365465Y-11126899D01*
X17458523Y-10991737D01*
X17556155Y-10925607D01*
X17706096Y-10886572D01*
X17871980Y-10884408D01*
X17968604Y-10905964D01*
X17968604Y-10905964D01*
G37*
X17968604Y-10905964D02*
X18042939Y-10968910D01*
X18111556Y-11079751D01*
X18154906Y-11202852D01*
X18161000Y-11256646D01*
X18156647Y-11297034D01*
X18134003Y-11326254D01*
X18078692Y-11348921D01*
X17976336Y-11369653D01*
X17812558Y-11393065D01*
X17684750Y-11409565D01*
X17567668Y-11430891D01*
X17495174Y-11456431D01*
X17483667Y-11469218D01*
X17507569Y-11522892D01*
X17565685Y-11607446D01*
X17571406Y-11614791D01*
X17685835Y-11698437D01*
X17835265Y-11729254D01*
X17985939Y-11703811D01*
X18057659Y-11664180D01*
X18147727Y-11608599D01*
X18192749Y-11618089D01*
X18203334Y-11678864D01*
X18164953Y-11754964D01*
X18064888Y-11816616D01*
X17925756Y-11857238D01*
X17770174Y-11870248D01*
X17620757Y-11849063D01*
X17619638Y-11848735D01*
X17477637Y-11767471D01*
X17379790Y-11633883D01*
X17327527Y-11468744D01*
X17322276Y-11292825D01*
X17325961Y-11278664D01*
X17488056Y-11278664D01*
X17520246Y-11301080D01*
X17608774Y-11293273D01*
X17638667Y-11288447D01*
X17773141Y-11270322D01*
X17888222Y-11261328D01*
X17899361Y-11261133D01*
X17972814Y-11235231D01*
X17990071Y-11174121D01*
X17956014Y-11101228D01*
X17875525Y-11039976D01*
X17851202Y-11030083D01*
X17716686Y-11018472D01*
X17593288Y-11065563D01*
X17509149Y-11156905D01*
X17490500Y-11215312D01*
X17488056Y-11278664D01*
X17325961Y-11278664D01*
X17365465Y-11126899D01*
X17458523Y-10991737D01*
X17556155Y-10925607D01*
X17706096Y-10886572D01*
X17871980Y-10884408D01*
X17968604Y-10905964D01*
G36*
X19006706Y-10773794D02*
G01*
X19078247Y-10829527D01*
X19092334Y-10883148D01*
X19081228Y-10935435D01*
X19031983Y-10937265D01*
X18979146Y-10919204D01*
X18835353Y-10895434D01*
X18691460Y-10919423D01*
X18585270Y-10984544D01*
X18581486Y-10988931D01*
X18541431Y-11089751D01*
X18532965Y-11232427D01*
X18554708Y-11380829D01*
X18600703Y-11492121D01*
X18700084Y-11574158D01*
X18835428Y-11601374D01*
X18975541Y-11570504D01*
X19031326Y-11537180D01*
X19120931Y-11481762D01*
X19165762Y-11491635D01*
X19177000Y-11559160D01*
X19138846Y-11641926D01*
X19030193Y-11707327D01*
X18867726Y-11758204D01*
X18730926Y-11755086D01*
X18643097Y-11727177D01*
X18500778Y-11626281D01*
X18407769Y-11466340D01*
X18372741Y-11262587D01*
X18372667Y-11252175D01*
X18381318Y-11111565D01*
X18403207Y-10995980D01*
X18416255Y-10961989D01*
X18497762Y-10869986D01*
X18617845Y-10802800D01*
X18756220Y-10762796D01*
X18892602Y-10752339D01*
X19006706Y-10773794D01*
X19006706Y-10773794D01*
G37*
X19006706Y-10773794D02*
X19078247Y-10829527D01*
X19092334Y-10883148D01*
X19081228Y-10935435D01*
X19031983Y-10937265D01*
X18979146Y-10919204D01*
X18835353Y-10895434D01*
X18691460Y-10919423D01*
X18585270Y-10984544D01*
X18581486Y-10988931D01*
X18541431Y-11089751D01*
X18532965Y-11232427D01*
X18554708Y-11380829D01*
X18600703Y-11492121D01*
X18700084Y-11574158D01*
X18835428Y-11601374D01*
X18975541Y-11570504D01*
X19031326Y-11537180D01*
X19120931Y-11481762D01*
X19165762Y-11491635D01*
X19177000Y-11559160D01*
X19138846Y-11641926D01*
X19030193Y-11707327D01*
X18867726Y-11758204D01*
X18730926Y-11755086D01*
X18643097Y-11727177D01*
X18500778Y-11626281D01*
X18407769Y-11466340D01*
X18372741Y-11262587D01*
X18372667Y-11252175D01*
X18381318Y-11111565D01*
X18403207Y-10995980D01*
X18416255Y-10961989D01*
X18497762Y-10869986D01*
X18617845Y-10802800D01*
X18756220Y-10762796D01*
X18892602Y-10752339D01*
X19006706Y-10773794D01*
G36*
X20213288Y-10298520D02*
G01*
X20207634Y-10336905D01*
X20205396Y-10339917D01*
X20161735Y-10397444D01*
X20082474Y-10502049D01*
X19983097Y-10633294D01*
X19960811Y-10662737D01*
X19756530Y-10932641D01*
X20091182Y-11242860D01*
X20236507Y-11379091D01*
X20325699Y-11468586D01*
X20365653Y-11521139D01*
X20363266Y-11546541D01*
X20325435Y-11554588D01*
X20311017Y-11555040D01*
X20215750Y-11531011D01*
X20089126Y-11451850D01*
X19935259Y-11324167D01*
X19810953Y-11216782D01*
X19709433Y-11135591D01*
X19647798Y-11094054D01*
X19639429Y-11091334D01*
X19582773Y-11129631D01*
X19553177Y-11235156D01*
X19553989Y-11393855D01*
X19558245Y-11431906D01*
X19571160Y-11556290D01*
X19563820Y-11618444D01*
X19529676Y-11639688D01*
X19493812Y-11641667D01*
X19453631Y-11635956D01*
X19424618Y-11609254D01*
X19402480Y-11547208D01*
X19382927Y-11435463D01*
X19361667Y-11259665D01*
X19351426Y-11165417D01*
X19328243Y-10955550D01*
X19305491Y-10760663D01*
X19286166Y-10605844D01*
X19275613Y-10530417D01*
X19265013Y-10426396D01*
X19283415Y-10381283D01*
X19337877Y-10371667D01*
X19388909Y-10383315D01*
X19420562Y-10431113D01*
X19441849Y-10534343D01*
X19451677Y-10615084D01*
X19474157Y-10796784D01*
X19499596Y-10904384D01*
X19537251Y-10938740D01*
X19596378Y-10900706D01*
X19686237Y-10791138D01*
X19790834Y-10646422D01*
X19918614Y-10473661D01*
X20013716Y-10363342D01*
X20086497Y-10304997D01*
X20145267Y-10288161D01*
X20213288Y-10298520D01*
X20213288Y-10298520D01*
G37*
X20213288Y-10298520D02*
X20207634Y-10336905D01*
X20205396Y-10339917D01*
X20161735Y-10397444D01*
X20082474Y-10502049D01*
X19983097Y-10633294D01*
X19960811Y-10662737D01*
X19756530Y-10932641D01*
X20091182Y-11242860D01*
X20236507Y-11379091D01*
X20325699Y-11468586D01*
X20365653Y-11521139D01*
X20363266Y-11546541D01*
X20325435Y-11554588D01*
X20311017Y-11555040D01*
X20215750Y-11531011D01*
X20089126Y-11451850D01*
X19935259Y-11324167D01*
X19810953Y-11216782D01*
X19709433Y-11135591D01*
X19647798Y-11094054D01*
X19639429Y-11091334D01*
X19582773Y-11129631D01*
X19553177Y-11235156D01*
X19553989Y-11393855D01*
X19558245Y-11431906D01*
X19571160Y-11556290D01*
X19563820Y-11618444D01*
X19529676Y-11639688D01*
X19493812Y-11641667D01*
X19453631Y-11635956D01*
X19424618Y-11609254D01*
X19402480Y-11547208D01*
X19382927Y-11435463D01*
X19361667Y-11259665D01*
X19351426Y-11165417D01*
X19328243Y-10955550D01*
X19305491Y-10760663D01*
X19286166Y-10605844D01*
X19275613Y-10530417D01*
X19265013Y-10426396D01*
X19283415Y-10381283D01*
X19337877Y-10371667D01*
X19388909Y-10383315D01*
X19420562Y-10431113D01*
X19441849Y-10534343D01*
X19451677Y-10615084D01*
X19474157Y-10796784D01*
X19499596Y-10904384D01*
X19537251Y-10938740D01*
X19596378Y-10900706D01*
X19686237Y-10791138D01*
X19790834Y-10646422D01*
X19918614Y-10473661D01*
X20013716Y-10363342D01*
X20086497Y-10304997D01*
X20145267Y-10288161D01*
X20213288Y-10298520D01*
G36*
X21359781Y-10191783D02*
G01*
X21453321Y-10260052D01*
X21473558Y-10309196D01*
X21485132Y-10387737D01*
X21483466Y-10414000D01*
X21442004Y-10399313D01*
X21350542Y-10362577D01*
X21313160Y-10347073D01*
X21113826Y-10302167D01*
X20926816Y-10331914D01*
X20770488Y-10433093D01*
X20759901Y-10444129D01*
X20680700Y-10584918D01*
X20654519Y-10759569D01*
X20676366Y-10944091D01*
X20741248Y-11114494D01*
X20844173Y-11246789D01*
X20939077Y-11304994D01*
X21100796Y-11328062D01*
X21279682Y-11295761D01*
X21435956Y-11215379D01*
X21438296Y-11213553D01*
X21532532Y-11148227D01*
X21578128Y-11144851D01*
X21585303Y-11204512D01*
X21582361Y-11228917D01*
X21529071Y-11328185D01*
X21414263Y-11403698D01*
X21258737Y-11451509D01*
X21083293Y-11467672D01*
X20908728Y-11448242D01*
X20755843Y-11389271D01*
X20751369Y-11386582D01*
X20610114Y-11252257D01*
X20517937Y-11056952D01*
X20480166Y-10812176D01*
X20479830Y-10800146D01*
X20508297Y-10563782D01*
X20602414Y-10377077D01*
X20757538Y-10245767D01*
X20969025Y-10175586D01*
X20987734Y-10172852D01*
X21201786Y-10161930D01*
X21359781Y-10191783D01*
X21359781Y-10191783D01*
G37*
X21359781Y-10191783D02*
X21453321Y-10260052D01*
X21473558Y-10309196D01*
X21485132Y-10387737D01*
X21483466Y-10414000D01*
X21442004Y-10399313D01*
X21350542Y-10362577D01*
X21313160Y-10347073D01*
X21113826Y-10302167D01*
X20926816Y-10331914D01*
X20770488Y-10433093D01*
X20759901Y-10444129D01*
X20680700Y-10584918D01*
X20654519Y-10759569D01*
X20676366Y-10944091D01*
X20741248Y-11114494D01*
X20844173Y-11246789D01*
X20939077Y-11304994D01*
X21100796Y-11328062D01*
X21279682Y-11295761D01*
X21435956Y-11215379D01*
X21438296Y-11213553D01*
X21532532Y-11148227D01*
X21578128Y-11144851D01*
X21585303Y-11204512D01*
X21582361Y-11228917D01*
X21529071Y-11328185D01*
X21414263Y-11403698D01*
X21258737Y-11451509D01*
X21083293Y-11467672D01*
X20908728Y-11448242D01*
X20755843Y-11389271D01*
X20751369Y-11386582D01*
X20610114Y-11252257D01*
X20517937Y-11056952D01*
X20480166Y-10812176D01*
X20479830Y-10800146D01*
X20508297Y-10563782D01*
X20602414Y-10377077D01*
X20757538Y-10245767D01*
X20969025Y-10175586D01*
X20987734Y-10172852D01*
X21201786Y-10161930D01*
X21359781Y-10191783D01*
G36*
X6794809Y-11828476D02*
G01*
X6880484Y-11920749D01*
X6892579Y-12042154D01*
X6838399Y-12188972D01*
X6742275Y-12315285D01*
X6629667Y-12358843D01*
X6504357Y-12319100D01*
X6419273Y-12249727D01*
X6327739Y-12124488D01*
X6318417Y-12009485D01*
X6390717Y-11897284D01*
X6391257Y-11896744D01*
X6531640Y-11802845D01*
X6679620Y-11784590D01*
X6794809Y-11828476D01*
X6794809Y-11828476D01*
G37*
X6794809Y-11828476D02*
X6880484Y-11920749D01*
X6892579Y-12042154D01*
X6838399Y-12188972D01*
X6742275Y-12315285D01*
X6629667Y-12358843D01*
X6504357Y-12319100D01*
X6419273Y-12249727D01*
X6327739Y-12124488D01*
X6318417Y-12009485D01*
X6390717Y-11897284D01*
X6391257Y-11896744D01*
X6531640Y-11802845D01*
X6679620Y-11784590D01*
X6794809Y-11828476D01*
G36*
X9987482Y-11620844D02*
G01*
X10066722Y-11717470D01*
X10099109Y-11845441D01*
X10069209Y-11991757D01*
X10057914Y-12015421D01*
X9961040Y-12143892D01*
X9847616Y-12189427D01*
X9720012Y-12151618D01*
X9637015Y-12088188D01*
X9544931Y-11956183D01*
X9530103Y-11814276D01*
X9593114Y-11680753D01*
X9622979Y-11649046D01*
X9750176Y-11573631D01*
X9876822Y-11568564D01*
X9987482Y-11620844D01*
X9987482Y-11620844D01*
G37*
X9987482Y-11620844D02*
X10066722Y-11717470D01*
X10099109Y-11845441D01*
X10069209Y-11991757D01*
X10057914Y-12015421D01*
X9961040Y-12143892D01*
X9847616Y-12189427D01*
X9720012Y-12151618D01*
X9637015Y-12088188D01*
X9544931Y-11956183D01*
X9530103Y-11814276D01*
X9593114Y-11680753D01*
X9622979Y-11649046D01*
X9750176Y-11573631D01*
X9876822Y-11568564D01*
X9987482Y-11620844D01*
G36*
X26659417Y-9847254D02*
G01*
X26736101Y-9932681D01*
X26732652Y-10031580D01*
X26690258Y-10091362D01*
X26589111Y-10154324D01*
X26496773Y-10133591D01*
X26460021Y-10098534D01*
X26423015Y-10004103D01*
X26446051Y-9911960D01*
X26511103Y-9844822D01*
X26600145Y-9825408D01*
X26659417Y-9847254D01*
X26659417Y-9847254D01*
G37*
X26659417Y-9847254D02*
X26736101Y-9932681D01*
X26732652Y-10031580D01*
X26690258Y-10091362D01*
X26589111Y-10154324D01*
X26496773Y-10133591D01*
X26460021Y-10098534D01*
X26423015Y-10004103D01*
X26446051Y-9911960D01*
X26511103Y-9844822D01*
X26600145Y-9825408D01*
X26659417Y-9847254D01*
G36*
X27808221Y-9601804D02*
G01*
X27836091Y-9628909D01*
X27922040Y-9751824D01*
X27932555Y-9866395D01*
X27889200Y-9939867D01*
X27789140Y-9987733D01*
X27671384Y-9958568D01*
X27578243Y-9886758D01*
X27496651Y-9790083D01*
X27483026Y-9714706D01*
X27535521Y-9634024D01*
X27559000Y-9609667D01*
X27645225Y-9540777D01*
X27719431Y-9537540D01*
X27808221Y-9601804D01*
X27808221Y-9601804D01*
G37*
X27808221Y-9601804D02*
X27836091Y-9628909D01*
X27922040Y-9751824D01*
X27932555Y-9866395D01*
X27889200Y-9939867D01*
X27789140Y-9987733D01*
X27671384Y-9958568D01*
X27578243Y-9886758D01*
X27496651Y-9790083D01*
X27483026Y-9714706D01*
X27535521Y-9634024D01*
X27559000Y-9609667D01*
X27645225Y-9540777D01*
X27719431Y-9537540D01*
X27808221Y-9601804D01*
M02*
