G04 #@! TF.GenerationSoftware,KiCad,Pcbnew,(5.1.2)-1*
G04 #@! TF.CreationDate,2019-05-18T15:03:22-05:00*
G04 #@! TF.ProjectId,van-sao,76616e2d-7361-46f2-9e6b-696361645f70,rev?*
G04 #@! TF.SameCoordinates,Original*
G04 #@! TF.FileFunction,Soldermask,Bot*
G04 #@! TF.FilePolarity,Negative*
%FSLAX46Y46*%
G04 Gerber Fmt 4.6, Leading zero omitted, Abs format (unit mm)*
G04 Created by KiCad (PCBNEW (5.1.2)-1) date 2019-05-18 15:03:22*
%MOMM*%
%LPD*%
G04 APERTURE LIST*
%ADD10C,0.300000*%
%ADD11C,0.200000*%
%ADD12C,0.100000*%
%ADD13C,1.650000*%
%ADD14C,1.375000*%
%ADD15C,2.100000*%
%ADD16O,2.100000X2.100000*%
G04 APERTURE END LIST*
D10*
X5140571Y10870857D02*
X4997714Y10799428D01*
X4711999Y10799428D01*
X4569142Y10870857D01*
X4497714Y11013714D01*
X4497714Y11085142D01*
X4569142Y11228000D01*
X4711999Y11299428D01*
X4926285Y11299428D01*
X5069142Y11370857D01*
X5140571Y11513714D01*
X5140571Y11585142D01*
X5069142Y11728000D01*
X4926285Y11799428D01*
X4711999Y11799428D01*
X4569142Y11728000D01*
X3997714Y11799428D02*
X3640571Y10799428D01*
X3283428Y11799428D02*
X3640571Y10799428D01*
X3783428Y10442285D01*
X3854857Y10370857D01*
X3997714Y10299428D01*
X2783428Y10870857D02*
X2640571Y10799428D01*
X2354857Y10799428D01*
X2211999Y10870857D01*
X2140571Y11013714D01*
X2140571Y11085142D01*
X2211999Y11228000D01*
X2354857Y11299428D01*
X2569142Y11299428D01*
X2711999Y11370857D01*
X2783428Y11513714D01*
X2783428Y11585142D01*
X2711999Y11728000D01*
X2569142Y11799428D01*
X2354857Y11799428D01*
X2211999Y11728000D01*
X854857Y10799428D02*
X854857Y11585142D01*
X926285Y11728000D01*
X1069142Y11799428D01*
X1354857Y11799428D01*
X1497714Y11728000D01*
X854857Y10870857D02*
X997714Y10799428D01*
X1354857Y10799428D01*
X1497714Y10870857D01*
X1569142Y11013714D01*
X1569142Y11156571D01*
X1497714Y11299428D01*
X1354857Y11370857D01*
X997714Y11370857D01*
X854857Y11442285D01*
X-502285Y10799428D02*
X-502285Y11585142D01*
X-430857Y11728000D01*
X-288000Y11799428D01*
X-2285Y11799428D01*
X140571Y11728000D01*
X-502285Y10870857D02*
X-359428Y10799428D01*
X-2285Y10799428D01*
X140571Y10870857D01*
X211999Y11013714D01*
X211999Y11156571D01*
X140571Y11299428D01*
X-2285Y11370857D01*
X-359428Y11370857D01*
X-502285Y11442285D01*
X-1216571Y10799428D02*
X-1216571Y11799428D01*
X-1216571Y11513714D02*
X-1288000Y11656571D01*
X-1359428Y11728000D01*
X-1502285Y11799428D01*
X-1645142Y11799428D01*
X-2359428Y10799428D02*
X-2216571Y10870857D01*
X-2145142Y10942285D01*
X-2073714Y11085142D01*
X-2073714Y11513714D01*
X-2145142Y11656571D01*
X-2216571Y11728000D01*
X-2359428Y11799428D01*
X-2573714Y11799428D01*
X-2716571Y11728000D01*
X-2788000Y11656571D01*
X-2859428Y11513714D01*
X-2859428Y11085142D01*
X-2788000Y10942285D01*
X-2716571Y10870857D01*
X-2573714Y10799428D01*
X-2359428Y10799428D01*
X-3502285Y11799428D02*
X-3502285Y10799428D01*
X-3502285Y11656571D02*
X-3573714Y11728000D01*
X-3716571Y11799428D01*
X-3930857Y11799428D01*
X-4073714Y11728000D01*
X-4145142Y11585142D01*
X-4145142Y10799428D01*
X5292142Y8068428D02*
X5292142Y9568428D01*
X4935000Y9568428D01*
X4720714Y9497000D01*
X4577857Y9354142D01*
X4506428Y9211285D01*
X4435000Y8925571D01*
X4435000Y8711285D01*
X4506428Y8425571D01*
X4577857Y8282714D01*
X4720714Y8139857D01*
X4935000Y8068428D01*
X5292142Y8068428D01*
X3220714Y8139857D02*
X3363571Y8068428D01*
X3649285Y8068428D01*
X3792142Y8139857D01*
X3863571Y8282714D01*
X3863571Y8854142D01*
X3792142Y8997000D01*
X3649285Y9068428D01*
X3363571Y9068428D01*
X3220714Y8997000D01*
X3149285Y8854142D01*
X3149285Y8711285D01*
X3863571Y8568428D01*
X1863571Y8068428D02*
X1863571Y8854142D01*
X1935000Y8997000D01*
X2077857Y9068428D01*
X2363571Y9068428D01*
X2506428Y8997000D01*
X1863571Y8139857D02*
X2006428Y8068428D01*
X2363571Y8068428D01*
X2506428Y8139857D01*
X2577857Y8282714D01*
X2577857Y8425571D01*
X2506428Y8568428D01*
X2363571Y8639857D01*
X2006428Y8639857D01*
X1863571Y8711285D01*
X506428Y8068428D02*
X506428Y9568428D01*
X506428Y8139857D02*
X649285Y8068428D01*
X935000Y8068428D01*
X1077857Y8139857D01*
X1149285Y8211285D01*
X1220714Y8354142D01*
X1220714Y8782714D01*
X1149285Y8925571D01*
X1077857Y8997000D01*
X935000Y9068428D01*
X649285Y9068428D01*
X506428Y8997000D01*
X6428Y9568428D02*
X-850714Y9568428D01*
X-422142Y8068428D02*
X-422142Y9568428D01*
X-1350714Y8068428D02*
X-1350714Y9068428D01*
X-1350714Y8782714D02*
X-1422142Y8925571D01*
X-1493571Y8997000D01*
X-1636428Y9068428D01*
X-1779285Y9068428D01*
X-2136428Y9568428D02*
X-3064999Y9568428D01*
X-2564999Y8997000D01*
X-2779285Y8997000D01*
X-2922142Y8925571D01*
X-2993571Y8854142D01*
X-3064999Y8711285D01*
X-3064999Y8354142D01*
X-2993571Y8211285D01*
X-2922142Y8139857D01*
X-2779285Y8068428D01*
X-2350714Y8068428D01*
X-2207857Y8139857D01*
X-2136428Y8211285D01*
X-3564999Y9568428D02*
X-4493571Y9568428D01*
X-3993571Y8997000D01*
X-4207857Y8997000D01*
X-4350714Y8925571D01*
X-4422142Y8854142D01*
X-4493571Y8711285D01*
X-4493571Y8354142D01*
X-4422142Y8211285D01*
X-4350714Y8139857D01*
X-4207857Y8068428D01*
X-3779285Y8068428D01*
X-3636428Y8139857D01*
X-3564999Y8211285D01*
X17284285Y14002857D02*
X17070000Y13931428D01*
X16712857Y13931428D01*
X16570000Y14002857D01*
X16498571Y14074285D01*
X16427142Y14217142D01*
X16427142Y14360000D01*
X16498571Y14502857D01*
X16570000Y14574285D01*
X16712857Y14645714D01*
X16998571Y14717142D01*
X17141428Y14788571D01*
X17212857Y14860000D01*
X17284285Y15002857D01*
X17284285Y15145714D01*
X17212857Y15288571D01*
X17141428Y15360000D01*
X16998571Y15431428D01*
X16641428Y15431428D01*
X16427142Y15360000D01*
X15212857Y14002857D02*
X15355714Y13931428D01*
X15641428Y13931428D01*
X15784285Y14002857D01*
X15855714Y14145714D01*
X15855714Y14717142D01*
X15784285Y14860000D01*
X15641428Y14931428D01*
X15355714Y14931428D01*
X15212857Y14860000D01*
X15141428Y14717142D01*
X15141428Y14574285D01*
X15855714Y14431428D01*
X13855714Y14002857D02*
X13998571Y13931428D01*
X14284285Y13931428D01*
X14427142Y14002857D01*
X14498571Y14074285D01*
X14569999Y14217142D01*
X14569999Y14645714D01*
X14498571Y14788571D01*
X14427142Y14860000D01*
X14284285Y14931428D01*
X13998571Y14931428D01*
X13855714Y14860000D01*
X13212857Y13931428D02*
X13212857Y15431428D01*
X12355714Y13931428D02*
X12998571Y14788571D01*
X12355714Y15431428D02*
X13212857Y14574285D01*
X10855714Y14074285D02*
X10927142Y14002857D01*
X11141428Y13931428D01*
X11284285Y13931428D01*
X11498571Y14002857D01*
X11641428Y14145714D01*
X11712857Y14288571D01*
X11784285Y14574285D01*
X11784285Y14788571D01*
X11712857Y15074285D01*
X11641428Y15217142D01*
X11498571Y15360000D01*
X11284285Y15431428D01*
X11141428Y15431428D01*
X10927142Y15360000D01*
X10855714Y15288571D01*
X9069999Y13931428D02*
X9069999Y15431428D01*
X8712857Y15431428D01*
X8498571Y15360000D01*
X8355714Y15217142D01*
X8284285Y15074285D01*
X8212857Y14788571D01*
X8212857Y14574285D01*
X8284285Y14288571D01*
X8355714Y14145714D01*
X8498571Y14002857D01*
X8712857Y13931428D01*
X9069999Y13931428D01*
X6998571Y14002857D02*
X7141428Y13931428D01*
X7427142Y13931428D01*
X7569999Y14002857D01*
X7641428Y14145714D01*
X7641428Y14717142D01*
X7569999Y14860000D01*
X7427142Y14931428D01*
X7141428Y14931428D01*
X6998571Y14860000D01*
X6927142Y14717142D01*
X6927142Y14574285D01*
X7641428Y14431428D01*
X6498571Y14931428D02*
X5927142Y14931428D01*
X6284285Y13931428D02*
X6284285Y15217142D01*
X6212857Y15360000D01*
X6069999Y15431428D01*
X5927142Y15431428D01*
X4784285Y14002857D02*
X4927142Y13931428D01*
X5212857Y13931428D01*
X5355714Y14002857D01*
X5427142Y14074285D01*
X5498571Y14217142D01*
X5498571Y14645714D01*
X5427142Y14788571D01*
X5355714Y14860000D01*
X5212857Y14931428D01*
X4927142Y14931428D01*
X4784285Y14860000D01*
X3927142Y13931428D02*
X4069999Y14002857D01*
X4141428Y14074285D01*
X4212857Y14217142D01*
X4212857Y14645714D01*
X4141428Y14788571D01*
X4069999Y14860000D01*
X3927142Y14931428D01*
X3712857Y14931428D01*
X3569999Y14860000D01*
X3498571Y14788571D01*
X3427142Y14645714D01*
X3427142Y14217142D01*
X3498571Y14074285D01*
X3569999Y14002857D01*
X3712857Y13931428D01*
X3927142Y13931428D01*
X2784285Y14931428D02*
X2784285Y13931428D01*
X2784285Y14788571D02*
X2712857Y14860000D01*
X2569999Y14931428D01*
X2355714Y14931428D01*
X2212857Y14860000D01*
X2141428Y14717142D01*
X2141428Y13931428D01*
X1498571Y15288571D02*
X1427142Y15360000D01*
X1284285Y15431428D01*
X927142Y15431428D01*
X784285Y15360000D01*
X712857Y15288571D01*
X641428Y15145714D01*
X641428Y15002857D01*
X712857Y14788571D01*
X1569999Y13931428D01*
X641428Y13931428D01*
X-644285Y15431428D02*
X-358571Y15431428D01*
X-215714Y15360000D01*
X-144285Y15288571D01*
X-1428Y15074285D01*
X69999Y14788571D01*
X69999Y14217142D01*
X-1428Y14074285D01*
X-72857Y14002857D01*
X-215714Y13931428D01*
X-501428Y13931428D01*
X-644285Y14002857D01*
X-715714Y14074285D01*
X-787142Y14217142D01*
X-787142Y14574285D01*
X-715714Y14717142D01*
X-644285Y14788571D01*
X-501428Y14860000D01*
X-215714Y14860000D01*
X-72857Y14788571D01*
X-1428Y14717142D01*
X69999Y14574285D01*
X-3430000Y13931428D02*
X-2930000Y14645714D01*
X-2572857Y13931428D02*
X-2572857Y15431428D01*
X-3144285Y15431428D01*
X-3287142Y15360000D01*
X-3358571Y15288571D01*
X-3430000Y15145714D01*
X-3430000Y14931428D01*
X-3358571Y14788571D01*
X-3287142Y14717142D01*
X-3144285Y14645714D01*
X-2572857Y14645714D01*
X-4287142Y13931428D02*
X-4144285Y14002857D01*
X-4072857Y14074285D01*
X-4001428Y14217142D01*
X-4001428Y14645714D01*
X-4072857Y14788571D01*
X-4144285Y14860000D01*
X-4287142Y14931428D01*
X-4501428Y14931428D01*
X-4644285Y14860000D01*
X-4715714Y14788571D01*
X-4787142Y14645714D01*
X-4787142Y14217142D01*
X-4715714Y14074285D01*
X-4644285Y14002857D01*
X-4501428Y13931428D01*
X-4287142Y13931428D01*
X-6072857Y13931428D02*
X-6072857Y14717142D01*
X-6001428Y14860000D01*
X-5858571Y14931428D01*
X-5572857Y14931428D01*
X-5430000Y14860000D01*
X-6072857Y14002857D02*
X-5930000Y13931428D01*
X-5572857Y13931428D01*
X-5430000Y14002857D01*
X-5358571Y14145714D01*
X-5358571Y14288571D01*
X-5430000Y14431428D01*
X-5572857Y14502857D01*
X-5930000Y14502857D01*
X-6072857Y14574285D01*
X-7430000Y13931428D02*
X-7430000Y15431428D01*
X-7430000Y14002857D02*
X-7287142Y13931428D01*
X-7001428Y13931428D01*
X-6858571Y14002857D01*
X-6787142Y14074285D01*
X-6715714Y14217142D01*
X-6715714Y14645714D01*
X-6787142Y14788571D01*
X-6858571Y14860000D01*
X-7001428Y14931428D01*
X-7287142Y14931428D01*
X-7430000Y14860000D01*
X-10144285Y14074285D02*
X-10072857Y14002857D01*
X-9858571Y13931428D01*
X-9715714Y13931428D01*
X-9501428Y14002857D01*
X-9358571Y14145714D01*
X-9287142Y14288571D01*
X-9215714Y14574285D01*
X-9215714Y14788571D01*
X-9287142Y15074285D01*
X-9358571Y15217142D01*
X-9501428Y15360000D01*
X-9715714Y15431428D01*
X-9858571Y15431428D01*
X-10072857Y15360000D01*
X-10144285Y15288571D01*
X-10787142Y13931428D02*
X-10787142Y14931428D01*
X-10787142Y14645714D02*
X-10858571Y14788571D01*
X-10930000Y14860000D01*
X-11072857Y14931428D01*
X-11215714Y14931428D01*
X-12287142Y14002857D02*
X-12144285Y13931428D01*
X-11858571Y13931428D01*
X-11715714Y14002857D01*
X-11644285Y14145714D01*
X-11644285Y14717142D01*
X-11715714Y14860000D01*
X-11858571Y14931428D01*
X-12144285Y14931428D01*
X-12287142Y14860000D01*
X-12358571Y14717142D01*
X-12358571Y14574285D01*
X-11644285Y14431428D01*
X-12858571Y14931428D02*
X-13144285Y13931428D01*
X-13430000Y14645714D01*
X-13715714Y13931428D01*
X-14001428Y14931428D01*
X-14572857Y14074285D02*
X-14644285Y14002857D01*
X-14572857Y13931428D01*
X-14501428Y14002857D01*
X-14572857Y14074285D01*
X-14572857Y13931428D01*
X-14572857Y14860000D02*
X-14644285Y14788571D01*
X-14572857Y14717142D01*
X-14501428Y14788571D01*
X-14572857Y14860000D01*
X-14572857Y14717142D01*
D11*
X-23463035Y4555202D02*
X-23463035Y4555202D01*
X-22170500Y2580925D02*
X-22170500Y2546950D01*
X-22780872Y3657587D02*
X-22780872Y3657587D01*
X-23478200Y5422570D02*
X-23504525Y5436895D01*
X-22170500Y2546950D02*
X-22169000Y2536000D01*
X-22767927Y5600867D02*
X-22767927Y5600867D01*
X-24400460Y3959860D02*
X-24391235Y3941485D01*
X-22774535Y4513135D02*
X-22871128Y4617565D01*
X-22871128Y4617565D02*
X-22965889Y4725947D01*
X-22965889Y4725947D02*
X-23058756Y4836730D01*
X-23058756Y4836730D02*
X-23148229Y4947441D01*
X-23148229Y4947441D02*
X-23237734Y5062369D01*
X-23237734Y5062369D02*
X-23323894Y5178020D01*
X-23323894Y5178020D02*
X-23406960Y5297317D01*
X-23406960Y5297317D02*
X-23478200Y5422570D01*
X-22866530Y3362050D02*
X-22842195Y3538284D01*
X-22842195Y3538284D02*
X-22780872Y3657587D01*
X-23463035Y4555202D02*
X-23463035Y4555202D01*
X-23704017Y4428167D02*
X-23590152Y4515728D01*
X-23590152Y4515728D02*
X-23463035Y4555202D01*
X-23741367Y3724277D02*
X-23823597Y3842250D01*
X-23823597Y3842250D02*
X-23869594Y3997822D01*
X-23869594Y3997822D02*
X-23854715Y4183433D01*
X-23854715Y4183433D02*
X-23792617Y4321926D01*
X-23792617Y4321926D02*
X-23704017Y4428167D01*
X-23463027Y4555187D02*
X-23321405Y4518587D01*
X-22780872Y3314650D02*
X-22866530Y3362050D01*
X-23504855Y3619495D02*
X-23665004Y3659416D01*
X-23665004Y3659416D02*
X-23741367Y3724277D01*
X-22780872Y3657587D02*
X-22715153Y3523038D01*
X-22715153Y3523038D02*
X-22695215Y3362050D01*
X-22170500Y2580925D02*
X-22170500Y2546950D01*
X-21908675Y2483875D02*
X-21789148Y2565081D01*
X-21789148Y2565081D02*
X-21722203Y2698856D01*
X-21722203Y2698856D02*
X-21713602Y2891131D01*
X-21713602Y2891131D02*
X-21713465Y2914562D01*
X-22294737Y3724180D02*
X-22383601Y3839828D01*
X-22383601Y3839828D02*
X-22448510Y3975640D01*
X-22448510Y3975640D02*
X-22475735Y4122640D01*
X-23085710Y4121102D02*
X-23117104Y3952182D01*
X-23117104Y3952182D02*
X-23185672Y3820404D01*
X-23185672Y3820404D02*
X-23280397Y3714343D01*
X-23280397Y3714343D02*
X-23406833Y3637821D01*
X-23406833Y3637821D02*
X-23504855Y3619495D01*
X-23504525Y5436895D02*
X-23504855Y5436917D01*
X-22475735Y4122640D02*
X-22547596Y4251641D01*
X-22547596Y4251641D02*
X-22637571Y4362960D01*
X-22637571Y4362960D02*
X-22733040Y4469301D01*
X-22733040Y4469301D02*
X-22774535Y4513135D01*
X-22780872Y3657587D02*
X-22780872Y3657587D01*
X-23321405Y4518587D02*
X-23213505Y4424498D01*
X-23213505Y4424498D02*
X-23135464Y4302028D01*
X-23135464Y4302028D02*
X-23087402Y4150045D01*
X-23087402Y4150045D02*
X-23085710Y4121102D01*
X-21636657Y3347402D02*
X-21578742Y3489948D01*
X-21578742Y3489948D02*
X-21631818Y3637367D01*
X-21631818Y3637367D02*
X-21679932Y3659380D01*
X-22695215Y3362050D02*
X-22780872Y3314650D01*
X-21869937Y3663880D02*
X-22024589Y3617749D01*
X-22024589Y3617749D02*
X-22191903Y3651153D01*
X-22191903Y3651153D02*
X-22294737Y3724180D01*
X-21713465Y2914562D02*
X-21702009Y3104442D01*
X-21702009Y3104442D02*
X-21666335Y3270091D01*
X-21666335Y3270091D02*
X-21636657Y3347402D01*
X-23478200Y5422570D02*
X-23504525Y5436895D01*
X-21679932Y3659380D02*
X-21869937Y3663880D01*
X-22742802Y2432867D02*
X-22742802Y2237065D01*
X-22742802Y2237065D02*
X-22548260Y2260165D01*
X-22170500Y2546950D02*
X-22169000Y2536000D01*
X-22767927Y5600867D02*
X-22961026Y5592062D01*
X-22961026Y5592062D02*
X-23139362Y5569121D01*
X-23139362Y5569121D02*
X-23301757Y5530847D01*
X-23301757Y5530847D02*
X-23390540Y5473532D01*
X-22171242Y2609725D02*
X-22170500Y2580925D01*
X-22209342Y2819297D02*
X-22172194Y2656270D01*
X-22172194Y2656270D02*
X-22171242Y2609725D01*
X-22247442Y2595287D02*
X-22231080Y2779372D01*
X-22231080Y2779372D02*
X-22209342Y2819297D01*
X-22548260Y2260165D02*
X-22379049Y2291357D01*
X-22379049Y2291357D02*
X-22270961Y2383369D01*
X-22270961Y2383369D02*
X-22247645Y2561849D01*
X-22247645Y2561849D02*
X-22247442Y2595287D01*
X-22767927Y5600867D02*
X-22767927Y5600867D01*
X-22780902Y2628745D02*
X-22743336Y2465608D01*
X-22743336Y2465608D02*
X-22742802Y2432867D01*
X-21227832Y3867130D02*
X-21149864Y3990091D01*
X-21149864Y3990091D02*
X-21107666Y4147936D01*
X-21107666Y4147936D02*
X-21112032Y4267216D01*
X-22819002Y2438230D02*
X-22795090Y2614931D01*
X-22795090Y2614931D02*
X-22780902Y2628745D01*
X-24188435Y3660985D02*
X-24096058Y3550500D01*
X-24096058Y3550500D02*
X-24009246Y3435250D01*
X-24009246Y3435250D02*
X-23933511Y3310535D01*
X-23933511Y3310535D02*
X-23877080Y3164673D01*
X-23877080Y3164673D02*
X-23850321Y2990464D01*
X-23850321Y2990464D02*
X-23847207Y2887142D01*
X-24391235Y3941485D02*
X-24313657Y3817389D01*
X-24313657Y3817389D02*
X-24225675Y3704861D01*
X-24225675Y3704861D02*
X-24188435Y3660985D01*
X-24447035Y4343207D02*
X-24454072Y4149338D01*
X-24454072Y4149338D02*
X-24413406Y3988597D01*
X-24413406Y3988597D02*
X-24400460Y3959860D01*
X-23504855Y5436917D02*
X-23655429Y5386371D01*
X-23655429Y5386371D02*
X-23783446Y5313860D01*
X-23783446Y5313860D02*
X-23903400Y5232163D01*
X-23903400Y5232163D02*
X-24014867Y5141989D01*
X-24014867Y5141989D02*
X-24078800Y5079467D01*
X-22826645Y4662107D02*
X-22731432Y4556101D01*
X-22731432Y4556101D02*
X-22630775Y4456274D01*
X-22630775Y4456274D02*
X-22516909Y4369874D01*
X-22516909Y4369874D02*
X-22376015Y4399322D01*
X-22942842Y2252095D02*
X-22820749Y2330818D01*
X-22820749Y2330818D02*
X-22819002Y2438230D01*
X-23314355Y2595257D02*
X-23297596Y2411696D01*
X-23297596Y2411696D02*
X-23211544Y2297446D01*
X-23211544Y2297446D02*
X-23048564Y2258447D01*
X-23048564Y2258447D02*
X-22942842Y2252095D01*
X-23352455Y2819267D02*
X-23315746Y2655647D01*
X-23315746Y2655647D02*
X-23314355Y2595257D01*
X-23390555Y2609695D02*
X-23371463Y2791078D01*
X-23371463Y2791078D02*
X-23352455Y2819267D01*
X-23652822Y2483845D02*
X-23522403Y2414033D01*
X-23522403Y2414033D02*
X-23396559Y2489120D01*
X-23396559Y2489120D02*
X-23390555Y2609695D01*
X-23847207Y2887142D02*
X-23839361Y2694906D01*
X-23839361Y2694906D02*
X-23770474Y2563303D01*
X-23770474Y2563303D02*
X-23652822Y2483845D01*
X-24400460Y3959860D02*
X-24391235Y3941485D01*
X-24078800Y5079467D02*
X-24169458Y4968091D01*
X-24169458Y4968091D02*
X-24249641Y4846727D01*
X-24249641Y4846727D02*
X-24320767Y4716765D01*
X-24320767Y4716765D02*
X-24382608Y4576971D01*
X-24382608Y4576971D02*
X-24431191Y4425354D01*
X-24431191Y4425354D02*
X-24447035Y4343207D01*
X-21112032Y4267216D02*
X-21138283Y4442961D01*
X-21138283Y4442961D02*
X-21185113Y4599770D01*
X-21185113Y4599770D02*
X-21246666Y4738972D01*
X-21246666Y4738972D02*
X-21322804Y4868621D01*
X-21322804Y4868621D02*
X-21408268Y4984261D01*
X-21408268Y4984261D02*
X-21503299Y5089734D01*
X-21503299Y5089734D02*
X-21608145Y5186563D01*
X-21608145Y5186563D02*
X-21721038Y5273776D01*
X-21721038Y5273776D02*
X-21844046Y5352990D01*
X-21844046Y5352990D02*
X-21977431Y5423583D01*
X-21977431Y5423583D02*
X-22117961Y5483276D01*
X-22117961Y5483276D02*
X-22270225Y5532978D01*
X-22270225Y5532978D02*
X-22433626Y5570594D01*
X-22433626Y5570594D02*
X-22611053Y5594251D01*
X-22611053Y5594251D02*
X-22767927Y5600867D01*
X-23390540Y5473532D02*
X-23326868Y5335360D01*
X-23326868Y5335360D02*
X-23248266Y5212458D01*
X-23248266Y5212458D02*
X-23165329Y5093288D01*
X-23165329Y5093288D02*
X-23079916Y4977138D01*
X-23079916Y4977138D02*
X-22987308Y4857055D01*
X-22987308Y4857055D02*
X-22894482Y4742303D01*
X-22894482Y4742303D02*
X-22826645Y4662107D01*
X-21613490Y3702505D02*
X-21441767Y3673942D01*
X-21441767Y3673942D02*
X-21318343Y3750630D01*
X-21318343Y3750630D02*
X-21230654Y3863034D01*
X-21230654Y3863034D02*
X-21227832Y3867130D01*
X-22045430Y4550545D02*
X-21911971Y4483101D01*
X-21911971Y4483101D02*
X-21810274Y4381487D01*
X-21810274Y4381487D02*
X-21738011Y4252831D01*
X-21738011Y4252831D02*
X-21697018Y4092779D01*
X-21697018Y4092779D02*
X-21698105Y3927407D01*
X-21698105Y3927407D02*
X-21686865Y3738368D01*
X-21686865Y3738368D02*
X-21613490Y3702505D01*
X-22376015Y4399322D02*
X-22275231Y4498697D01*
X-22275231Y4498697D02*
X-22129261Y4552819D01*
X-22129261Y4552819D02*
X-22045430Y4550545D01*
X-22169000Y2536000D02*
X-22104609Y2400329D01*
X-22104609Y2400329D02*
X-21958040Y2454772D01*
X-21958040Y2454772D02*
X-21908675Y2483875D01*
D12*
G36*
X25234000Y330000D02*
G01*
X25269000Y319000D01*
X25298000Y310000D01*
X25331000Y300000D01*
X25373000Y287000D01*
X25412000Y275000D01*
X25445000Y265000D01*
X25458000Y261000D01*
X25462000Y259000D01*
X25490000Y243000D01*
X25519000Y227000D01*
X25546000Y212000D01*
X25578000Y194000D01*
X25582000Y192000D01*
X25584000Y190000D01*
X25620000Y160000D01*
X25634000Y148000D01*
X25657000Y129000D01*
X25676000Y113000D01*
X25689000Y102000D01*
X25708000Y86000D01*
X25732000Y66000D01*
X25745000Y55000D01*
X25747000Y53000D01*
X25748000Y51000D01*
X25762000Y33000D01*
X25765000Y27000D01*
X25778000Y9000D01*
X25793000Y-12000D01*
X25806000Y-30000D01*
X25818000Y-47000D01*
X25825000Y-57000D01*
X25840000Y-78000D01*
X25858000Y-103000D01*
X25873000Y-124000D01*
X25875000Y-127000D01*
X25876000Y-130000D01*
X25882000Y-143000D01*
X25890000Y-162000D01*
X25898000Y-180000D01*
X25910000Y-208000D01*
X25917000Y-224000D01*
X25925000Y-242000D01*
X25940000Y-277000D01*
X25955000Y-311000D01*
X25977000Y-362000D01*
X25979000Y-366000D01*
X25980000Y-371000D01*
X25992000Y-413000D01*
X25996000Y-428000D01*
X26002000Y-449000D01*
X26015000Y-495000D01*
X26023000Y-524000D01*
X26032000Y-556000D01*
X26042000Y-591000D01*
X26051000Y-624000D01*
X26058000Y-648000D01*
X26061000Y-659000D01*
X26065000Y-673000D01*
X26068000Y-686000D01*
X26070000Y-695000D01*
X26073000Y-708000D01*
X26075000Y-717000D01*
X26076000Y-722000D01*
X26079000Y-735000D01*
X26083000Y-753000D01*
X26086000Y-766000D01*
X26087000Y-771000D01*
X26095000Y-815000D01*
X26098000Y-831000D01*
X26101000Y-848000D01*
X26105000Y-869000D01*
X26109000Y-891000D01*
X26112000Y-908000D01*
X26113000Y-917000D01*
X26114000Y-927000D01*
X26116000Y-946000D01*
X26119000Y-975000D01*
X26121000Y-995000D01*
X26125000Y-1033000D01*
X26126000Y-1042000D01*
X26126000Y-1045000D01*
X26127000Y-1097000D01*
X26128000Y-1141000D01*
X26129000Y-1186000D01*
X26129000Y-1194000D01*
X26128000Y-1229000D01*
X26127000Y-1258000D01*
X26126000Y-1289000D01*
X26125000Y-1319000D01*
X26123000Y-1381000D01*
X26121000Y-1417000D01*
X26117000Y-1485000D01*
X26116000Y-1503000D01*
X26115000Y-1519000D01*
X26114000Y-1536000D01*
X26113000Y-1554000D01*
X26112000Y-1571000D01*
X26111000Y-1587000D01*
X26110000Y-1605000D01*
X26109000Y-1622000D01*
X26107000Y-1654000D01*
X26105000Y-1683000D01*
X26103000Y-1713000D01*
X26099000Y-1763000D01*
X26096000Y-1800000D01*
X26094000Y-1826000D01*
X26092000Y-1850000D01*
X26090000Y-1876000D01*
X26088000Y-1900000D01*
X26087000Y-1913000D01*
X26085000Y-1938000D01*
X26078000Y-2009000D01*
X26074000Y-2049000D01*
X26070000Y-2090000D01*
X26066000Y-2130000D01*
X26065000Y-2141000D01*
X26062000Y-2165000D01*
X26057000Y-2204000D01*
X26051000Y-2254000D01*
X26047000Y-2284000D01*
X26044000Y-2308000D01*
X26041000Y-2324000D01*
X26035000Y-2357000D01*
X26026000Y-2404000D01*
X26025000Y-2408000D01*
X26009000Y-2444000D01*
X25988000Y-2492000D01*
X25978000Y-2515000D01*
X25972000Y-2524000D01*
X25955000Y-2549000D01*
X25934000Y-2580000D01*
X25908000Y-2619000D01*
X25901000Y-2629000D01*
X25876000Y-2666000D01*
X25870000Y-2675000D01*
X25863000Y-2683000D01*
X25847000Y-2701000D01*
X25822000Y-2730000D01*
X25781000Y-2777000D01*
X25744000Y-2820000D01*
X25739000Y-2825000D01*
X25736000Y-2829000D01*
X25728000Y-2838000D01*
X25695000Y-2868000D01*
X25663000Y-2898000D01*
X25622000Y-2936000D01*
X25575000Y-2979000D01*
X25547000Y-2998000D01*
X25501000Y-3029000D01*
X25442000Y-3069000D01*
X25430000Y-3077000D01*
X25421000Y-3080000D01*
X25375000Y-3096000D01*
X25289000Y-3126000D01*
X25220000Y-3150000D01*
X25182000Y-3163000D01*
X25177000Y-3165000D01*
X25171000Y-3165000D01*
X25095000Y-3168000D01*
X25001000Y-3172000D01*
X24930000Y-3175000D01*
X24924000Y-3175000D01*
X24720000Y-3124000D01*
X24681000Y-3114000D01*
X24673000Y-3110000D01*
X24630000Y-3086000D01*
X24592000Y-3065000D01*
X24484000Y-3005000D01*
X24455000Y-2989000D01*
X24450000Y-2986000D01*
X24410000Y-2950000D01*
X24309000Y-2859000D01*
X24247000Y-2803000D01*
X24241000Y-2797000D01*
X24223000Y-2773000D01*
X24191000Y-2730000D01*
X24166000Y-2696000D01*
X24134000Y-2653000D01*
X24093000Y-2598000D01*
X24079000Y-2579000D01*
X24067000Y-2563000D01*
X24063000Y-2558000D01*
X24053000Y-2538000D01*
X23999000Y-2429000D01*
X23918000Y-2267000D01*
X23912000Y-2247000D01*
X23905000Y-2224000D01*
X23899000Y-2205000D01*
X23892000Y-2182000D01*
X23882000Y-2150000D01*
X23842000Y-2020000D01*
X23832000Y-1988000D01*
X23824000Y-1962000D01*
X23819000Y-1946000D01*
X23816000Y-1936000D01*
X23813000Y-1915000D01*
X23810000Y-1895000D01*
X23806000Y-1867000D01*
X23804000Y-1854000D01*
X23800000Y-1826000D01*
X23797000Y-1806000D01*
X23795000Y-1792000D01*
X23792000Y-1772000D01*
X23789000Y-1751000D01*
X23786000Y-1731000D01*
X23784000Y-1717000D01*
X23779000Y-1683000D01*
X23776000Y-1662000D01*
X23773000Y-1642000D01*
X23769000Y-1614000D01*
X23764000Y-1580000D01*
X23762000Y-1568000D01*
X23762000Y-1561000D01*
X23759000Y-1498000D01*
X23758000Y-1476000D01*
X23757000Y-1455000D01*
X23756000Y-1440000D01*
X23757000Y-1428000D01*
X23759000Y-1395000D01*
X23762000Y-1344000D01*
X23763000Y-1328000D01*
X23764000Y-1311000D01*
X23765000Y-1295000D01*
X23767000Y-1261000D01*
X23769000Y-1228000D01*
X23771000Y-1194000D01*
X23772000Y-1178000D01*
X23773000Y-1161000D01*
X23774000Y-1145000D01*
X23777000Y-1094000D01*
X23778000Y-1078000D01*
X23780000Y-1044000D01*
X23781000Y-1028000D01*
X23781000Y-1023000D01*
X23782000Y-1020000D01*
X23798000Y-956000D01*
X23812000Y-899000D01*
X23831000Y-823000D01*
X23842000Y-778000D01*
X23845000Y-767000D01*
X23861000Y-702000D01*
X23875000Y-646000D01*
X23876000Y-643000D01*
X23900000Y-593000D01*
X24037000Y-308000D01*
X24046000Y-297000D01*
X24053000Y-288000D01*
X24065000Y-273000D01*
X24072000Y-264000D01*
X24123000Y-200000D01*
X24263000Y-23000D01*
X24366000Y66000D01*
X24382000Y80000D01*
X24419000Y112000D01*
X24422000Y114000D01*
X24439000Y124000D01*
X24470000Y142000D01*
X24506000Y163000D01*
X24549000Y188000D01*
X24614000Y226000D01*
X24640000Y241000D01*
X24676000Y262000D01*
X24694000Y267000D01*
X24715000Y273000D01*
X24739000Y280000D01*
X24764000Y287000D01*
X24788000Y294000D01*
X24809000Y300000D01*
X24834000Y307000D01*
X24879000Y320000D01*
X24942000Y338000D01*
X25206000Y338000D01*
X25234000Y330000D01*
G37*
X25234000Y330000D02*
X25269000Y319000D01*
X25298000Y310000D01*
X25331000Y300000D01*
X25373000Y287000D01*
X25412000Y275000D01*
X25445000Y265000D01*
X25458000Y261000D01*
X25462000Y259000D01*
X25490000Y243000D01*
X25519000Y227000D01*
X25546000Y212000D01*
X25578000Y194000D01*
X25582000Y192000D01*
X25584000Y190000D01*
X25620000Y160000D01*
X25634000Y148000D01*
X25657000Y129000D01*
X25676000Y113000D01*
X25689000Y102000D01*
X25708000Y86000D01*
X25732000Y66000D01*
X25745000Y55000D01*
X25747000Y53000D01*
X25748000Y51000D01*
X25762000Y33000D01*
X25765000Y27000D01*
X25778000Y9000D01*
X25793000Y-12000D01*
X25806000Y-30000D01*
X25818000Y-47000D01*
X25825000Y-57000D01*
X25840000Y-78000D01*
X25858000Y-103000D01*
X25873000Y-124000D01*
X25875000Y-127000D01*
X25876000Y-130000D01*
X25882000Y-143000D01*
X25890000Y-162000D01*
X25898000Y-180000D01*
X25910000Y-208000D01*
X25917000Y-224000D01*
X25925000Y-242000D01*
X25940000Y-277000D01*
X25955000Y-311000D01*
X25977000Y-362000D01*
X25979000Y-366000D01*
X25980000Y-371000D01*
X25992000Y-413000D01*
X25996000Y-428000D01*
X26002000Y-449000D01*
X26015000Y-495000D01*
X26023000Y-524000D01*
X26032000Y-556000D01*
X26042000Y-591000D01*
X26051000Y-624000D01*
X26058000Y-648000D01*
X26061000Y-659000D01*
X26065000Y-673000D01*
X26068000Y-686000D01*
X26070000Y-695000D01*
X26073000Y-708000D01*
X26075000Y-717000D01*
X26076000Y-722000D01*
X26079000Y-735000D01*
X26083000Y-753000D01*
X26086000Y-766000D01*
X26087000Y-771000D01*
X26095000Y-815000D01*
X26098000Y-831000D01*
X26101000Y-848000D01*
X26105000Y-869000D01*
X26109000Y-891000D01*
X26112000Y-908000D01*
X26113000Y-917000D01*
X26114000Y-927000D01*
X26116000Y-946000D01*
X26119000Y-975000D01*
X26121000Y-995000D01*
X26125000Y-1033000D01*
X26126000Y-1042000D01*
X26126000Y-1045000D01*
X26127000Y-1097000D01*
X26128000Y-1141000D01*
X26129000Y-1186000D01*
X26129000Y-1194000D01*
X26128000Y-1229000D01*
X26127000Y-1258000D01*
X26126000Y-1289000D01*
X26125000Y-1319000D01*
X26123000Y-1381000D01*
X26121000Y-1417000D01*
X26117000Y-1485000D01*
X26116000Y-1503000D01*
X26115000Y-1519000D01*
X26114000Y-1536000D01*
X26113000Y-1554000D01*
X26112000Y-1571000D01*
X26111000Y-1587000D01*
X26110000Y-1605000D01*
X26109000Y-1622000D01*
X26107000Y-1654000D01*
X26105000Y-1683000D01*
X26103000Y-1713000D01*
X26099000Y-1763000D01*
X26096000Y-1800000D01*
X26094000Y-1826000D01*
X26092000Y-1850000D01*
X26090000Y-1876000D01*
X26088000Y-1900000D01*
X26087000Y-1913000D01*
X26085000Y-1938000D01*
X26078000Y-2009000D01*
X26074000Y-2049000D01*
X26070000Y-2090000D01*
X26066000Y-2130000D01*
X26065000Y-2141000D01*
X26062000Y-2165000D01*
X26057000Y-2204000D01*
X26051000Y-2254000D01*
X26047000Y-2284000D01*
X26044000Y-2308000D01*
X26041000Y-2324000D01*
X26035000Y-2357000D01*
X26026000Y-2404000D01*
X26025000Y-2408000D01*
X26009000Y-2444000D01*
X25988000Y-2492000D01*
X25978000Y-2515000D01*
X25972000Y-2524000D01*
X25955000Y-2549000D01*
X25934000Y-2580000D01*
X25908000Y-2619000D01*
X25901000Y-2629000D01*
X25876000Y-2666000D01*
X25870000Y-2675000D01*
X25863000Y-2683000D01*
X25847000Y-2701000D01*
X25822000Y-2730000D01*
X25781000Y-2777000D01*
X25744000Y-2820000D01*
X25739000Y-2825000D01*
X25736000Y-2829000D01*
X25728000Y-2838000D01*
X25695000Y-2868000D01*
X25663000Y-2898000D01*
X25622000Y-2936000D01*
X25575000Y-2979000D01*
X25547000Y-2998000D01*
X25501000Y-3029000D01*
X25442000Y-3069000D01*
X25430000Y-3077000D01*
X25421000Y-3080000D01*
X25375000Y-3096000D01*
X25289000Y-3126000D01*
X25220000Y-3150000D01*
X25182000Y-3163000D01*
X25177000Y-3165000D01*
X25171000Y-3165000D01*
X25095000Y-3168000D01*
X25001000Y-3172000D01*
X24930000Y-3175000D01*
X24924000Y-3175000D01*
X24720000Y-3124000D01*
X24681000Y-3114000D01*
X24673000Y-3110000D01*
X24630000Y-3086000D01*
X24592000Y-3065000D01*
X24484000Y-3005000D01*
X24455000Y-2989000D01*
X24450000Y-2986000D01*
X24410000Y-2950000D01*
X24309000Y-2859000D01*
X24247000Y-2803000D01*
X24241000Y-2797000D01*
X24223000Y-2773000D01*
X24191000Y-2730000D01*
X24166000Y-2696000D01*
X24134000Y-2653000D01*
X24093000Y-2598000D01*
X24079000Y-2579000D01*
X24067000Y-2563000D01*
X24063000Y-2558000D01*
X24053000Y-2538000D01*
X23999000Y-2429000D01*
X23918000Y-2267000D01*
X23912000Y-2247000D01*
X23905000Y-2224000D01*
X23899000Y-2205000D01*
X23892000Y-2182000D01*
X23882000Y-2150000D01*
X23842000Y-2020000D01*
X23832000Y-1988000D01*
X23824000Y-1962000D01*
X23819000Y-1946000D01*
X23816000Y-1936000D01*
X23813000Y-1915000D01*
X23810000Y-1895000D01*
X23806000Y-1867000D01*
X23804000Y-1854000D01*
X23800000Y-1826000D01*
X23797000Y-1806000D01*
X23795000Y-1792000D01*
X23792000Y-1772000D01*
X23789000Y-1751000D01*
X23786000Y-1731000D01*
X23784000Y-1717000D01*
X23779000Y-1683000D01*
X23776000Y-1662000D01*
X23773000Y-1642000D01*
X23769000Y-1614000D01*
X23764000Y-1580000D01*
X23762000Y-1568000D01*
X23762000Y-1561000D01*
X23759000Y-1498000D01*
X23758000Y-1476000D01*
X23757000Y-1455000D01*
X23756000Y-1440000D01*
X23757000Y-1428000D01*
X23759000Y-1395000D01*
X23762000Y-1344000D01*
X23763000Y-1328000D01*
X23764000Y-1311000D01*
X23765000Y-1295000D01*
X23767000Y-1261000D01*
X23769000Y-1228000D01*
X23771000Y-1194000D01*
X23772000Y-1178000D01*
X23773000Y-1161000D01*
X23774000Y-1145000D01*
X23777000Y-1094000D01*
X23778000Y-1078000D01*
X23780000Y-1044000D01*
X23781000Y-1028000D01*
X23781000Y-1023000D01*
X23782000Y-1020000D01*
X23798000Y-956000D01*
X23812000Y-899000D01*
X23831000Y-823000D01*
X23842000Y-778000D01*
X23845000Y-767000D01*
X23861000Y-702000D01*
X23875000Y-646000D01*
X23876000Y-643000D01*
X23900000Y-593000D01*
X24037000Y-308000D01*
X24046000Y-297000D01*
X24053000Y-288000D01*
X24065000Y-273000D01*
X24072000Y-264000D01*
X24123000Y-200000D01*
X24263000Y-23000D01*
X24366000Y66000D01*
X24382000Y80000D01*
X24419000Y112000D01*
X24422000Y114000D01*
X24439000Y124000D01*
X24470000Y142000D01*
X24506000Y163000D01*
X24549000Y188000D01*
X24614000Y226000D01*
X24640000Y241000D01*
X24676000Y262000D01*
X24694000Y267000D01*
X24715000Y273000D01*
X24739000Y280000D01*
X24764000Y287000D01*
X24788000Y294000D01*
X24809000Y300000D01*
X24834000Y307000D01*
X24879000Y320000D01*
X24942000Y338000D01*
X25206000Y338000D01*
X25234000Y330000D01*
G36*
X5476240Y180340D02*
G01*
X5534660Y177800D01*
X5654040Y160020D01*
X5666740Y157480D01*
X5707380Y144780D01*
X5773420Y124460D01*
X5943600Y48260D01*
X6088380Y-50800D01*
X6210300Y-132080D01*
X6273800Y-175260D01*
X6332220Y-233680D01*
X6527800Y-434340D01*
X6725920Y-734060D01*
X6868160Y-1066800D01*
X6954520Y-1412240D01*
X6982460Y-1772920D01*
X6954520Y-2113280D01*
X6868160Y-2466340D01*
X6720840Y-2796540D01*
X6522720Y-3083560D01*
X6278880Y-3319780D01*
X6068060Y-3464560D01*
X5842000Y-3591560D01*
X5750560Y-3616960D01*
X5633720Y-3657600D01*
X5466080Y-3690620D01*
X5267960Y-3703320D01*
X5080000Y-3690620D01*
X4993640Y-3688080D01*
X4729480Y-3619500D01*
X4617720Y-3589020D01*
X4312920Y-3429000D01*
X4086860Y-3246120D01*
X3812540Y-2926080D01*
X3675380Y-2669540D01*
X3627120Y-2570480D01*
X3573780Y-2410460D01*
X3517900Y-2146300D01*
X3487420Y-1770380D01*
X3489960Y-1526540D01*
X3515360Y-1292860D01*
X3586480Y-1046480D01*
X3754120Y-690880D01*
X3980180Y-383540D01*
X4241800Y-139700D01*
X4564380Y71120D01*
X4737100Y139700D01*
X4824440Y162540D01*
X5334440Y172540D01*
X5415280Y182880D01*
X5476240Y180340D01*
G37*
X5476240Y180340D02*
X5534660Y177800D01*
X5654040Y160020D01*
X5666740Y157480D01*
X5707380Y144780D01*
X5773420Y124460D01*
X5943600Y48260D01*
X6088380Y-50800D01*
X6210300Y-132080D01*
X6273800Y-175260D01*
X6332220Y-233680D01*
X6527800Y-434340D01*
X6725920Y-734060D01*
X6868160Y-1066800D01*
X6954520Y-1412240D01*
X6982460Y-1772920D01*
X6954520Y-2113280D01*
X6868160Y-2466340D01*
X6720840Y-2796540D01*
X6522720Y-3083560D01*
X6278880Y-3319780D01*
X6068060Y-3464560D01*
X5842000Y-3591560D01*
X5750560Y-3616960D01*
X5633720Y-3657600D01*
X5466080Y-3690620D01*
X5267960Y-3703320D01*
X5080000Y-3690620D01*
X4993640Y-3688080D01*
X4729480Y-3619500D01*
X4617720Y-3589020D01*
X4312920Y-3429000D01*
X4086860Y-3246120D01*
X3812540Y-2926080D01*
X3675380Y-2669540D01*
X3627120Y-2570480D01*
X3573780Y-2410460D01*
X3517900Y-2146300D01*
X3487420Y-1770380D01*
X3489960Y-1526540D01*
X3515360Y-1292860D01*
X3586480Y-1046480D01*
X3754120Y-690880D01*
X3980180Y-383540D01*
X4241800Y-139700D01*
X4564380Y71120D01*
X4737100Y139700D01*
X4824440Y162540D01*
X5334440Y172540D01*
X5415280Y182880D01*
X5476240Y180340D01*
G36*
X22889346Y645411D02*
G01*
X22921380Y640659D01*
X22952794Y632790D01*
X22983286Y621880D01*
X23012561Y608034D01*
X23040338Y591385D01*
X23066350Y572093D01*
X23090345Y550345D01*
X23112093Y526350D01*
X23131385Y500338D01*
X23148034Y472561D01*
X23161880Y443286D01*
X23172790Y412794D01*
X23180659Y381380D01*
X23185411Y349346D01*
X23187000Y317000D01*
X23187000Y-673000D01*
X23185411Y-705346D01*
X23180659Y-737380D01*
X23172790Y-768794D01*
X23161880Y-799286D01*
X23148034Y-828561D01*
X23131385Y-856338D01*
X23112093Y-882350D01*
X23090345Y-906345D01*
X23066350Y-928093D01*
X23040338Y-947385D01*
X23012561Y-964034D01*
X22983286Y-977880D01*
X22952794Y-988790D01*
X22921380Y-996659D01*
X22889346Y-1001411D01*
X22857000Y-1003000D01*
X21367000Y-1003000D01*
X21334654Y-1001411D01*
X21302620Y-996659D01*
X21271206Y-988790D01*
X21240714Y-977880D01*
X21211439Y-964034D01*
X21183662Y-947385D01*
X21157650Y-928093D01*
X21133655Y-906345D01*
X21111907Y-882350D01*
X21092615Y-856338D01*
X21075966Y-828561D01*
X21062120Y-799286D01*
X21051210Y-768794D01*
X21043341Y-737380D01*
X21038589Y-705346D01*
X21037000Y-673000D01*
X21037000Y317000D01*
X21038589Y349346D01*
X21043341Y381380D01*
X21051210Y412794D01*
X21062120Y443286D01*
X21075966Y472561D01*
X21092615Y500338D01*
X21111907Y526350D01*
X21133655Y550345D01*
X21157650Y572093D01*
X21183662Y591385D01*
X21211439Y608034D01*
X21240714Y621880D01*
X21271206Y632790D01*
X21302620Y640659D01*
X21334654Y645411D01*
X21367000Y647000D01*
X22857000Y647000D01*
X22889346Y645411D01*
X22889346Y645411D01*
G37*
D13*
X22112000Y-178000D03*
D12*
G36*
X22889346Y-2154589D02*
G01*
X22921380Y-2159341D01*
X22952794Y-2167210D01*
X22983286Y-2178120D01*
X23012561Y-2191966D01*
X23040338Y-2208615D01*
X23066350Y-2227907D01*
X23090345Y-2249655D01*
X23112093Y-2273650D01*
X23131385Y-2299662D01*
X23148034Y-2327439D01*
X23161880Y-2356714D01*
X23172790Y-2387206D01*
X23180659Y-2418620D01*
X23185411Y-2450654D01*
X23187000Y-2483000D01*
X23187000Y-3473000D01*
X23185411Y-3505346D01*
X23180659Y-3537380D01*
X23172790Y-3568794D01*
X23161880Y-3599286D01*
X23148034Y-3628561D01*
X23131385Y-3656338D01*
X23112093Y-3682350D01*
X23090345Y-3706345D01*
X23066350Y-3728093D01*
X23040338Y-3747385D01*
X23012561Y-3764034D01*
X22983286Y-3777880D01*
X22952794Y-3788790D01*
X22921380Y-3796659D01*
X22889346Y-3801411D01*
X22857000Y-3803000D01*
X21367000Y-3803000D01*
X21334654Y-3801411D01*
X21302620Y-3796659D01*
X21271206Y-3788790D01*
X21240714Y-3777880D01*
X21211439Y-3764034D01*
X21183662Y-3747385D01*
X21157650Y-3728093D01*
X21133655Y-3706345D01*
X21111907Y-3682350D01*
X21092615Y-3656338D01*
X21075966Y-3628561D01*
X21062120Y-3599286D01*
X21051210Y-3568794D01*
X21043341Y-3537380D01*
X21038589Y-3505346D01*
X21037000Y-3473000D01*
X21037000Y-2483000D01*
X21038589Y-2450654D01*
X21043341Y-2418620D01*
X21051210Y-2387206D01*
X21062120Y-2356714D01*
X21075966Y-2327439D01*
X21092615Y-2299662D01*
X21111907Y-2273650D01*
X21133655Y-2249655D01*
X21157650Y-2227907D01*
X21183662Y-2208615D01*
X21211439Y-2191966D01*
X21240714Y-2178120D01*
X21271206Y-2167210D01*
X21302620Y-2159341D01*
X21334654Y-2154589D01*
X21367000Y-2153000D01*
X22857000Y-2153000D01*
X22889346Y-2154589D01*
X22889346Y-2154589D01*
G37*
D13*
X22112000Y-2978000D03*
D12*
G36*
X2864346Y-2527589D02*
G01*
X2896380Y-2532341D01*
X2927794Y-2540210D01*
X2958286Y-2551120D01*
X2987561Y-2564966D01*
X3015338Y-2581615D01*
X3041350Y-2600907D01*
X3065345Y-2622655D01*
X3087093Y-2646650D01*
X3106385Y-2672662D01*
X3123034Y-2700439D01*
X3136880Y-2729714D01*
X3147790Y-2760206D01*
X3155659Y-2791620D01*
X3160411Y-2823654D01*
X3162000Y-2856000D01*
X3162000Y-3846000D01*
X3160411Y-3878346D01*
X3155659Y-3910380D01*
X3147790Y-3941794D01*
X3136880Y-3972286D01*
X3123034Y-4001561D01*
X3106385Y-4029338D01*
X3087093Y-4055350D01*
X3065345Y-4079345D01*
X3041350Y-4101093D01*
X3015338Y-4120385D01*
X2987561Y-4137034D01*
X2958286Y-4150880D01*
X2927794Y-4161790D01*
X2896380Y-4169659D01*
X2864346Y-4174411D01*
X2832000Y-4176000D01*
X1342000Y-4176000D01*
X1309654Y-4174411D01*
X1277620Y-4169659D01*
X1246206Y-4161790D01*
X1215714Y-4150880D01*
X1186439Y-4137034D01*
X1158662Y-4120385D01*
X1132650Y-4101093D01*
X1108655Y-4079345D01*
X1086907Y-4055350D01*
X1067615Y-4029338D01*
X1050966Y-4001561D01*
X1037120Y-3972286D01*
X1026210Y-3941794D01*
X1018341Y-3910380D01*
X1013589Y-3878346D01*
X1012000Y-3846000D01*
X1012000Y-2856000D01*
X1013589Y-2823654D01*
X1018341Y-2791620D01*
X1026210Y-2760206D01*
X1037120Y-2729714D01*
X1050966Y-2700439D01*
X1067615Y-2672662D01*
X1086907Y-2646650D01*
X1108655Y-2622655D01*
X1132650Y-2600907D01*
X1158662Y-2581615D01*
X1186439Y-2564966D01*
X1215714Y-2551120D01*
X1246206Y-2540210D01*
X1277620Y-2532341D01*
X1309654Y-2527589D01*
X1342000Y-2526000D01*
X2832000Y-2526000D01*
X2864346Y-2527589D01*
X2864346Y-2527589D01*
G37*
D13*
X2087000Y-3351000D03*
D12*
G36*
X2864346Y272411D02*
G01*
X2896380Y267659D01*
X2927794Y259790D01*
X2958286Y248880D01*
X2987561Y235034D01*
X3015338Y218385D01*
X3041350Y199093D01*
X3065345Y177345D01*
X3087093Y153350D01*
X3106385Y127338D01*
X3123034Y99561D01*
X3136880Y70286D01*
X3147790Y39794D01*
X3155659Y8380D01*
X3160411Y-23654D01*
X3162000Y-56000D01*
X3162000Y-1046000D01*
X3160411Y-1078346D01*
X3155659Y-1110380D01*
X3147790Y-1141794D01*
X3136880Y-1172286D01*
X3123034Y-1201561D01*
X3106385Y-1229338D01*
X3087093Y-1255350D01*
X3065345Y-1279345D01*
X3041350Y-1301093D01*
X3015338Y-1320385D01*
X2987561Y-1337034D01*
X2958286Y-1350880D01*
X2927794Y-1361790D01*
X2896380Y-1369659D01*
X2864346Y-1374411D01*
X2832000Y-1376000D01*
X1342000Y-1376000D01*
X1309654Y-1374411D01*
X1277620Y-1369659D01*
X1246206Y-1361790D01*
X1215714Y-1350880D01*
X1186439Y-1337034D01*
X1158662Y-1320385D01*
X1132650Y-1301093D01*
X1108655Y-1279345D01*
X1086907Y-1255350D01*
X1067615Y-1229338D01*
X1050966Y-1201561D01*
X1037120Y-1172286D01*
X1026210Y-1141794D01*
X1018341Y-1110380D01*
X1013589Y-1078346D01*
X1012000Y-1046000D01*
X1012000Y-56000D01*
X1013589Y-23654D01*
X1018341Y8380D01*
X1026210Y39794D01*
X1037120Y70286D01*
X1050966Y99561D01*
X1067615Y127338D01*
X1086907Y153350D01*
X1108655Y177345D01*
X1132650Y199093D01*
X1158662Y218385D01*
X1186439Y235034D01*
X1215714Y248880D01*
X1246206Y259790D01*
X1277620Y267659D01*
X1309654Y272411D01*
X1342000Y274000D01*
X2832000Y274000D01*
X2864346Y272411D01*
X2864346Y272411D01*
G37*
D13*
X2087000Y-551000D03*
D12*
G36*
X-9123057Y-3419655D02*
G01*
X-9089688Y-3424605D01*
X-9056965Y-3432802D01*
X-9025203Y-3444166D01*
X-8994707Y-3458590D01*
X-8965773Y-3475932D01*
X-8938677Y-3496028D01*
X-8913682Y-3518682D01*
X-8891028Y-3543677D01*
X-8870932Y-3570773D01*
X-8853590Y-3599707D01*
X-8839166Y-3630203D01*
X-8827802Y-3661965D01*
X-8819605Y-3694688D01*
X-8814655Y-3728057D01*
X-8813000Y-3761750D01*
X-8813000Y-4449250D01*
X-8814655Y-4482943D01*
X-8819605Y-4516312D01*
X-8827802Y-4549035D01*
X-8839166Y-4580797D01*
X-8853590Y-4611293D01*
X-8870932Y-4640227D01*
X-8891028Y-4667323D01*
X-8913682Y-4692318D01*
X-8938677Y-4714972D01*
X-8965773Y-4735068D01*
X-8994707Y-4752410D01*
X-9025203Y-4766834D01*
X-9056965Y-4778198D01*
X-9089688Y-4786395D01*
X-9123057Y-4791345D01*
X-9156750Y-4793000D01*
X-10269250Y-4793000D01*
X-10302943Y-4791345D01*
X-10336312Y-4786395D01*
X-10369035Y-4778198D01*
X-10400797Y-4766834D01*
X-10431293Y-4752410D01*
X-10460227Y-4735068D01*
X-10487323Y-4714972D01*
X-10512318Y-4692318D01*
X-10534972Y-4667323D01*
X-10555068Y-4640227D01*
X-10572410Y-4611293D01*
X-10586834Y-4580797D01*
X-10598198Y-4549035D01*
X-10606395Y-4516312D01*
X-10611345Y-4482943D01*
X-10613000Y-4449250D01*
X-10613000Y-3761750D01*
X-10611345Y-3728057D01*
X-10606395Y-3694688D01*
X-10598198Y-3661965D01*
X-10586834Y-3630203D01*
X-10572410Y-3599707D01*
X-10555068Y-3570773D01*
X-10534972Y-3543677D01*
X-10512318Y-3518682D01*
X-10487323Y-3496028D01*
X-10460227Y-3475932D01*
X-10431293Y-3458590D01*
X-10400797Y-3444166D01*
X-10369035Y-3432802D01*
X-10336312Y-3424605D01*
X-10302943Y-3419655D01*
X-10269250Y-3418000D01*
X-9156750Y-3418000D01*
X-9123057Y-3419655D01*
X-9123057Y-3419655D01*
G37*
D14*
X-9713000Y-4105500D03*
D12*
G36*
X-9123057Y-1544655D02*
G01*
X-9089688Y-1549605D01*
X-9056965Y-1557802D01*
X-9025203Y-1569166D01*
X-8994707Y-1583590D01*
X-8965773Y-1600932D01*
X-8938677Y-1621028D01*
X-8913682Y-1643682D01*
X-8891028Y-1668677D01*
X-8870932Y-1695773D01*
X-8853590Y-1724707D01*
X-8839166Y-1755203D01*
X-8827802Y-1786965D01*
X-8819605Y-1819688D01*
X-8814655Y-1853057D01*
X-8813000Y-1886750D01*
X-8813000Y-2574250D01*
X-8814655Y-2607943D01*
X-8819605Y-2641312D01*
X-8827802Y-2674035D01*
X-8839166Y-2705797D01*
X-8853590Y-2736293D01*
X-8870932Y-2765227D01*
X-8891028Y-2792323D01*
X-8913682Y-2817318D01*
X-8938677Y-2839972D01*
X-8965773Y-2860068D01*
X-8994707Y-2877410D01*
X-9025203Y-2891834D01*
X-9056965Y-2903198D01*
X-9089688Y-2911395D01*
X-9123057Y-2916345D01*
X-9156750Y-2918000D01*
X-10269250Y-2918000D01*
X-10302943Y-2916345D01*
X-10336312Y-2911395D01*
X-10369035Y-2903198D01*
X-10400797Y-2891834D01*
X-10431293Y-2877410D01*
X-10460227Y-2860068D01*
X-10487323Y-2839972D01*
X-10512318Y-2817318D01*
X-10534972Y-2792323D01*
X-10555068Y-2765227D01*
X-10572410Y-2736293D01*
X-10586834Y-2705797D01*
X-10598198Y-2674035D01*
X-10606395Y-2641312D01*
X-10611345Y-2607943D01*
X-10613000Y-2574250D01*
X-10613000Y-1886750D01*
X-10611345Y-1853057D01*
X-10606395Y-1819688D01*
X-10598198Y-1786965D01*
X-10586834Y-1755203D01*
X-10572410Y-1724707D01*
X-10555068Y-1695773D01*
X-10534972Y-1668677D01*
X-10512318Y-1643682D01*
X-10487323Y-1621028D01*
X-10460227Y-1600932D01*
X-10431293Y-1583590D01*
X-10400797Y-1569166D01*
X-10369035Y-1557802D01*
X-10336312Y-1549605D01*
X-10302943Y-1544655D01*
X-10269250Y-1543000D01*
X-9156750Y-1543000D01*
X-9123057Y-1544655D01*
X-9123057Y-1544655D01*
G37*
D14*
X-9713000Y-2230500D03*
D15*
X-23307999Y-6495999D03*
D16*
X-20767999Y-6495999D03*
X-23307999Y-3955999D03*
X-20767999Y-3955999D03*
M02*
